%TF.GenerationSoftware,KiCad,Pcbnew,8.0.1-rc1*%
%TF.CreationDate,2025-05-01T22:02:35-04:00*%
%TF.ProjectId,bhm,62686d2e-6b69-4636-9164-5f7063625858,rev?*%
%TF.SameCoordinates,Original*%
%TF.FileFunction,Copper,L1,Top*%
%TF.FilePolarity,Positive*%
%FSLAX46Y46*%
G04 Gerber Fmt 4.6, Leading zero omitted, Abs format (unit mm)*
G04 Created by KiCad (PCBNEW 8.0.1-rc1) date 2025-05-01 22:02:35*
%MOMM*%
%LPD*%
G01*
G04 APERTURE LIST*
G04 Aperture macros list*
%AMRoundRect*
0 Rectangle with rounded corners*
0 $1 Rounding radius*
0 $2 $3 $4 $5 $6 $7 $8 $9 X,Y pos of 4 corners*
0 Add a 4 corners polygon primitive as box body*
4,1,4,$2,$3,$4,$5,$6,$7,$8,$9,$2,$3,0*
0 Add four circle primitives for the rounded corners*
1,1,$1+$1,$2,$3*
1,1,$1+$1,$4,$5*
1,1,$1+$1,$6,$7*
1,1,$1+$1,$8,$9*
0 Add four rect primitives between the rounded corners*
20,1,$1+$1,$2,$3,$4,$5,0*
20,1,$1+$1,$4,$5,$6,$7,0*
20,1,$1+$1,$6,$7,$8,$9,0*
20,1,$1+$1,$8,$9,$2,$3,0*%
G04 Aperture macros list end*
%TA.AperFunction,ComponentPad*%
%ADD10RoundRect,0.250000X-3.250000X-1.750000X3.250000X-1.750000X3.250000X1.750000X-3.250000X1.750000X0*%
%TD*%
%TA.AperFunction,SMDPad,CuDef*%
%ADD11RoundRect,0.250000X1.350000X1.750000X-1.350000X1.750000X-1.350000X-1.750000X1.350000X-1.750000X0*%
%TD*%
%TA.AperFunction,ComponentPad*%
%ADD12C,1.600000*%
%TD*%
%TA.AperFunction,ComponentPad*%
%ADD13O,1.600000X1.600000*%
%TD*%
%TA.AperFunction,ComponentPad*%
%ADD14R,1.700000X1.700000*%
%TD*%
%TA.AperFunction,ComponentPad*%
%ADD15O,1.700000X1.700000*%
%TD*%
%TA.AperFunction,ComponentPad*%
%ADD16R,1.050000X1.500000*%
%TD*%
%TA.AperFunction,ComponentPad*%
%ADD17O,1.050000X1.500000*%
%TD*%
%TA.AperFunction,ComponentPad*%
%ADD18R,1.600000X1.600000*%
%TD*%
%TA.AperFunction,ComponentPad*%
%ADD19C,1.200000*%
%TD*%
%TA.AperFunction,ViaPad*%
%ADD20C,0.600000*%
%TD*%
%TA.AperFunction,Conductor*%
%ADD21C,0.600000*%
%TD*%
%TA.AperFunction,Conductor*%
%ADD22C,3.000000*%
%TD*%
%TA.AperFunction,Conductor*%
%ADD23C,0.300000*%
%TD*%
%TA.AperFunction,Conductor*%
%ADD24C,0.200000*%
%TD*%
G04 APERTURE END LIST*
D10*
%TO.P,PosBatt1,1,Pin_1*%
%TO.N,+8.4V*%
X197000000Y-122000000D03*
%TD*%
%TO.P,NegDevice1,1,Pin_1*%
%TO.N,Net-(NegDevice1-Pin_1)*%
X256000000Y-132000000D03*
%TD*%
D11*
%TO.P,SENS1,1*%
%TO.N,Net-(NegDevice1-Pin_1)*%
X219200000Y-137000000D03*
%TO.P,SENS1,2*%
%TO.N,GND*%
X214000000Y-137000000D03*
%TD*%
D12*
%TO.P,R2,1*%
%TO.N,Net-(U2-XTAL1{slash}PB3)*%
X209500000Y-125000000D03*
D13*
%TO.P,R2,2*%
%TO.N,Net-(U1A--)*%
X201880000Y-125000000D03*
%TD*%
D14*
%TO.P,J1,1,Pin_1*%
%TO.N,GND*%
X249500000Y-123000000D03*
D15*
%TO.P,J1,2,Pin_2*%
%TO.N,/5v*%
X249500000Y-125540000D03*
%TO.P,J1,3,Pin_3*%
%TO.N,Net-(J1-Pin_3)*%
X249500000Y-128080000D03*
%TO.P,J1,4,Pin_4*%
%TO.N,Net-(J1-Pin_4)*%
X249500000Y-130620000D03*
%TD*%
D16*
%TO.P,U3,1,VO*%
%TO.N,/5v*%
X229500000Y-121000000D03*
D17*
%TO.P,U3,2,GND*%
%TO.N,GND*%
X228230000Y-121000000D03*
%TO.P,U3,3,VI*%
%TO.N,+8.4V*%
X226960000Y-121000000D03*
%TD*%
D12*
%TO.P,R3,1*%
%TO.N,/5v*%
X209500000Y-122000000D03*
D13*
%TO.P,R3,2*%
%TO.N,Net-(U1A--)*%
X201880000Y-122000000D03*
%TD*%
D12*
%TO.P,R5,1*%
%TO.N,+8.4V*%
X201880000Y-129000000D03*
D13*
%TO.P,R5,2*%
%TO.N,Net-(U1A-+)*%
X209500000Y-129000000D03*
%TD*%
D10*
%TO.P,PosDevice1,1,Pin_1*%
%TO.N,+8.4V*%
X256000000Y-122000000D03*
%TD*%
D12*
%TO.P,R6,1*%
%TO.N,Net-(U1B--)*%
X231120000Y-132000000D03*
D13*
%TO.P,R6,2*%
%TO.N,GND*%
X223500000Y-132000000D03*
%TD*%
D12*
%TO.P,C2,1*%
%TO.N,/5v*%
X232500000Y-124000000D03*
%TO.P,C2,2*%
%TO.N,GND*%
X230000000Y-124000000D03*
%TD*%
%TO.P,R1,1*%
%TO.N,/5v*%
X235500000Y-121190000D03*
D13*
%TO.P,R1,2*%
%TO.N,Net-(U2-~{RESET}{slash}PB5)*%
X235500000Y-128810000D03*
%TD*%
D18*
%TO.P,U2,1,~{RESET}/PB5*%
%TO.N,Net-(U2-~{RESET}{slash}PB5)*%
X238700000Y-124200000D03*
D13*
%TO.P,U2,2,XTAL1/PB3*%
%TO.N,Net-(U2-XTAL1{slash}PB3)*%
X238700000Y-126740000D03*
%TO.P,U2,3,XTAL2/PB4*%
%TO.N,Net-(U2-XTAL2{slash}PB4)*%
X238700000Y-129280000D03*
%TO.P,U2,4,GND*%
%TO.N,GND*%
X238700000Y-131820000D03*
%TO.P,U2,5,AREF/PB0*%
%TO.N,Net-(J1-Pin_4)*%
X246320000Y-131820000D03*
%TO.P,U2,6,PB1*%
%TO.N,unconnected-(U2-PB1-Pad6)*%
X246320000Y-129280000D03*
%TO.P,U2,7,PB2*%
%TO.N,Net-(J1-Pin_3)*%
X246320000Y-126740000D03*
%TO.P,U2,8,VCC*%
%TO.N,/5v*%
X246320000Y-124200000D03*
%TD*%
D18*
%TO.P,U1,1*%
%TO.N,Net-(U2-XTAL1{slash}PB3)*%
X212880000Y-122380000D03*
D13*
%TO.P,U1,2,-*%
%TO.N,Net-(U1A--)*%
X212880000Y-124920000D03*
%TO.P,U1,3,+*%
%TO.N,Net-(U1A-+)*%
X212880000Y-127460000D03*
%TO.P,U1,4,V-*%
%TO.N,GND*%
X212880000Y-130000000D03*
%TO.P,U1,5,+*%
%TO.N,Net-(NegDevice1-Pin_1)*%
X220500000Y-130000000D03*
%TO.P,U1,6,-*%
%TO.N,Net-(U1B--)*%
X220500000Y-127460000D03*
%TO.P,U1,7*%
%TO.N,Net-(U2-XTAL2{slash}PB4)*%
X220500000Y-124920000D03*
%TO.P,U1,8,V+*%
%TO.N,+8.4V*%
X220500000Y-122380000D03*
%TD*%
D12*
%TO.P,C1,1*%
%TO.N,+8.4V*%
X224000000Y-124000000D03*
%TO.P,C1,2*%
%TO.N,GND*%
X226500000Y-124000000D03*
%TD*%
%TO.P,R7,1*%
%TO.N,Net-(U2-XTAL2{slash}PB4)*%
X231120000Y-128000000D03*
D13*
%TO.P,R7,2*%
%TO.N,Net-(U1B--)*%
X223500000Y-128000000D03*
%TD*%
D12*
%TO.P,R4,1*%
%TO.N,Net-(U1A-+)*%
X209500000Y-132000000D03*
D13*
%TO.P,R4,2*%
%TO.N,GND*%
X201880000Y-132000000D03*
%TD*%
D10*
%TO.P,NegBatt1,1,Pin_1*%
%TO.N,GND*%
X197000000Y-132000000D03*
%TD*%
D19*
%TO.P,C3,1*%
%TO.N,/5v*%
X235750000Y-132900000D03*
%TO.P,C3,2*%
%TO.N,GND*%
X234250000Y-132900000D03*
%TD*%
D20*
%TO.N,+8.4V*%
X253500000Y-119500000D03*
X255000000Y-119500000D03*
X200000000Y-117500000D03*
X253000000Y-117500000D03*
X199000000Y-118500000D03*
X199500000Y-119500000D03*
X198000000Y-119500000D03*
X254000000Y-118500000D03*
X252500000Y-118500000D03*
X200500000Y-118500000D03*
%TO.N,GND*%
X211500000Y-136500000D03*
X209500000Y-136500000D03*
X210500000Y-136500000D03*
X199000000Y-135500000D03*
X211500000Y-137500000D03*
X200000000Y-136500000D03*
X209500000Y-137500000D03*
X198000000Y-134500000D03*
X199500000Y-134500000D03*
X210500000Y-137500000D03*
X200500000Y-135500000D03*
%TO.N,Net-(NegDevice1-Pin_1)*%
X222500000Y-137500000D03*
X253500000Y-134500000D03*
X255000000Y-134500000D03*
X223500000Y-137500000D03*
X253000000Y-136500000D03*
X221500000Y-136500000D03*
X252500000Y-135500000D03*
X221500000Y-137500000D03*
X254000000Y-135500000D03*
X222500000Y-136500000D03*
X223500000Y-136500000D03*
%TD*%
D21*
%TO.N,+8.4V*%
X226960000Y-121000000D02*
X226960000Y-117540000D01*
D22*
X256500000Y-122000000D02*
X252000000Y-117500000D01*
X227000000Y-117500000D02*
X224000000Y-117500000D01*
D21*
X201880000Y-129000000D02*
X199500000Y-126620000D01*
X199500000Y-126620000D02*
X199500000Y-125000000D01*
D22*
X224000000Y-117500000D02*
X220500000Y-117500000D01*
D21*
X199500000Y-125000000D02*
X196500000Y-122000000D01*
D22*
X201000000Y-117500000D02*
X196500000Y-122000000D01*
X220500000Y-117500000D02*
X201000000Y-117500000D01*
D21*
X224000000Y-124000000D02*
X224000000Y-117500000D01*
D23*
X226960000Y-117540000D02*
X227000000Y-117500000D01*
D22*
X252000000Y-117500000D02*
X227000000Y-117500000D01*
D21*
X220500000Y-122380000D02*
X220500000Y-117500000D01*
D22*
%TO.N,GND*%
X196500000Y-132000000D02*
X201500000Y-137000000D01*
X201500000Y-137000000D02*
X214000000Y-137000000D01*
D21*
X244000000Y-123500000D02*
X245500000Y-122000000D01*
X238700000Y-131820000D02*
X242500000Y-128020000D01*
X228230000Y-123730000D02*
X228500000Y-124000000D01*
X243000000Y-123500000D02*
X244000000Y-123500000D01*
X242500000Y-128020000D02*
X242500000Y-124000000D01*
X228230000Y-121000000D02*
X228230000Y-123730000D01*
X248500000Y-122000000D02*
X249500000Y-123000000D01*
X242500000Y-124000000D02*
X243000000Y-123500000D01*
X245500000Y-122000000D02*
X248500000Y-122000000D01*
X228500000Y-124000000D02*
X230000000Y-124000000D01*
X226500000Y-124000000D02*
X228500000Y-124000000D01*
X201880000Y-136620000D02*
X201500000Y-137000000D01*
X201880000Y-132000000D02*
X201880000Y-136620000D01*
D23*
%TO.N,Net-(J1-Pin_3)*%
X248160000Y-126740000D02*
X249500000Y-128080000D01*
X246320000Y-126740000D02*
X248160000Y-126740000D01*
D21*
%TO.N,Net-(U1A--)*%
X201880000Y-122000000D02*
X201880000Y-125000000D01*
X201880000Y-125000000D02*
X201880000Y-125880000D01*
X210800000Y-127000000D02*
X212880000Y-124920000D01*
X201880000Y-125880000D02*
X203000000Y-127000000D01*
X203000000Y-127000000D02*
X210800000Y-127000000D01*
%TO.N,Net-(U2-XTAL1{slash}PB3)*%
X209500000Y-125000000D02*
X210260000Y-125000000D01*
X210260000Y-125000000D02*
X212880000Y-122380000D01*
%TO.N,Net-(U1A-+)*%
X211340000Y-129000000D02*
X212880000Y-127460000D01*
X209500000Y-129000000D02*
X209500000Y-132000000D01*
X209500000Y-129000000D02*
X211340000Y-129000000D01*
D22*
%TO.N,Net-(NegDevice1-Pin_1)*%
X219200000Y-137000000D02*
X251500000Y-137000000D01*
D21*
X220500000Y-130000000D02*
X220500000Y-135700000D01*
X220500000Y-135700000D02*
X219200000Y-137000000D01*
D22*
X251500000Y-137000000D02*
X256500000Y-132000000D01*
D21*
%TO.N,Net-(U1B--)*%
X223500000Y-128000000D02*
X227500000Y-132000000D01*
X223500000Y-128000000D02*
X221040000Y-128000000D01*
X227500000Y-132000000D02*
X231120000Y-132000000D01*
X221040000Y-128000000D02*
X220500000Y-127460000D01*
%TO.N,Net-(U2-XTAL2{slash}PB4)*%
X226161522Y-128000000D02*
X224161522Y-126000000D01*
X221580000Y-126000000D02*
X220500000Y-124920000D01*
X231120000Y-128000000D02*
X226161522Y-128000000D01*
X231120000Y-128000000D02*
X233620000Y-130500000D01*
X237480000Y-130500000D02*
X238700000Y-129280000D01*
X224161522Y-126000000D02*
X221580000Y-126000000D01*
X233620000Y-130500000D02*
X237480000Y-130500000D01*
D23*
%TO.N,Net-(J1-Pin_4)*%
X248300000Y-131820000D02*
X249500000Y-130620000D01*
X246320000Y-131820000D02*
X248300000Y-131820000D01*
D21*
%TO.N,/5v*%
X232500000Y-122500000D02*
X232500000Y-124000000D01*
D23*
X235310000Y-121000000D02*
X235500000Y-121190000D01*
D21*
X244000000Y-131000000D02*
X241200000Y-133800000D01*
X233810000Y-121190000D02*
X232500000Y-122500000D01*
X244000000Y-125500000D02*
X244000000Y-131000000D01*
X244500000Y-125000000D02*
X244000000Y-125500000D01*
X245520001Y-124999999D02*
X244500000Y-125000000D01*
X236650000Y-133800000D02*
X235750000Y-132900000D01*
X235500000Y-121190000D02*
X233810000Y-121190000D01*
X246320000Y-124200000D02*
X245520001Y-124999999D01*
D24*
X232880000Y-123620000D02*
X232500000Y-124000000D01*
D21*
X241200000Y-133800000D02*
X236650000Y-133800000D01*
%TD*%
M02*
