%TF.GenerationSoftware,KiCad,Pcbnew,8.0.1-rc1*%
%TF.CreationDate,2025-05-01T22:02:35-04:00*%
%TF.ProjectId,bhm,62686d2e-6b69-4636-9164-5f7063625858,rev?*%
%TF.SameCoordinates,Original*%
%TF.FileFunction,Copper,L2,Bot*%
%TF.FilePolarity,Positive*%
%FSLAX46Y46*%
G04 Gerber Fmt 4.6, Leading zero omitted, Abs format (unit mm)*
G04 Created by KiCad (PCBNEW 8.0.1-rc1) date 2025-05-01 22:02:35*
%MOMM*%
%LPD*%
G01*
G04 APERTURE LIST*
G04 Aperture macros list*
%AMRoundRect*
0 Rectangle with rounded corners*
0 $1 Rounding radius*
0 $2 $3 $4 $5 $6 $7 $8 $9 X,Y pos of 4 corners*
0 Add a 4 corners polygon primitive as box body*
4,1,4,$2,$3,$4,$5,$6,$7,$8,$9,$2,$3,0*
0 Add four circle primitives for the rounded corners*
1,1,$1+$1,$2,$3*
1,1,$1+$1,$4,$5*
1,1,$1+$1,$6,$7*
1,1,$1+$1,$8,$9*
0 Add four rect primitives between the rounded corners*
20,1,$1+$1,$2,$3,$4,$5,0*
20,1,$1+$1,$4,$5,$6,$7,0*
20,1,$1+$1,$6,$7,$8,$9,0*
20,1,$1+$1,$8,$9,$2,$3,0*%
G04 Aperture macros list end*
%TA.AperFunction,ComponentPad*%
%ADD10RoundRect,0.250000X-3.250000X-1.750000X3.250000X-1.750000X3.250000X1.750000X-3.250000X1.750000X0*%
%TD*%
%TA.AperFunction,ComponentPad*%
%ADD11C,1.600000*%
%TD*%
%TA.AperFunction,ComponentPad*%
%ADD12O,1.600000X1.600000*%
%TD*%
%TA.AperFunction,ComponentPad*%
%ADD13R,1.700000X1.700000*%
%TD*%
%TA.AperFunction,ComponentPad*%
%ADD14O,1.700000X1.700000*%
%TD*%
%TA.AperFunction,ComponentPad*%
%ADD15R,1.050000X1.500000*%
%TD*%
%TA.AperFunction,ComponentPad*%
%ADD16O,1.050000X1.500000*%
%TD*%
%TA.AperFunction,ComponentPad*%
%ADD17R,1.600000X1.600000*%
%TD*%
%TA.AperFunction,ComponentPad*%
%ADD18C,1.200000*%
%TD*%
%TA.AperFunction,ViaPad*%
%ADD19C,0.600000*%
%TD*%
%TA.AperFunction,Conductor*%
%ADD20C,3.000000*%
%TD*%
%TA.AperFunction,Conductor*%
%ADD21C,0.600000*%
%TD*%
G04 APERTURE END LIST*
D10*
%TO.P,PosBatt1,1,Pin_1*%
%TO.N,+8.4V*%
X197000000Y-122000000D03*
%TD*%
%TO.P,NegDevice1,1,Pin_1*%
%TO.N,Net-(NegDevice1-Pin_1)*%
X256000000Y-132000000D03*
%TD*%
D11*
%TO.P,R2,1*%
%TO.N,Net-(U2-XTAL1{slash}PB3)*%
X209500000Y-125000000D03*
D12*
%TO.P,R2,2*%
%TO.N,Net-(U1A--)*%
X201880000Y-125000000D03*
%TD*%
D13*
%TO.P,J1,1,Pin_1*%
%TO.N,GND*%
X249500000Y-123000000D03*
D14*
%TO.P,J1,2,Pin_2*%
%TO.N,/5v*%
X249500000Y-125540000D03*
%TO.P,J1,3,Pin_3*%
%TO.N,Net-(J1-Pin_3)*%
X249500000Y-128080000D03*
%TO.P,J1,4,Pin_4*%
%TO.N,Net-(J1-Pin_4)*%
X249500000Y-130620000D03*
%TD*%
D15*
%TO.P,U3,1,VO*%
%TO.N,/5v*%
X229500000Y-121000000D03*
D16*
%TO.P,U3,2,GND*%
%TO.N,GND*%
X228230000Y-121000000D03*
%TO.P,U3,3,VI*%
%TO.N,+8.4V*%
X226960000Y-121000000D03*
%TD*%
D11*
%TO.P,R3,1*%
%TO.N,/5v*%
X209500000Y-122000000D03*
D12*
%TO.P,R3,2*%
%TO.N,Net-(U1A--)*%
X201880000Y-122000000D03*
%TD*%
D11*
%TO.P,R5,1*%
%TO.N,+8.4V*%
X201880000Y-129000000D03*
D12*
%TO.P,R5,2*%
%TO.N,Net-(U1A-+)*%
X209500000Y-129000000D03*
%TD*%
D10*
%TO.P,PosDevice1,1,Pin_1*%
%TO.N,+8.4V*%
X256000000Y-122000000D03*
%TD*%
D11*
%TO.P,R6,1*%
%TO.N,Net-(U1B--)*%
X231120000Y-132000000D03*
D12*
%TO.P,R6,2*%
%TO.N,GND*%
X223500000Y-132000000D03*
%TD*%
D11*
%TO.P,C2,1*%
%TO.N,/5v*%
X232500000Y-124000000D03*
%TO.P,C2,2*%
%TO.N,GND*%
X230000000Y-124000000D03*
%TD*%
%TO.P,R1,1*%
%TO.N,/5v*%
X235500000Y-121190000D03*
D12*
%TO.P,R1,2*%
%TO.N,Net-(U2-~{RESET}{slash}PB5)*%
X235500000Y-128810000D03*
%TD*%
D17*
%TO.P,U2,1,~{RESET}/PB5*%
%TO.N,Net-(U2-~{RESET}{slash}PB5)*%
X238700000Y-124200000D03*
D12*
%TO.P,U2,2,XTAL1/PB3*%
%TO.N,Net-(U2-XTAL1{slash}PB3)*%
X238700000Y-126740000D03*
%TO.P,U2,3,XTAL2/PB4*%
%TO.N,Net-(U2-XTAL2{slash}PB4)*%
X238700000Y-129280000D03*
%TO.P,U2,4,GND*%
%TO.N,GND*%
X238700000Y-131820000D03*
%TO.P,U2,5,AREF/PB0*%
%TO.N,Net-(J1-Pin_4)*%
X246320000Y-131820000D03*
%TO.P,U2,6,PB1*%
%TO.N,unconnected-(U2-PB1-Pad6)*%
X246320000Y-129280000D03*
%TO.P,U2,7,PB2*%
%TO.N,Net-(J1-Pin_3)*%
X246320000Y-126740000D03*
%TO.P,U2,8,VCC*%
%TO.N,/5v*%
X246320000Y-124200000D03*
%TD*%
D17*
%TO.P,U1,1*%
%TO.N,Net-(U2-XTAL1{slash}PB3)*%
X212880000Y-122380000D03*
D12*
%TO.P,U1,2,-*%
%TO.N,Net-(U1A--)*%
X212880000Y-124920000D03*
%TO.P,U1,3,+*%
%TO.N,Net-(U1A-+)*%
X212880000Y-127460000D03*
%TO.P,U1,4,V-*%
%TO.N,GND*%
X212880000Y-130000000D03*
%TO.P,U1,5,+*%
%TO.N,Net-(NegDevice1-Pin_1)*%
X220500000Y-130000000D03*
%TO.P,U1,6,-*%
%TO.N,Net-(U1B--)*%
X220500000Y-127460000D03*
%TO.P,U1,7*%
%TO.N,Net-(U2-XTAL2{slash}PB4)*%
X220500000Y-124920000D03*
%TO.P,U1,8,V+*%
%TO.N,+8.4V*%
X220500000Y-122380000D03*
%TD*%
D11*
%TO.P,C1,1*%
%TO.N,+8.4V*%
X224000000Y-124000000D03*
%TO.P,C1,2*%
%TO.N,GND*%
X226500000Y-124000000D03*
%TD*%
%TO.P,R7,1*%
%TO.N,Net-(U2-XTAL2{slash}PB4)*%
X231120000Y-128000000D03*
D12*
%TO.P,R7,2*%
%TO.N,Net-(U1B--)*%
X223500000Y-128000000D03*
%TD*%
D11*
%TO.P,R4,1*%
%TO.N,Net-(U1A-+)*%
X209500000Y-132000000D03*
D12*
%TO.P,R4,2*%
%TO.N,GND*%
X201880000Y-132000000D03*
%TD*%
D10*
%TO.P,NegBatt1,1,Pin_1*%
%TO.N,GND*%
X197000000Y-132000000D03*
%TD*%
D18*
%TO.P,C3,1*%
%TO.N,/5v*%
X235750000Y-132900000D03*
%TO.P,C3,2*%
%TO.N,GND*%
X234250000Y-132900000D03*
%TD*%
D19*
%TO.N,+8.4V*%
X253500000Y-119500000D03*
X255000000Y-119500000D03*
X200000000Y-117500000D03*
X253000000Y-117500000D03*
X199000000Y-118500000D03*
X199500000Y-119500000D03*
X198000000Y-119500000D03*
X254000000Y-118500000D03*
X252500000Y-118500000D03*
X200500000Y-118500000D03*
%TO.N,GND*%
X211500000Y-136500000D03*
X209500000Y-136500000D03*
X210500000Y-136500000D03*
X199000000Y-135500000D03*
X211500000Y-137500000D03*
X200000000Y-136500000D03*
X209500000Y-137500000D03*
X198000000Y-134500000D03*
X199500000Y-134500000D03*
X210500000Y-137500000D03*
X200500000Y-135500000D03*
%TO.N,Net-(NegDevice1-Pin_1)*%
X222500000Y-137500000D03*
X253500000Y-134500000D03*
X255000000Y-134500000D03*
X223500000Y-137500000D03*
X253000000Y-136500000D03*
X221500000Y-136500000D03*
X252500000Y-135500000D03*
X221500000Y-137500000D03*
X254000000Y-135500000D03*
X222500000Y-136500000D03*
X223500000Y-136500000D03*
%TD*%
D20*
%TO.N,+8.4V*%
X252000000Y-117500000D02*
X256500000Y-122000000D01*
X201000000Y-117500000D02*
X252000000Y-117500000D01*
X196500000Y-122000000D02*
X201000000Y-117500000D01*
D21*
%TO.N,GND*%
X238700000Y-131820000D02*
X238180000Y-131300000D01*
X241000000Y-129520000D02*
X238700000Y-131820000D01*
X202000000Y-134000000D02*
X201880000Y-133880000D01*
X235000000Y-131300000D02*
X234250000Y-132050000D01*
X214880000Y-133500000D02*
X214880000Y-133620000D01*
X201880000Y-133880000D02*
X201880000Y-132000000D01*
X211000000Y-121000000D02*
X211000000Y-128120000D01*
X214880000Y-133620000D02*
X214500000Y-134000000D01*
X214880000Y-133500000D02*
X215000000Y-133500000D01*
X215500000Y-134000000D02*
X223000000Y-134000000D01*
X249000000Y-122500000D02*
X249500000Y-123000000D01*
X228230000Y-122005000D02*
X228230000Y-122500000D01*
D20*
X196500000Y-132000000D02*
X201500000Y-137000000D01*
D21*
X241000000Y-122500000D02*
X241000000Y-129520000D01*
X214880000Y-132000000D02*
X214880000Y-133500000D01*
X214880000Y-132000000D02*
X212880000Y-130000000D01*
X211000000Y-128120000D02*
X212880000Y-130000000D01*
X228725000Y-122500000D02*
X241000000Y-122500000D01*
X228230000Y-122500000D02*
X226000000Y-122500000D01*
X214500000Y-134000000D02*
X202000000Y-134000000D01*
X228230000Y-122005000D02*
X228725000Y-122500000D01*
X226000000Y-122500000D02*
X224500000Y-121000000D01*
X223000000Y-134000000D02*
X223500000Y-133500000D01*
X223500000Y-133500000D02*
X223500000Y-132000000D01*
X224500000Y-121000000D02*
X211000000Y-121000000D01*
X234250000Y-132050000D02*
X234250000Y-132900000D01*
D20*
X201500000Y-137000000D02*
X212000000Y-137000000D01*
D21*
X238180000Y-131300000D02*
X235000000Y-131300000D01*
X215000000Y-133500000D02*
X215500000Y-134000000D01*
X228230000Y-121000000D02*
X228230000Y-122005000D01*
%TO.N,Net-(U2-~{RESET}{slash}PB5)*%
X235500000Y-127400000D02*
X235500000Y-128810000D01*
X238700000Y-124200000D02*
X235500000Y-127400000D01*
%TO.N,Net-(U2-XTAL1{slash}PB3)*%
X238700000Y-126740000D02*
X237000000Y-128440000D01*
X222500000Y-130000000D02*
X222500000Y-130500000D01*
X236000000Y-130500000D02*
X232500000Y-130500000D01*
X237000000Y-129500000D02*
X236000000Y-130500000D01*
X237000000Y-128440000D02*
X237000000Y-129500000D01*
X232500000Y-130500000D02*
X232000000Y-130000000D01*
X218500000Y-128000000D02*
X212880000Y-122380000D01*
X232000000Y-130000000D02*
X222500000Y-130000000D01*
X222500000Y-130500000D02*
X221000000Y-132000000D01*
X218500000Y-132000000D02*
X218500000Y-128000000D01*
X221000000Y-132000000D02*
X218500000Y-132000000D01*
D20*
%TO.N,Net-(NegDevice1-Pin_1)*%
X251500000Y-137000000D02*
X221500000Y-137000000D01*
X256500000Y-132000000D02*
X251500000Y-137000000D01*
D21*
%TO.N,/5v*%
X230500000Y-121000000D02*
X229250000Y-119750000D01*
X235310000Y-121000000D02*
X235500000Y-121190000D01*
X210000000Y-120000000D02*
X209500000Y-120500000D01*
X226285431Y-120000000D02*
X210000000Y-120000000D01*
X247620000Y-125500000D02*
X249460000Y-125500000D01*
X229250000Y-119750000D02*
X226535431Y-119750000D01*
X230500000Y-121000000D02*
X233500000Y-121000000D01*
X229500000Y-121000000D02*
X230500000Y-121000000D01*
X246320000Y-124200000D02*
X247620000Y-125500000D01*
X234500000Y-121000000D02*
X235310000Y-121000000D01*
X234500000Y-121000000D02*
X243120000Y-121000000D01*
X209500000Y-120500000D02*
X209500000Y-122000000D01*
X233500000Y-121000000D02*
X234500000Y-121000000D01*
X249460000Y-125500000D02*
X249500000Y-125540000D01*
X243120000Y-121000000D02*
X246320000Y-124200000D01*
X226535431Y-119750000D02*
X226285431Y-120000000D01*
%TD*%
M02*
