M48
; DRILL file {KiCad 8.0.1-rc1} date 2025-05-01T22:02:38-0400
; FORMAT={-:-/ absolute / inch / decimal}
; #@! TF.CreationDate,2025-05-01T22:02:38-04:00
; #@! TF.GenerationSoftware,Kicad,Pcbnew,8.0.1-rc1
; #@! TF.FileFunction,Plated,1,2,PTH
FMAT,2
INCH
; #@! TA.AperFunction,Plated,PTH,ViaDrill
T1C0.0118
; #@! TA.AperFunction,Plated,PTH,ComponentDrill
T2C0.0236
; #@! TA.AperFunction,Plated,PTH,ComponentDrill
T3C0.0295
; #@! TA.AperFunction,Plated,PTH,ComponentDrill
T4C0.0315
; #@! TA.AperFunction,Plated,PTH,ComponentDrill
T5C0.0394
; #@! TA.AperFunction,Plated,PTH,ComponentDrill
T6C0.0787
%
G90
G05
T1
X7.7953Y-4.7047
X7.7953Y-5.2953
X7.8346Y-4.6654
X7.8346Y-5.3346
X7.8543Y-4.7047
X7.8543Y-5.2953
X7.874Y-4.626
X7.874Y-5.374
X7.8937Y-4.6654
X7.8937Y-5.3346
X8.248Y-5.374
X8.248Y-5.4134
X8.2874Y-5.374
X8.2874Y-5.4134
X8.3268Y-5.374
X8.3268Y-5.4134
X8.7205Y-5.374
X8.7205Y-5.4134
X8.7598Y-5.374
X8.7598Y-5.4134
X8.7992Y-5.374
X8.7992Y-5.4134
X9.9409Y-4.6654
X9.9409Y-5.3346
X9.9606Y-4.626
X9.9606Y-5.374
X9.9803Y-4.7047
X9.9803Y-5.2953
X10.0Y-4.6654
X10.0Y-5.3346
X10.0394Y-4.7047
X10.0394Y-5.2953
T2
X9.2224Y-5.2323
X9.2815Y-5.2323
T3
X8.9354Y-4.7638
X8.9854Y-4.7638
X9.0354Y-4.7638
T4
X7.948Y-4.8031
X7.948Y-4.9213
X7.948Y-5.0787
X7.948Y-5.1969
X8.248Y-4.8031
X8.248Y-4.9213
X8.248Y-5.0787
X8.248Y-5.1969
X8.3811Y-4.8181
X8.3811Y-4.9181
X8.3811Y-5.0181
X8.3811Y-5.1181
X8.6811Y-4.8181
X8.6811Y-4.9181
X8.6811Y-5.0181
X8.6811Y-5.1181
X8.7992Y-5.0394
X8.7992Y-5.1969
X8.8189Y-4.8819
X8.9173Y-4.8819
X9.0551Y-4.8819
X9.0992Y-5.0394
X9.0992Y-5.1969
X9.1535Y-4.8819
X9.2717Y-4.7713
X9.2717Y-5.0713
X9.3976Y-4.8898
X9.3976Y-4.9898
X9.3976Y-5.0898
X9.3976Y-5.1898
X9.6976Y-4.8898
X9.6976Y-4.9898
X9.6976Y-5.0898
X9.6976Y-5.1898
T5
X9.8228Y-4.8425
X9.8228Y-4.9425
X9.8228Y-5.0425
X9.8228Y-5.1425
T6
G00X7.7362Y-4.8031
M15
G01X7.7756Y-4.8031
M16
G05
G00X7.7362Y-5.1969
M15
G01X7.7756Y-5.1969
M16
G05
G00X10.0591Y-4.8031
M15
G01X10.0984Y-4.8031
M16
G05
G00X10.0591Y-5.1969
M15
G01X10.0984Y-5.1969
M16
G05
M30
