%TF.GenerationSoftware,KiCad,Pcbnew,8.0.1-rc1*%
%TF.CreationDate,2025-05-01T22:02:35-04:00*%
%TF.ProjectId,bhm,62686d2e-6b69-4636-9164-5f7063625858,rev?*%
%TF.SameCoordinates,Original*%
%TF.FileFunction,Legend,Top*%
%TF.FilePolarity,Positive*%
%FSLAX46Y46*%
G04 Gerber Fmt 4.6, Leading zero omitted, Abs format (unit mm)*
G04 Created by KiCad (PCBNEW 8.0.1-rc1) date 2025-05-01 22:02:35*
%MOMM*%
%LPD*%
G01*
G04 APERTURE LIST*
%ADD10C,0.100000*%
%ADD11C,0.150000*%
%ADD12C,0.120000*%
G04 APERTURE END LIST*
D10*
X225053884Y-138872419D02*
X225053884Y-137872419D01*
X225053884Y-137872419D02*
X225291979Y-137872419D01*
X225291979Y-137872419D02*
X225434836Y-137920038D01*
X225434836Y-137920038D02*
X225530074Y-138015276D01*
X225530074Y-138015276D02*
X225577693Y-138110514D01*
X225577693Y-138110514D02*
X225625312Y-138300990D01*
X225625312Y-138300990D02*
X225625312Y-138443847D01*
X225625312Y-138443847D02*
X225577693Y-138634323D01*
X225577693Y-138634323D02*
X225530074Y-138729561D01*
X225530074Y-138729561D02*
X225434836Y-138824800D01*
X225434836Y-138824800D02*
X225291979Y-138872419D01*
X225291979Y-138872419D02*
X225053884Y-138872419D01*
X226434836Y-138824800D02*
X226339598Y-138872419D01*
X226339598Y-138872419D02*
X226149122Y-138872419D01*
X226149122Y-138872419D02*
X226053884Y-138824800D01*
X226053884Y-138824800D02*
X226006265Y-138729561D01*
X226006265Y-138729561D02*
X226006265Y-138348609D01*
X226006265Y-138348609D02*
X226053884Y-138253371D01*
X226053884Y-138253371D02*
X226149122Y-138205752D01*
X226149122Y-138205752D02*
X226339598Y-138205752D01*
X226339598Y-138205752D02*
X226434836Y-138253371D01*
X226434836Y-138253371D02*
X226482455Y-138348609D01*
X226482455Y-138348609D02*
X226482455Y-138443847D01*
X226482455Y-138443847D02*
X226006265Y-138539085D01*
X226863408Y-138824800D02*
X226958646Y-138872419D01*
X226958646Y-138872419D02*
X227149122Y-138872419D01*
X227149122Y-138872419D02*
X227244360Y-138824800D01*
X227244360Y-138824800D02*
X227291979Y-138729561D01*
X227291979Y-138729561D02*
X227291979Y-138681942D01*
X227291979Y-138681942D02*
X227244360Y-138586704D01*
X227244360Y-138586704D02*
X227149122Y-138539085D01*
X227149122Y-138539085D02*
X227006265Y-138539085D01*
X227006265Y-138539085D02*
X226911027Y-138491466D01*
X226911027Y-138491466D02*
X226863408Y-138396228D01*
X226863408Y-138396228D02*
X226863408Y-138348609D01*
X226863408Y-138348609D02*
X226911027Y-138253371D01*
X226911027Y-138253371D02*
X227006265Y-138205752D01*
X227006265Y-138205752D02*
X227149122Y-138205752D01*
X227149122Y-138205752D02*
X227244360Y-138253371D01*
X227720551Y-138872419D02*
X227720551Y-138205752D01*
X227720551Y-137872419D02*
X227672932Y-137920038D01*
X227672932Y-137920038D02*
X227720551Y-137967657D01*
X227720551Y-137967657D02*
X227768170Y-137920038D01*
X227768170Y-137920038D02*
X227720551Y-137872419D01*
X227720551Y-137872419D02*
X227720551Y-137967657D01*
X228625312Y-138205752D02*
X228625312Y-139015276D01*
X228625312Y-139015276D02*
X228577693Y-139110514D01*
X228577693Y-139110514D02*
X228530074Y-139158133D01*
X228530074Y-139158133D02*
X228434836Y-139205752D01*
X228434836Y-139205752D02*
X228291979Y-139205752D01*
X228291979Y-139205752D02*
X228196741Y-139158133D01*
X228625312Y-138824800D02*
X228530074Y-138872419D01*
X228530074Y-138872419D02*
X228339598Y-138872419D01*
X228339598Y-138872419D02*
X228244360Y-138824800D01*
X228244360Y-138824800D02*
X228196741Y-138777180D01*
X228196741Y-138777180D02*
X228149122Y-138681942D01*
X228149122Y-138681942D02*
X228149122Y-138396228D01*
X228149122Y-138396228D02*
X228196741Y-138300990D01*
X228196741Y-138300990D02*
X228244360Y-138253371D01*
X228244360Y-138253371D02*
X228339598Y-138205752D01*
X228339598Y-138205752D02*
X228530074Y-138205752D01*
X228530074Y-138205752D02*
X228625312Y-138253371D01*
X229101503Y-138205752D02*
X229101503Y-138872419D01*
X229101503Y-138300990D02*
X229149122Y-138253371D01*
X229149122Y-138253371D02*
X229244360Y-138205752D01*
X229244360Y-138205752D02*
X229387217Y-138205752D01*
X229387217Y-138205752D02*
X229482455Y-138253371D01*
X229482455Y-138253371D02*
X229530074Y-138348609D01*
X229530074Y-138348609D02*
X229530074Y-138872419D01*
X230768170Y-138872419D02*
X230768170Y-137872419D01*
X230768170Y-138253371D02*
X230863408Y-138205752D01*
X230863408Y-138205752D02*
X231053884Y-138205752D01*
X231053884Y-138205752D02*
X231149122Y-138253371D01*
X231149122Y-138253371D02*
X231196741Y-138300990D01*
X231196741Y-138300990D02*
X231244360Y-138396228D01*
X231244360Y-138396228D02*
X231244360Y-138681942D01*
X231244360Y-138681942D02*
X231196741Y-138777180D01*
X231196741Y-138777180D02*
X231149122Y-138824800D01*
X231149122Y-138824800D02*
X231053884Y-138872419D01*
X231053884Y-138872419D02*
X230863408Y-138872419D01*
X230863408Y-138872419D02*
X230768170Y-138824800D01*
X231577694Y-138205752D02*
X231815789Y-138872419D01*
X232053884Y-138205752D02*
X231815789Y-138872419D01*
X231815789Y-138872419D02*
X231720551Y-139110514D01*
X231720551Y-139110514D02*
X231672932Y-139158133D01*
X231672932Y-139158133D02*
X231577694Y-139205752D01*
X232434837Y-138777180D02*
X232482456Y-138824800D01*
X232482456Y-138824800D02*
X232434837Y-138872419D01*
X232434837Y-138872419D02*
X232387218Y-138824800D01*
X232387218Y-138824800D02*
X232434837Y-138777180D01*
X232434837Y-138777180D02*
X232434837Y-138872419D01*
X232434837Y-138253371D02*
X232482456Y-138300990D01*
X232482456Y-138300990D02*
X232434837Y-138348609D01*
X232434837Y-138348609D02*
X232387218Y-138300990D01*
X232387218Y-138300990D02*
X232434837Y-138253371D01*
X232434837Y-138253371D02*
X232434837Y-138348609D01*
X233672932Y-138872419D02*
X233672932Y-137872419D01*
X233672932Y-137872419D02*
X234006265Y-138586704D01*
X234006265Y-138586704D02*
X234339598Y-137872419D01*
X234339598Y-137872419D02*
X234339598Y-138872419D01*
X234815789Y-138777180D02*
X234863408Y-138824800D01*
X234863408Y-138824800D02*
X234815789Y-138872419D01*
X234815789Y-138872419D02*
X234768170Y-138824800D01*
X234768170Y-138824800D02*
X234815789Y-138777180D01*
X234815789Y-138777180D02*
X234815789Y-138872419D01*
X236053884Y-138872419D02*
X236053884Y-137872419D01*
X236053884Y-138348609D02*
X236625312Y-138348609D01*
X236625312Y-138872419D02*
X236625312Y-137872419D01*
X237530074Y-138872419D02*
X237530074Y-138348609D01*
X237530074Y-138348609D02*
X237482455Y-138253371D01*
X237482455Y-138253371D02*
X237387217Y-138205752D01*
X237387217Y-138205752D02*
X237196741Y-138205752D01*
X237196741Y-138205752D02*
X237101503Y-138253371D01*
X237530074Y-138824800D02*
X237434836Y-138872419D01*
X237434836Y-138872419D02*
X237196741Y-138872419D01*
X237196741Y-138872419D02*
X237101503Y-138824800D01*
X237101503Y-138824800D02*
X237053884Y-138729561D01*
X237053884Y-138729561D02*
X237053884Y-138634323D01*
X237053884Y-138634323D02*
X237101503Y-138539085D01*
X237101503Y-138539085D02*
X237196741Y-138491466D01*
X237196741Y-138491466D02*
X237434836Y-138491466D01*
X237434836Y-138491466D02*
X237530074Y-138443847D01*
X238434836Y-138205752D02*
X238434836Y-138872419D01*
X238006265Y-138205752D02*
X238006265Y-138729561D01*
X238006265Y-138729561D02*
X238053884Y-138824800D01*
X238053884Y-138824800D02*
X238149122Y-138872419D01*
X238149122Y-138872419D02*
X238291979Y-138872419D01*
X238291979Y-138872419D02*
X238387217Y-138824800D01*
X238387217Y-138824800D02*
X238434836Y-138777180D01*
X238768170Y-138205752D02*
X239149122Y-138205752D01*
X238911027Y-137872419D02*
X238911027Y-138729561D01*
X238911027Y-138729561D02*
X238958646Y-138824800D01*
X238958646Y-138824800D02*
X239053884Y-138872419D01*
X239053884Y-138872419D02*
X239149122Y-138872419D01*
X239482456Y-138872419D02*
X239482456Y-138205752D01*
X239482456Y-138300990D02*
X239530075Y-138253371D01*
X239530075Y-138253371D02*
X239625313Y-138205752D01*
X239625313Y-138205752D02*
X239768170Y-138205752D01*
X239768170Y-138205752D02*
X239863408Y-138253371D01*
X239863408Y-138253371D02*
X239911027Y-138348609D01*
X239911027Y-138348609D02*
X239911027Y-138872419D01*
X239911027Y-138348609D02*
X239958646Y-138253371D01*
X239958646Y-138253371D02*
X240053884Y-138205752D01*
X240053884Y-138205752D02*
X240196741Y-138205752D01*
X240196741Y-138205752D02*
X240291980Y-138253371D01*
X240291980Y-138253371D02*
X240339599Y-138348609D01*
X240339599Y-138348609D02*
X240339599Y-138872419D01*
X241244360Y-138872419D02*
X241244360Y-138348609D01*
X241244360Y-138348609D02*
X241196741Y-138253371D01*
X241196741Y-138253371D02*
X241101503Y-138205752D01*
X241101503Y-138205752D02*
X240911027Y-138205752D01*
X240911027Y-138205752D02*
X240815789Y-138253371D01*
X241244360Y-138824800D02*
X241149122Y-138872419D01*
X241149122Y-138872419D02*
X240911027Y-138872419D01*
X240911027Y-138872419D02*
X240815789Y-138824800D01*
X240815789Y-138824800D02*
X240768170Y-138729561D01*
X240768170Y-138729561D02*
X240768170Y-138634323D01*
X240768170Y-138634323D02*
X240815789Y-138539085D01*
X240815789Y-138539085D02*
X240911027Y-138491466D01*
X240911027Y-138491466D02*
X241149122Y-138491466D01*
X241149122Y-138491466D02*
X241244360Y-138443847D01*
X241720551Y-138205752D02*
X241720551Y-138872419D01*
X241720551Y-138300990D02*
X241768170Y-138253371D01*
X241768170Y-138253371D02*
X241863408Y-138205752D01*
X241863408Y-138205752D02*
X242006265Y-138205752D01*
X242006265Y-138205752D02*
X242101503Y-138253371D01*
X242101503Y-138253371D02*
X242149122Y-138348609D01*
X242149122Y-138348609D02*
X242149122Y-138872419D01*
D11*
X254515350Y-116619819D02*
X254515350Y-115619819D01*
X254515350Y-116572200D02*
X254420112Y-116619819D01*
X254420112Y-116619819D02*
X254229636Y-116619819D01*
X254229636Y-116619819D02*
X254134398Y-116572200D01*
X254134398Y-116572200D02*
X254086779Y-116524580D01*
X254086779Y-116524580D02*
X254039160Y-116429342D01*
X254039160Y-116429342D02*
X254039160Y-116143628D01*
X254039160Y-116143628D02*
X254086779Y-116048390D01*
X254086779Y-116048390D02*
X254134398Y-116000771D01*
X254134398Y-116000771D02*
X254229636Y-115953152D01*
X254229636Y-115953152D02*
X254420112Y-115953152D01*
X254420112Y-115953152D02*
X254515350Y-116000771D01*
X255372493Y-116572200D02*
X255277255Y-116619819D01*
X255277255Y-116619819D02*
X255086779Y-116619819D01*
X255086779Y-116619819D02*
X254991541Y-116572200D01*
X254991541Y-116572200D02*
X254943922Y-116476961D01*
X254943922Y-116476961D02*
X254943922Y-116096009D01*
X254943922Y-116096009D02*
X254991541Y-116000771D01*
X254991541Y-116000771D02*
X255086779Y-115953152D01*
X255086779Y-115953152D02*
X255277255Y-115953152D01*
X255277255Y-115953152D02*
X255372493Y-116000771D01*
X255372493Y-116000771D02*
X255420112Y-116096009D01*
X255420112Y-116096009D02*
X255420112Y-116191247D01*
X255420112Y-116191247D02*
X254943922Y-116286485D01*
X255753446Y-115953152D02*
X255991541Y-116619819D01*
X255991541Y-116619819D02*
X256229636Y-115953152D01*
X256610589Y-116619819D02*
X256610589Y-115953152D01*
X256610589Y-115619819D02*
X256562970Y-115667438D01*
X256562970Y-115667438D02*
X256610589Y-115715057D01*
X256610589Y-115715057D02*
X256658208Y-115667438D01*
X256658208Y-115667438D02*
X256610589Y-115619819D01*
X256610589Y-115619819D02*
X256610589Y-115715057D01*
X257515350Y-116572200D02*
X257420112Y-116619819D01*
X257420112Y-116619819D02*
X257229636Y-116619819D01*
X257229636Y-116619819D02*
X257134398Y-116572200D01*
X257134398Y-116572200D02*
X257086779Y-116524580D01*
X257086779Y-116524580D02*
X257039160Y-116429342D01*
X257039160Y-116429342D02*
X257039160Y-116143628D01*
X257039160Y-116143628D02*
X257086779Y-116048390D01*
X257086779Y-116048390D02*
X257134398Y-116000771D01*
X257134398Y-116000771D02*
X257229636Y-115953152D01*
X257229636Y-115953152D02*
X257420112Y-115953152D01*
X257420112Y-115953152D02*
X257515350Y-116000771D01*
X258324874Y-116572200D02*
X258229636Y-116619819D01*
X258229636Y-116619819D02*
X258039160Y-116619819D01*
X258039160Y-116619819D02*
X257943922Y-116572200D01*
X257943922Y-116572200D02*
X257896303Y-116476961D01*
X257896303Y-116476961D02*
X257896303Y-116096009D01*
X257896303Y-116096009D02*
X257943922Y-116000771D01*
X257943922Y-116000771D02*
X258039160Y-115953152D01*
X258039160Y-115953152D02*
X258229636Y-115953152D01*
X258229636Y-115953152D02*
X258324874Y-116000771D01*
X258324874Y-116000771D02*
X258372493Y-116096009D01*
X258372493Y-116096009D02*
X258372493Y-116191247D01*
X258372493Y-116191247D02*
X257896303Y-116286485D01*
X257925125Y-117985533D02*
X256401316Y-117985533D01*
X257163220Y-118747438D02*
X257163220Y-117223628D01*
X195925125Y-117985533D02*
X194401316Y-117985533D01*
X195163220Y-118747438D02*
X195163220Y-117223628D01*
X225420112Y-136596009D02*
X225562969Y-136643628D01*
X225562969Y-136643628D02*
X225610588Y-136691247D01*
X225610588Y-136691247D02*
X225658207Y-136786485D01*
X225658207Y-136786485D02*
X225658207Y-136929342D01*
X225658207Y-136929342D02*
X225610588Y-137024580D01*
X225610588Y-137024580D02*
X225562969Y-137072200D01*
X225562969Y-137072200D02*
X225467731Y-137119819D01*
X225467731Y-137119819D02*
X225086779Y-137119819D01*
X225086779Y-137119819D02*
X225086779Y-136119819D01*
X225086779Y-136119819D02*
X225420112Y-136119819D01*
X225420112Y-136119819D02*
X225515350Y-136167438D01*
X225515350Y-136167438D02*
X225562969Y-136215057D01*
X225562969Y-136215057D02*
X225610588Y-136310295D01*
X225610588Y-136310295D02*
X225610588Y-136405533D01*
X225610588Y-136405533D02*
X225562969Y-136500771D01*
X225562969Y-136500771D02*
X225515350Y-136548390D01*
X225515350Y-136548390D02*
X225420112Y-136596009D01*
X225420112Y-136596009D02*
X225086779Y-136596009D01*
X226515350Y-137119819D02*
X226515350Y-136596009D01*
X226515350Y-136596009D02*
X226467731Y-136500771D01*
X226467731Y-136500771D02*
X226372493Y-136453152D01*
X226372493Y-136453152D02*
X226182017Y-136453152D01*
X226182017Y-136453152D02*
X226086779Y-136500771D01*
X226515350Y-137072200D02*
X226420112Y-137119819D01*
X226420112Y-137119819D02*
X226182017Y-137119819D01*
X226182017Y-137119819D02*
X226086779Y-137072200D01*
X226086779Y-137072200D02*
X226039160Y-136976961D01*
X226039160Y-136976961D02*
X226039160Y-136881723D01*
X226039160Y-136881723D02*
X226086779Y-136786485D01*
X226086779Y-136786485D02*
X226182017Y-136738866D01*
X226182017Y-136738866D02*
X226420112Y-136738866D01*
X226420112Y-136738866D02*
X226515350Y-136691247D01*
X226848684Y-136453152D02*
X227229636Y-136453152D01*
X226991541Y-136119819D02*
X226991541Y-136976961D01*
X226991541Y-136976961D02*
X227039160Y-137072200D01*
X227039160Y-137072200D02*
X227134398Y-137119819D01*
X227134398Y-137119819D02*
X227229636Y-137119819D01*
X227420113Y-136453152D02*
X227801065Y-136453152D01*
X227562970Y-136119819D02*
X227562970Y-136976961D01*
X227562970Y-136976961D02*
X227610589Y-137072200D01*
X227610589Y-137072200D02*
X227705827Y-137119819D01*
X227705827Y-137119819D02*
X227801065Y-137119819D01*
X228515351Y-137072200D02*
X228420113Y-137119819D01*
X228420113Y-137119819D02*
X228229637Y-137119819D01*
X228229637Y-137119819D02*
X228134399Y-137072200D01*
X228134399Y-137072200D02*
X228086780Y-136976961D01*
X228086780Y-136976961D02*
X228086780Y-136596009D01*
X228086780Y-136596009D02*
X228134399Y-136500771D01*
X228134399Y-136500771D02*
X228229637Y-136453152D01*
X228229637Y-136453152D02*
X228420113Y-136453152D01*
X228420113Y-136453152D02*
X228515351Y-136500771D01*
X228515351Y-136500771D02*
X228562970Y-136596009D01*
X228562970Y-136596009D02*
X228562970Y-136691247D01*
X228562970Y-136691247D02*
X228086780Y-136786485D01*
X228991542Y-137119819D02*
X228991542Y-136453152D01*
X228991542Y-136643628D02*
X229039161Y-136548390D01*
X229039161Y-136548390D02*
X229086780Y-136500771D01*
X229086780Y-136500771D02*
X229182018Y-136453152D01*
X229182018Y-136453152D02*
X229277256Y-136453152D01*
X229515352Y-136453152D02*
X229753447Y-137119819D01*
X229991542Y-136453152D02*
X229753447Y-137119819D01*
X229753447Y-137119819D02*
X229658209Y-137357914D01*
X229658209Y-137357914D02*
X229610590Y-137405533D01*
X229610590Y-137405533D02*
X229515352Y-137453152D01*
X231134400Y-137119819D02*
X231134400Y-136119819D01*
X231134400Y-136119819D02*
X231467733Y-136834104D01*
X231467733Y-136834104D02*
X231801066Y-136119819D01*
X231801066Y-136119819D02*
X231801066Y-137119819D01*
X232420114Y-137119819D02*
X232324876Y-137072200D01*
X232324876Y-137072200D02*
X232277257Y-137024580D01*
X232277257Y-137024580D02*
X232229638Y-136929342D01*
X232229638Y-136929342D02*
X232229638Y-136643628D01*
X232229638Y-136643628D02*
X232277257Y-136548390D01*
X232277257Y-136548390D02*
X232324876Y-136500771D01*
X232324876Y-136500771D02*
X232420114Y-136453152D01*
X232420114Y-136453152D02*
X232562971Y-136453152D01*
X232562971Y-136453152D02*
X232658209Y-136500771D01*
X232658209Y-136500771D02*
X232705828Y-136548390D01*
X232705828Y-136548390D02*
X232753447Y-136643628D01*
X232753447Y-136643628D02*
X232753447Y-136929342D01*
X232753447Y-136929342D02*
X232705828Y-137024580D01*
X232705828Y-137024580D02*
X232658209Y-137072200D01*
X232658209Y-137072200D02*
X232562971Y-137119819D01*
X232562971Y-137119819D02*
X232420114Y-137119819D01*
X233182019Y-136453152D02*
X233182019Y-137119819D01*
X233182019Y-136548390D02*
X233229638Y-136500771D01*
X233229638Y-136500771D02*
X233324876Y-136453152D01*
X233324876Y-136453152D02*
X233467733Y-136453152D01*
X233467733Y-136453152D02*
X233562971Y-136500771D01*
X233562971Y-136500771D02*
X233610590Y-136596009D01*
X233610590Y-136596009D02*
X233610590Y-137119819D01*
X234086781Y-137119819D02*
X234086781Y-136453152D01*
X234086781Y-136119819D02*
X234039162Y-136167438D01*
X234039162Y-136167438D02*
X234086781Y-136215057D01*
X234086781Y-136215057D02*
X234134400Y-136167438D01*
X234134400Y-136167438D02*
X234086781Y-136119819D01*
X234086781Y-136119819D02*
X234086781Y-136215057D01*
X234420114Y-136453152D02*
X234801066Y-136453152D01*
X234562971Y-136119819D02*
X234562971Y-136976961D01*
X234562971Y-136976961D02*
X234610590Y-137072200D01*
X234610590Y-137072200D02*
X234705828Y-137119819D01*
X234705828Y-137119819D02*
X234801066Y-137119819D01*
X235277257Y-137119819D02*
X235182019Y-137072200D01*
X235182019Y-137072200D02*
X235134400Y-137024580D01*
X235134400Y-137024580D02*
X235086781Y-136929342D01*
X235086781Y-136929342D02*
X235086781Y-136643628D01*
X235086781Y-136643628D02*
X235134400Y-136548390D01*
X235134400Y-136548390D02*
X235182019Y-136500771D01*
X235182019Y-136500771D02*
X235277257Y-136453152D01*
X235277257Y-136453152D02*
X235420114Y-136453152D01*
X235420114Y-136453152D02*
X235515352Y-136500771D01*
X235515352Y-136500771D02*
X235562971Y-136548390D01*
X235562971Y-136548390D02*
X235610590Y-136643628D01*
X235610590Y-136643628D02*
X235610590Y-136929342D01*
X235610590Y-136929342D02*
X235562971Y-137024580D01*
X235562971Y-137024580D02*
X235515352Y-137072200D01*
X235515352Y-137072200D02*
X235420114Y-137119819D01*
X235420114Y-137119819D02*
X235277257Y-137119819D01*
X236039162Y-137119819D02*
X236039162Y-136453152D01*
X236039162Y-136643628D02*
X236086781Y-136548390D01*
X236086781Y-136548390D02*
X236134400Y-136500771D01*
X236134400Y-136500771D02*
X236229638Y-136453152D01*
X236229638Y-136453152D02*
X236324876Y-136453152D01*
X237991543Y-137119819D02*
X237658210Y-136643628D01*
X237420115Y-137119819D02*
X237420115Y-136119819D01*
X237420115Y-136119819D02*
X237801067Y-136119819D01*
X237801067Y-136119819D02*
X237896305Y-136167438D01*
X237896305Y-136167438D02*
X237943924Y-136215057D01*
X237943924Y-136215057D02*
X237991543Y-136310295D01*
X237991543Y-136310295D02*
X237991543Y-136453152D01*
X237991543Y-136453152D02*
X237943924Y-136548390D01*
X237943924Y-136548390D02*
X237896305Y-136596009D01*
X237896305Y-136596009D02*
X237801067Y-136643628D01*
X237801067Y-136643628D02*
X237420115Y-136643628D01*
X238801067Y-137072200D02*
X238705829Y-137119819D01*
X238705829Y-137119819D02*
X238515353Y-137119819D01*
X238515353Y-137119819D02*
X238420115Y-137072200D01*
X238420115Y-137072200D02*
X238372496Y-136976961D01*
X238372496Y-136976961D02*
X238372496Y-136596009D01*
X238372496Y-136596009D02*
X238420115Y-136500771D01*
X238420115Y-136500771D02*
X238515353Y-136453152D01*
X238515353Y-136453152D02*
X238705829Y-136453152D01*
X238705829Y-136453152D02*
X238801067Y-136500771D01*
X238801067Y-136500771D02*
X238848686Y-136596009D01*
X238848686Y-136596009D02*
X238848686Y-136691247D01*
X238848686Y-136691247D02*
X238372496Y-136786485D01*
X239182020Y-136453152D02*
X239420115Y-137119819D01*
X239420115Y-137119819D02*
X239658210Y-136453152D01*
X240039163Y-137024580D02*
X240086782Y-137072200D01*
X240086782Y-137072200D02*
X240039163Y-137119819D01*
X240039163Y-137119819D02*
X239991544Y-137072200D01*
X239991544Y-137072200D02*
X240039163Y-137024580D01*
X240039163Y-137024580D02*
X240039163Y-137119819D01*
X241182020Y-136453152D02*
X241420115Y-137119819D01*
X241420115Y-137119819D02*
X241658210Y-136453152D01*
X242229639Y-136119819D02*
X242324877Y-136119819D01*
X242324877Y-136119819D02*
X242420115Y-136167438D01*
X242420115Y-136167438D02*
X242467734Y-136215057D01*
X242467734Y-136215057D02*
X242515353Y-136310295D01*
X242515353Y-136310295D02*
X242562972Y-136500771D01*
X242562972Y-136500771D02*
X242562972Y-136738866D01*
X242562972Y-136738866D02*
X242515353Y-136929342D01*
X242515353Y-136929342D02*
X242467734Y-137024580D01*
X242467734Y-137024580D02*
X242420115Y-137072200D01*
X242420115Y-137072200D02*
X242324877Y-137119819D01*
X242324877Y-137119819D02*
X242229639Y-137119819D01*
X242229639Y-137119819D02*
X242134401Y-137072200D01*
X242134401Y-137072200D02*
X242086782Y-137024580D01*
X242086782Y-137024580D02*
X242039163Y-136929342D01*
X242039163Y-136929342D02*
X241991544Y-136738866D01*
X241991544Y-136738866D02*
X241991544Y-136500771D01*
X241991544Y-136500771D02*
X242039163Y-136310295D01*
X242039163Y-136310295D02*
X242086782Y-136215057D01*
X242086782Y-136215057D02*
X242134401Y-136167438D01*
X242134401Y-136167438D02*
X242229639Y-136119819D01*
X242991544Y-137024580D02*
X243039163Y-137072200D01*
X243039163Y-137072200D02*
X242991544Y-137119819D01*
X242991544Y-137119819D02*
X242943925Y-137072200D01*
X242943925Y-137072200D02*
X242991544Y-137024580D01*
X242991544Y-137024580D02*
X242991544Y-137119819D01*
X243991543Y-137119819D02*
X243420115Y-137119819D01*
X243705829Y-137119819D02*
X243705829Y-136119819D01*
X243705829Y-136119819D02*
X243610591Y-136262676D01*
X243610591Y-136262676D02*
X243515353Y-136357914D01*
X243515353Y-136357914D02*
X243420115Y-136405533D01*
X196086779Y-116619819D02*
X196086779Y-115619819D01*
X196086779Y-116000771D02*
X196182017Y-115953152D01*
X196182017Y-115953152D02*
X196372493Y-115953152D01*
X196372493Y-115953152D02*
X196467731Y-116000771D01*
X196467731Y-116000771D02*
X196515350Y-116048390D01*
X196515350Y-116048390D02*
X196562969Y-116143628D01*
X196562969Y-116143628D02*
X196562969Y-116429342D01*
X196562969Y-116429342D02*
X196515350Y-116524580D01*
X196515350Y-116524580D02*
X196467731Y-116572200D01*
X196467731Y-116572200D02*
X196372493Y-116619819D01*
X196372493Y-116619819D02*
X196182017Y-116619819D01*
X196182017Y-116619819D02*
X196086779Y-116572200D01*
X197420112Y-116619819D02*
X197420112Y-116096009D01*
X197420112Y-116096009D02*
X197372493Y-116000771D01*
X197372493Y-116000771D02*
X197277255Y-115953152D01*
X197277255Y-115953152D02*
X197086779Y-115953152D01*
X197086779Y-115953152D02*
X196991541Y-116000771D01*
X197420112Y-116572200D02*
X197324874Y-116619819D01*
X197324874Y-116619819D02*
X197086779Y-116619819D01*
X197086779Y-116619819D02*
X196991541Y-116572200D01*
X196991541Y-116572200D02*
X196943922Y-116476961D01*
X196943922Y-116476961D02*
X196943922Y-116381723D01*
X196943922Y-116381723D02*
X196991541Y-116286485D01*
X196991541Y-116286485D02*
X197086779Y-116238866D01*
X197086779Y-116238866D02*
X197324874Y-116238866D01*
X197324874Y-116238866D02*
X197420112Y-116191247D01*
X197753446Y-115953152D02*
X198134398Y-115953152D01*
X197896303Y-115619819D02*
X197896303Y-116476961D01*
X197896303Y-116476961D02*
X197943922Y-116572200D01*
X197943922Y-116572200D02*
X198039160Y-116619819D01*
X198039160Y-116619819D02*
X198134398Y-116619819D01*
X198324875Y-115953152D02*
X198705827Y-115953152D01*
X198467732Y-115619819D02*
X198467732Y-116476961D01*
X198467732Y-116476961D02*
X198515351Y-116572200D01*
X198515351Y-116572200D02*
X198610589Y-116619819D01*
X198610589Y-116619819D02*
X198705827Y-116619819D01*
X257925125Y-135985533D02*
X256401316Y-135985533D01*
X195925125Y-135985533D02*
X194401316Y-135985533D01*
X205523333Y-125454819D02*
X205190000Y-124978628D01*
X204951905Y-125454819D02*
X204951905Y-124454819D01*
X204951905Y-124454819D02*
X205332857Y-124454819D01*
X205332857Y-124454819D02*
X205428095Y-124502438D01*
X205428095Y-124502438D02*
X205475714Y-124550057D01*
X205475714Y-124550057D02*
X205523333Y-124645295D01*
X205523333Y-124645295D02*
X205523333Y-124788152D01*
X205523333Y-124788152D02*
X205475714Y-124883390D01*
X205475714Y-124883390D02*
X205428095Y-124931009D01*
X205428095Y-124931009D02*
X205332857Y-124978628D01*
X205332857Y-124978628D02*
X204951905Y-124978628D01*
X205904286Y-124550057D02*
X205951905Y-124502438D01*
X205951905Y-124502438D02*
X206047143Y-124454819D01*
X206047143Y-124454819D02*
X206285238Y-124454819D01*
X206285238Y-124454819D02*
X206380476Y-124502438D01*
X206380476Y-124502438D02*
X206428095Y-124550057D01*
X206428095Y-124550057D02*
X206475714Y-124645295D01*
X206475714Y-124645295D02*
X206475714Y-124740533D01*
X206475714Y-124740533D02*
X206428095Y-124883390D01*
X206428095Y-124883390D02*
X205856667Y-125454819D01*
X205856667Y-125454819D02*
X206475714Y-125454819D01*
X249166666Y-120124819D02*
X249166666Y-120839104D01*
X249166666Y-120839104D02*
X249119047Y-120981961D01*
X249119047Y-120981961D02*
X249023809Y-121077200D01*
X249023809Y-121077200D02*
X248880952Y-121124819D01*
X248880952Y-121124819D02*
X248785714Y-121124819D01*
X250166666Y-121124819D02*
X249595238Y-121124819D01*
X249880952Y-121124819D02*
X249880952Y-120124819D01*
X249880952Y-120124819D02*
X249785714Y-120267676D01*
X249785714Y-120267676D02*
X249690476Y-120362914D01*
X249690476Y-120362914D02*
X249595238Y-120410533D01*
X227468095Y-125014819D02*
X227468095Y-125824342D01*
X227468095Y-125824342D02*
X227515714Y-125919580D01*
X227515714Y-125919580D02*
X227563333Y-125967200D01*
X227563333Y-125967200D02*
X227658571Y-126014819D01*
X227658571Y-126014819D02*
X227849047Y-126014819D01*
X227849047Y-126014819D02*
X227944285Y-125967200D01*
X227944285Y-125967200D02*
X227991904Y-125919580D01*
X227991904Y-125919580D02*
X228039523Y-125824342D01*
X228039523Y-125824342D02*
X228039523Y-125014819D01*
X228420476Y-125014819D02*
X229039523Y-125014819D01*
X229039523Y-125014819D02*
X228706190Y-125395771D01*
X228706190Y-125395771D02*
X228849047Y-125395771D01*
X228849047Y-125395771D02*
X228944285Y-125443390D01*
X228944285Y-125443390D02*
X228991904Y-125491009D01*
X228991904Y-125491009D02*
X229039523Y-125586247D01*
X229039523Y-125586247D02*
X229039523Y-125824342D01*
X229039523Y-125824342D02*
X228991904Y-125919580D01*
X228991904Y-125919580D02*
X228944285Y-125967200D01*
X228944285Y-125967200D02*
X228849047Y-126014819D01*
X228849047Y-126014819D02*
X228563333Y-126014819D01*
X228563333Y-126014819D02*
X228468095Y-125967200D01*
X228468095Y-125967200D02*
X228420476Y-125919580D01*
X205523333Y-122454819D02*
X205190000Y-121978628D01*
X204951905Y-122454819D02*
X204951905Y-121454819D01*
X204951905Y-121454819D02*
X205332857Y-121454819D01*
X205332857Y-121454819D02*
X205428095Y-121502438D01*
X205428095Y-121502438D02*
X205475714Y-121550057D01*
X205475714Y-121550057D02*
X205523333Y-121645295D01*
X205523333Y-121645295D02*
X205523333Y-121788152D01*
X205523333Y-121788152D02*
X205475714Y-121883390D01*
X205475714Y-121883390D02*
X205428095Y-121931009D01*
X205428095Y-121931009D02*
X205332857Y-121978628D01*
X205332857Y-121978628D02*
X204951905Y-121978628D01*
X205856667Y-121454819D02*
X206475714Y-121454819D01*
X206475714Y-121454819D02*
X206142381Y-121835771D01*
X206142381Y-121835771D02*
X206285238Y-121835771D01*
X206285238Y-121835771D02*
X206380476Y-121883390D01*
X206380476Y-121883390D02*
X206428095Y-121931009D01*
X206428095Y-121931009D02*
X206475714Y-122026247D01*
X206475714Y-122026247D02*
X206475714Y-122264342D01*
X206475714Y-122264342D02*
X206428095Y-122359580D01*
X206428095Y-122359580D02*
X206380476Y-122407200D01*
X206380476Y-122407200D02*
X206285238Y-122454819D01*
X206285238Y-122454819D02*
X205999524Y-122454819D01*
X205999524Y-122454819D02*
X205904286Y-122407200D01*
X205904286Y-122407200D02*
X205856667Y-122359580D01*
X205523333Y-129454819D02*
X205190000Y-128978628D01*
X204951905Y-129454819D02*
X204951905Y-128454819D01*
X204951905Y-128454819D02*
X205332857Y-128454819D01*
X205332857Y-128454819D02*
X205428095Y-128502438D01*
X205428095Y-128502438D02*
X205475714Y-128550057D01*
X205475714Y-128550057D02*
X205523333Y-128645295D01*
X205523333Y-128645295D02*
X205523333Y-128788152D01*
X205523333Y-128788152D02*
X205475714Y-128883390D01*
X205475714Y-128883390D02*
X205428095Y-128931009D01*
X205428095Y-128931009D02*
X205332857Y-128978628D01*
X205332857Y-128978628D02*
X204951905Y-128978628D01*
X206428095Y-128454819D02*
X205951905Y-128454819D01*
X205951905Y-128454819D02*
X205904286Y-128931009D01*
X205904286Y-128931009D02*
X205951905Y-128883390D01*
X205951905Y-128883390D02*
X206047143Y-128835771D01*
X206047143Y-128835771D02*
X206285238Y-128835771D01*
X206285238Y-128835771D02*
X206380476Y-128883390D01*
X206380476Y-128883390D02*
X206428095Y-128931009D01*
X206428095Y-128931009D02*
X206475714Y-129026247D01*
X206475714Y-129026247D02*
X206475714Y-129264342D01*
X206475714Y-129264342D02*
X206428095Y-129359580D01*
X206428095Y-129359580D02*
X206380476Y-129407200D01*
X206380476Y-129407200D02*
X206285238Y-129454819D01*
X206285238Y-129454819D02*
X206047143Y-129454819D01*
X206047143Y-129454819D02*
X205951905Y-129407200D01*
X205951905Y-129407200D02*
X205904286Y-129359580D01*
X227143333Y-132454819D02*
X226810000Y-131978628D01*
X226571905Y-132454819D02*
X226571905Y-131454819D01*
X226571905Y-131454819D02*
X226952857Y-131454819D01*
X226952857Y-131454819D02*
X227048095Y-131502438D01*
X227048095Y-131502438D02*
X227095714Y-131550057D01*
X227095714Y-131550057D02*
X227143333Y-131645295D01*
X227143333Y-131645295D02*
X227143333Y-131788152D01*
X227143333Y-131788152D02*
X227095714Y-131883390D01*
X227095714Y-131883390D02*
X227048095Y-131931009D01*
X227048095Y-131931009D02*
X226952857Y-131978628D01*
X226952857Y-131978628D02*
X226571905Y-131978628D01*
X228000476Y-131454819D02*
X227810000Y-131454819D01*
X227810000Y-131454819D02*
X227714762Y-131502438D01*
X227714762Y-131502438D02*
X227667143Y-131550057D01*
X227667143Y-131550057D02*
X227571905Y-131692914D01*
X227571905Y-131692914D02*
X227524286Y-131883390D01*
X227524286Y-131883390D02*
X227524286Y-132264342D01*
X227524286Y-132264342D02*
X227571905Y-132359580D01*
X227571905Y-132359580D02*
X227619524Y-132407200D01*
X227619524Y-132407200D02*
X227714762Y-132454819D01*
X227714762Y-132454819D02*
X227905238Y-132454819D01*
X227905238Y-132454819D02*
X228000476Y-132407200D01*
X228000476Y-132407200D02*
X228048095Y-132359580D01*
X228048095Y-132359580D02*
X228095714Y-132264342D01*
X228095714Y-132264342D02*
X228095714Y-132026247D01*
X228095714Y-132026247D02*
X228048095Y-131931009D01*
X228048095Y-131931009D02*
X228000476Y-131883390D01*
X228000476Y-131883390D02*
X227905238Y-131835771D01*
X227905238Y-131835771D02*
X227714762Y-131835771D01*
X227714762Y-131835771D02*
X227619524Y-131883390D01*
X227619524Y-131883390D02*
X227571905Y-131931009D01*
X227571905Y-131931009D02*
X227524286Y-132026247D01*
X231083333Y-126409580D02*
X231035714Y-126457200D01*
X231035714Y-126457200D02*
X230892857Y-126504819D01*
X230892857Y-126504819D02*
X230797619Y-126504819D01*
X230797619Y-126504819D02*
X230654762Y-126457200D01*
X230654762Y-126457200D02*
X230559524Y-126361961D01*
X230559524Y-126361961D02*
X230511905Y-126266723D01*
X230511905Y-126266723D02*
X230464286Y-126076247D01*
X230464286Y-126076247D02*
X230464286Y-125933390D01*
X230464286Y-125933390D02*
X230511905Y-125742914D01*
X230511905Y-125742914D02*
X230559524Y-125647676D01*
X230559524Y-125647676D02*
X230654762Y-125552438D01*
X230654762Y-125552438D02*
X230797619Y-125504819D01*
X230797619Y-125504819D02*
X230892857Y-125504819D01*
X230892857Y-125504819D02*
X231035714Y-125552438D01*
X231035714Y-125552438D02*
X231083333Y-125600057D01*
X231464286Y-125600057D02*
X231511905Y-125552438D01*
X231511905Y-125552438D02*
X231607143Y-125504819D01*
X231607143Y-125504819D02*
X231845238Y-125504819D01*
X231845238Y-125504819D02*
X231940476Y-125552438D01*
X231940476Y-125552438D02*
X231988095Y-125600057D01*
X231988095Y-125600057D02*
X232035714Y-125695295D01*
X232035714Y-125695295D02*
X232035714Y-125790533D01*
X232035714Y-125790533D02*
X231988095Y-125933390D01*
X231988095Y-125933390D02*
X231416667Y-126504819D01*
X231416667Y-126504819D02*
X232035714Y-126504819D01*
X235954819Y-125166666D02*
X235478628Y-125499999D01*
X235954819Y-125738094D02*
X234954819Y-125738094D01*
X234954819Y-125738094D02*
X234954819Y-125357142D01*
X234954819Y-125357142D02*
X235002438Y-125261904D01*
X235002438Y-125261904D02*
X235050057Y-125214285D01*
X235050057Y-125214285D02*
X235145295Y-125166666D01*
X235145295Y-125166666D02*
X235288152Y-125166666D01*
X235288152Y-125166666D02*
X235383390Y-125214285D01*
X235383390Y-125214285D02*
X235431009Y-125261904D01*
X235431009Y-125261904D02*
X235478628Y-125357142D01*
X235478628Y-125357142D02*
X235478628Y-125738094D01*
X235954819Y-124214285D02*
X235954819Y-124785713D01*
X235954819Y-124499999D02*
X234954819Y-124499999D01*
X234954819Y-124499999D02*
X235097676Y-124595237D01*
X235097676Y-124595237D02*
X235192914Y-124690475D01*
X235192914Y-124690475D02*
X235240533Y-124785713D01*
X241748095Y-121324819D02*
X241748095Y-122134342D01*
X241748095Y-122134342D02*
X241795714Y-122229580D01*
X241795714Y-122229580D02*
X241843333Y-122277200D01*
X241843333Y-122277200D02*
X241938571Y-122324819D01*
X241938571Y-122324819D02*
X242129047Y-122324819D01*
X242129047Y-122324819D02*
X242224285Y-122277200D01*
X242224285Y-122277200D02*
X242271904Y-122229580D01*
X242271904Y-122229580D02*
X242319523Y-122134342D01*
X242319523Y-122134342D02*
X242319523Y-121324819D01*
X242748095Y-121420057D02*
X242795714Y-121372438D01*
X242795714Y-121372438D02*
X242890952Y-121324819D01*
X242890952Y-121324819D02*
X243129047Y-121324819D01*
X243129047Y-121324819D02*
X243224285Y-121372438D01*
X243224285Y-121372438D02*
X243271904Y-121420057D01*
X243271904Y-121420057D02*
X243319523Y-121515295D01*
X243319523Y-121515295D02*
X243319523Y-121610533D01*
X243319523Y-121610533D02*
X243271904Y-121753390D01*
X243271904Y-121753390D02*
X242700476Y-122324819D01*
X242700476Y-122324819D02*
X243319523Y-122324819D01*
X215928095Y-119504819D02*
X215928095Y-120314342D01*
X215928095Y-120314342D02*
X215975714Y-120409580D01*
X215975714Y-120409580D02*
X216023333Y-120457200D01*
X216023333Y-120457200D02*
X216118571Y-120504819D01*
X216118571Y-120504819D02*
X216309047Y-120504819D01*
X216309047Y-120504819D02*
X216404285Y-120457200D01*
X216404285Y-120457200D02*
X216451904Y-120409580D01*
X216451904Y-120409580D02*
X216499523Y-120314342D01*
X216499523Y-120314342D02*
X216499523Y-119504819D01*
X217499523Y-120504819D02*
X216928095Y-120504819D01*
X217213809Y-120504819D02*
X217213809Y-119504819D01*
X217213809Y-119504819D02*
X217118571Y-119647676D01*
X217118571Y-119647676D02*
X217023333Y-119742914D01*
X217023333Y-119742914D02*
X216928095Y-119790533D01*
X225083333Y-126359580D02*
X225035714Y-126407200D01*
X225035714Y-126407200D02*
X224892857Y-126454819D01*
X224892857Y-126454819D02*
X224797619Y-126454819D01*
X224797619Y-126454819D02*
X224654762Y-126407200D01*
X224654762Y-126407200D02*
X224559524Y-126311961D01*
X224559524Y-126311961D02*
X224511905Y-126216723D01*
X224511905Y-126216723D02*
X224464286Y-126026247D01*
X224464286Y-126026247D02*
X224464286Y-125883390D01*
X224464286Y-125883390D02*
X224511905Y-125692914D01*
X224511905Y-125692914D02*
X224559524Y-125597676D01*
X224559524Y-125597676D02*
X224654762Y-125502438D01*
X224654762Y-125502438D02*
X224797619Y-125454819D01*
X224797619Y-125454819D02*
X224892857Y-125454819D01*
X224892857Y-125454819D02*
X225035714Y-125502438D01*
X225035714Y-125502438D02*
X225083333Y-125550057D01*
X226035714Y-126454819D02*
X225464286Y-126454819D01*
X225750000Y-126454819D02*
X225750000Y-125454819D01*
X225750000Y-125454819D02*
X225654762Y-125597676D01*
X225654762Y-125597676D02*
X225559524Y-125692914D01*
X225559524Y-125692914D02*
X225464286Y-125740533D01*
X227143333Y-128454819D02*
X226810000Y-127978628D01*
X226571905Y-128454819D02*
X226571905Y-127454819D01*
X226571905Y-127454819D02*
X226952857Y-127454819D01*
X226952857Y-127454819D02*
X227048095Y-127502438D01*
X227048095Y-127502438D02*
X227095714Y-127550057D01*
X227095714Y-127550057D02*
X227143333Y-127645295D01*
X227143333Y-127645295D02*
X227143333Y-127788152D01*
X227143333Y-127788152D02*
X227095714Y-127883390D01*
X227095714Y-127883390D02*
X227048095Y-127931009D01*
X227048095Y-127931009D02*
X226952857Y-127978628D01*
X226952857Y-127978628D02*
X226571905Y-127978628D01*
X227476667Y-127454819D02*
X228143333Y-127454819D01*
X228143333Y-127454819D02*
X227714762Y-128454819D01*
X205523333Y-132454819D02*
X205190000Y-131978628D01*
X204951905Y-132454819D02*
X204951905Y-131454819D01*
X204951905Y-131454819D02*
X205332857Y-131454819D01*
X205332857Y-131454819D02*
X205428095Y-131502438D01*
X205428095Y-131502438D02*
X205475714Y-131550057D01*
X205475714Y-131550057D02*
X205523333Y-131645295D01*
X205523333Y-131645295D02*
X205523333Y-131788152D01*
X205523333Y-131788152D02*
X205475714Y-131883390D01*
X205475714Y-131883390D02*
X205428095Y-131931009D01*
X205428095Y-131931009D02*
X205332857Y-131978628D01*
X205332857Y-131978628D02*
X204951905Y-131978628D01*
X206380476Y-131788152D02*
X206380476Y-132454819D01*
X206142381Y-131407200D02*
X205904286Y-132121485D01*
X205904286Y-132121485D02*
X206523333Y-132121485D01*
D10*
X234866667Y-134538704D02*
X234828571Y-134576800D01*
X234828571Y-134576800D02*
X234714286Y-134614895D01*
X234714286Y-134614895D02*
X234638095Y-134614895D01*
X234638095Y-134614895D02*
X234523809Y-134576800D01*
X234523809Y-134576800D02*
X234447619Y-134500609D01*
X234447619Y-134500609D02*
X234409524Y-134424419D01*
X234409524Y-134424419D02*
X234371428Y-134272038D01*
X234371428Y-134272038D02*
X234371428Y-134157752D01*
X234371428Y-134157752D02*
X234409524Y-134005371D01*
X234409524Y-134005371D02*
X234447619Y-133929180D01*
X234447619Y-133929180D02*
X234523809Y-133852990D01*
X234523809Y-133852990D02*
X234638095Y-133814895D01*
X234638095Y-133814895D02*
X234714286Y-133814895D01*
X234714286Y-133814895D02*
X234828571Y-133852990D01*
X234828571Y-133852990D02*
X234866667Y-133891085D01*
X235133333Y-133814895D02*
X235628571Y-133814895D01*
X235628571Y-133814895D02*
X235361905Y-134119657D01*
X235361905Y-134119657D02*
X235476190Y-134119657D01*
X235476190Y-134119657D02*
X235552381Y-134157752D01*
X235552381Y-134157752D02*
X235590476Y-134195847D01*
X235590476Y-134195847D02*
X235628571Y-134272038D01*
X235628571Y-134272038D02*
X235628571Y-134462514D01*
X235628571Y-134462514D02*
X235590476Y-134538704D01*
X235590476Y-134538704D02*
X235552381Y-134576800D01*
X235552381Y-134576800D02*
X235476190Y-134614895D01*
X235476190Y-134614895D02*
X235247619Y-134614895D01*
X235247619Y-134614895D02*
X235171428Y-134576800D01*
X235171428Y-134576800D02*
X235133333Y-134538704D01*
D12*
%TO.C,SENS1*%
X217397369Y-134790000D02*
X215802631Y-134790000D01*
X217397369Y-139210000D02*
X215802631Y-139210000D01*
%TO.C,R2*%
X202420000Y-123630000D02*
X202420000Y-123960000D01*
X202420000Y-126370000D02*
X202420000Y-126040000D01*
X208960000Y-123630000D02*
X202420000Y-123630000D01*
X208960000Y-123960000D02*
X208960000Y-123630000D01*
X208960000Y-126040000D02*
X208960000Y-126370000D01*
X208960000Y-126370000D02*
X202420000Y-126370000D01*
%TO.C,J1*%
X248170000Y-121670000D02*
X249500000Y-121670000D01*
X248170000Y-123000000D02*
X248170000Y-121670000D01*
X248170000Y-124270000D02*
X248170000Y-131950000D01*
X248170000Y-124270000D02*
X250830000Y-124270000D01*
X248170000Y-131950000D02*
X250830000Y-131950000D01*
X250830000Y-124270000D02*
X250830000Y-131950000D01*
%TO.C,U3*%
X230030000Y-119150000D02*
X226430000Y-119150000D01*
X228230000Y-123600000D02*
G75*
G02*
X226391522Y-119161522I0J2600000D01*
G01*
X230068478Y-119161522D02*
G75*
G02*
X228230000Y-123600000I-1838478J-1838478D01*
G01*
%TO.C,R3*%
X202420000Y-120630000D02*
X202420000Y-120960000D01*
X202420000Y-123370000D02*
X202420000Y-123040000D01*
X208960000Y-120630000D02*
X202420000Y-120630000D01*
X208960000Y-120960000D02*
X208960000Y-120630000D01*
X208960000Y-123040000D02*
X208960000Y-123370000D01*
X208960000Y-123370000D02*
X202420000Y-123370000D01*
%TO.C,R5*%
X202420000Y-127630000D02*
X208960000Y-127630000D01*
X202420000Y-127960000D02*
X202420000Y-127630000D01*
X202420000Y-130040000D02*
X202420000Y-130370000D01*
X202420000Y-130370000D02*
X208960000Y-130370000D01*
X208960000Y-127630000D02*
X208960000Y-127960000D01*
X208960000Y-130370000D02*
X208960000Y-130040000D01*
%TO.C,R6*%
X224040000Y-130630000D02*
X224040000Y-130960000D01*
X224040000Y-133370000D02*
X224040000Y-133040000D01*
X230580000Y-130630000D02*
X224040000Y-130630000D01*
X230580000Y-130960000D02*
X230580000Y-130630000D01*
X230580000Y-133040000D02*
X230580000Y-133370000D01*
X230580000Y-133370000D02*
X224040000Y-133370000D01*
%TO.C,C2*%
X231879000Y-123080000D02*
X230621000Y-123080000D01*
X231879000Y-124920000D02*
X230621000Y-124920000D01*
%TO.C,R1*%
X234130000Y-121730000D02*
X234130000Y-128270000D01*
X234130000Y-128270000D02*
X234460000Y-128270000D01*
X234460000Y-121730000D02*
X234130000Y-121730000D01*
X236540000Y-121730000D02*
X236870000Y-121730000D01*
X236870000Y-121730000D02*
X236870000Y-128270000D01*
X236870000Y-128270000D02*
X236540000Y-128270000D01*
%TO.C,U2*%
X239860000Y-122870000D02*
X239860000Y-133150000D01*
X239860000Y-133150000D02*
X245160000Y-133150000D01*
X241510000Y-122870000D02*
X239860000Y-122870000D01*
X245160000Y-122870000D02*
X243510000Y-122870000D01*
X245160000Y-133150000D02*
X245160000Y-122870000D01*
X243510000Y-122870000D02*
G75*
G02*
X241510000Y-122870000I-1000000J0D01*
G01*
%TO.C,U1*%
X214040000Y-121050000D02*
X214040000Y-131330000D01*
X214040000Y-131330000D02*
X219340000Y-131330000D01*
X215690000Y-121050000D02*
X214040000Y-121050000D01*
X219340000Y-121050000D02*
X217690000Y-121050000D01*
X219340000Y-131330000D02*
X219340000Y-121050000D01*
X217690000Y-121050000D02*
G75*
G02*
X215690000Y-121050000I-1000000J0D01*
G01*
%TO.C,C1*%
X224621000Y-123080000D02*
X225879000Y-123080000D01*
X224621000Y-124920000D02*
X225879000Y-124920000D01*
%TO.C,R7*%
X224040000Y-126630000D02*
X224040000Y-126960000D01*
X224040000Y-129370000D02*
X224040000Y-129040000D01*
X230580000Y-126630000D02*
X224040000Y-126630000D01*
X230580000Y-126960000D02*
X230580000Y-126630000D01*
X230580000Y-129040000D02*
X230580000Y-129370000D01*
X230580000Y-129370000D02*
X224040000Y-129370000D01*
%TO.C,R4*%
X202420000Y-130630000D02*
X202420000Y-130960000D01*
X202420000Y-133370000D02*
X202420000Y-133040000D01*
X208960000Y-130630000D02*
X202420000Y-130630000D01*
X208960000Y-130960000D02*
X208960000Y-130630000D01*
X208960000Y-133040000D02*
X208960000Y-133370000D01*
X208960000Y-133370000D02*
X202420000Y-133370000D01*
%TO.C,C3*%
X237120000Y-132900000D02*
G75*
G02*
X232880000Y-132900000I-2120000J0D01*
G01*
X232880000Y-132900000D02*
G75*
G02*
X237120000Y-132900000I2120000J0D01*
G01*
%TD*%
M02*
