%TF.GenerationSoftware,KiCad,Pcbnew,8.0.1-rc1*%
%TF.CreationDate,2025-05-01T22:02:35-04:00*%
%TF.ProjectId,bhm,62686d2e-6b69-4636-9164-5f7063625858,rev?*%
%TF.SameCoordinates,Original*%
%TF.FileFunction,Legend,Bot*%
%TF.FilePolarity,Positive*%
%FSLAX46Y46*%
G04 Gerber Fmt 4.6, Leading zero omitted, Abs format (unit mm)*
G04 Created by KiCad (PCBNEW 8.0.1-rc1) date 2025-05-01 22:02:35*
%MOMM*%
%LPD*%
G01*
G04 APERTURE LIST*
%ADD10C,0.000000*%
G04 APERTURE END LIST*
D10*
%TO.C,G\u002A\u002A\u002A*%
G36*
X212718403Y-131766921D02*
G01*
X212782074Y-131779174D01*
X212857510Y-131802292D01*
X212925870Y-131832422D01*
X212998193Y-131883417D01*
X213059127Y-131952564D01*
X213112668Y-132043642D01*
X213118625Y-132055474D01*
X213141665Y-132097857D01*
X213161141Y-132128763D01*
X213173350Y-132142182D01*
X213189763Y-132143527D01*
X213225152Y-132142083D01*
X213270261Y-132137861D01*
X213310063Y-132133807D01*
X213355643Y-132130534D01*
X213386589Y-132129924D01*
X213388873Y-132130000D01*
X213425927Y-132126657D01*
X213467031Y-132117413D01*
X213479359Y-132114296D01*
X213532510Y-132108878D01*
X213598150Y-132110643D01*
X213669875Y-132118500D01*
X213741285Y-132131365D01*
X213805977Y-132148150D01*
X213857551Y-132167769D01*
X213889602Y-132189134D01*
X213896771Y-132197357D01*
X213913457Y-132227089D01*
X213914559Y-132261469D01*
X213900887Y-132309100D01*
X213900784Y-132309378D01*
X213874098Y-132351587D01*
X213829302Y-132392767D01*
X213773886Y-132428134D01*
X213715344Y-132452896D01*
X213661167Y-132462271D01*
X213646623Y-132465113D01*
X213635433Y-132477912D01*
X213636518Y-132481798D01*
X213651376Y-132502657D01*
X213680260Y-132534623D01*
X213718851Y-132573552D01*
X213762825Y-132615301D01*
X213807864Y-132655731D01*
X213849646Y-132690694D01*
X213883849Y-132716053D01*
X213914088Y-132736564D01*
X213962887Y-132770774D01*
X214010176Y-132804930D01*
X214041632Y-132827625D01*
X214135526Y-132889566D01*
X214236203Y-132946879D01*
X214349855Y-133002921D01*
X214482671Y-133061045D01*
X214522540Y-133077730D01*
X214606725Y-133113197D01*
X214690667Y-133148840D01*
X214766462Y-133181292D01*
X214826201Y-133207191D01*
X214840972Y-133213648D01*
X214895690Y-133236946D01*
X214933192Y-133251050D01*
X214958669Y-133257346D01*
X214977307Y-133257216D01*
X214994296Y-133252046D01*
X215006444Y-133245663D01*
X215039949Y-133224295D01*
X215087475Y-133191617D01*
X215145070Y-133150465D01*
X215208790Y-133103675D01*
X215274685Y-133054083D01*
X215338809Y-133004525D01*
X215377024Y-132975022D01*
X215445400Y-132924963D01*
X215520530Y-132873719D01*
X215610439Y-132815711D01*
X215645736Y-132792701D01*
X215708818Y-132748915D01*
X215768080Y-132704880D01*
X215814276Y-132667325D01*
X215859174Y-132629635D01*
X215919543Y-132586421D01*
X215965773Y-132564340D01*
X215998167Y-132563224D01*
X216000206Y-132564293D01*
X216019042Y-132579759D01*
X216051801Y-132610592D01*
X216095465Y-132653820D01*
X216147018Y-132706470D01*
X216203448Y-132765571D01*
X216212076Y-132774715D01*
X216278314Y-132844918D01*
X216329033Y-132898813D01*
X216366224Y-132938735D01*
X216391888Y-132967020D01*
X216408017Y-132986003D01*
X216416608Y-132998019D01*
X216419658Y-133005407D01*
X216419160Y-133010500D01*
X216417110Y-133015634D01*
X216416900Y-133016251D01*
X216423163Y-133032582D01*
X216451843Y-133043576D01*
X216499847Y-133048024D01*
X216508105Y-133047957D01*
X216538241Y-133040722D01*
X216553958Y-133018742D01*
X216569109Y-132991399D01*
X216594577Y-132961463D01*
X216599506Y-132956563D01*
X216623707Y-132928169D01*
X216655008Y-132887246D01*
X216687914Y-132840894D01*
X216691615Y-132835512D01*
X216731596Y-132780721D01*
X216775322Y-132725409D01*
X216813970Y-132680780D01*
X216846469Y-132644015D01*
X216879890Y-132602290D01*
X216902744Y-132569303D01*
X216921874Y-132540663D01*
X216978583Y-132475493D01*
X217057092Y-132403316D01*
X217155715Y-132325507D01*
X217272769Y-132243440D01*
X217406566Y-132158490D01*
X217436197Y-132140657D01*
X217512201Y-132096194D01*
X217583370Y-132056283D01*
X217645419Y-132023229D01*
X217694069Y-131999338D01*
X217725034Y-131986920D01*
X217746344Y-131980768D01*
X217801790Y-131964370D01*
X217850637Y-131949472D01*
X217889721Y-131939291D01*
X217972512Y-131925435D01*
X218069179Y-131916236D01*
X218172345Y-131911925D01*
X218274634Y-131912735D01*
X218368666Y-131918900D01*
X218447064Y-131930652D01*
X218447719Y-131930791D01*
X218493914Y-131938328D01*
X218553148Y-131944954D01*
X218612770Y-131949250D01*
X218644709Y-131951424D01*
X218709895Y-131957773D01*
X218789893Y-131967067D01*
X218878899Y-131978498D01*
X218971117Y-131991252D01*
X219060745Y-132004518D01*
X219141985Y-132017484D01*
X219209037Y-132029340D01*
X219256101Y-132039273D01*
X219265948Y-132041846D01*
X219320919Y-132058839D01*
X219393706Y-132084244D01*
X219479630Y-132116166D01*
X219574012Y-132152712D01*
X219672171Y-132191985D01*
X219769426Y-132232094D01*
X219861101Y-132271143D01*
X219942514Y-132307239D01*
X220008986Y-132338486D01*
X220055838Y-132362993D01*
X220173309Y-132435460D01*
X220313466Y-132535872D01*
X220433198Y-132638923D01*
X220439820Y-132645217D01*
X220484076Y-132685522D01*
X220526821Y-132721940D01*
X220559634Y-132747253D01*
X220576535Y-132760472D01*
X220613277Y-132793706D01*
X220656851Y-132836801D01*
X220701064Y-132883774D01*
X220719751Y-132904460D01*
X220794524Y-132988405D01*
X220854845Y-133058854D01*
X220903742Y-133119929D01*
X220944242Y-133175754D01*
X220979374Y-133230448D01*
X221012164Y-133288138D01*
X221045643Y-133352942D01*
X221052812Y-133367349D01*
X221086151Y-133436796D01*
X221109583Y-133492200D01*
X221125553Y-133540786D01*
X221136505Y-133589781D01*
X221144880Y-133646413D01*
X221149684Y-133687275D01*
X221156530Y-133766876D01*
X221158966Y-133844045D01*
X221156760Y-133924334D01*
X221149677Y-134013293D01*
X221137485Y-134116474D01*
X221119948Y-134239428D01*
X221106485Y-134327283D01*
X221094599Y-134399325D01*
X221083825Y-134455640D01*
X221072941Y-134501331D01*
X221060721Y-134541507D01*
X221050335Y-134569450D01*
X221045941Y-134581273D01*
X221027379Y-134625733D01*
X220976616Y-134733645D01*
X220901673Y-134866984D01*
X220818851Y-134990124D01*
X220731709Y-135097869D01*
X220643811Y-135185029D01*
X220636360Y-135191586D01*
X220591764Y-135234263D01*
X220542454Y-135285751D01*
X220497803Y-135336332D01*
X220490175Y-135345311D01*
X220442737Y-135396798D01*
X220391231Y-135447118D01*
X220345532Y-135486528D01*
X220303244Y-135520440D01*
X220255024Y-135561081D01*
X220216427Y-135595618D01*
X220198419Y-135611803D01*
X220151231Y-135649886D01*
X220106373Y-135681440D01*
X220083091Y-135696293D01*
X220032773Y-135729143D01*
X219984940Y-135761136D01*
X219958398Y-135778745D01*
X219911428Y-135806632D01*
X219863338Y-135829482D01*
X219806078Y-135850898D01*
X219731590Y-135874484D01*
X219696694Y-135885051D01*
X219597125Y-135915870D01*
X219515994Y-135942309D01*
X219448233Y-135966126D01*
X219388772Y-135989076D01*
X219332544Y-136012920D01*
X219314354Y-136020794D01*
X219269202Y-136038845D01*
X219234985Y-136050383D01*
X219217993Y-136053195D01*
X219200967Y-136055112D01*
X219167156Y-136064940D01*
X219124264Y-136080569D01*
X219082618Y-136096118D01*
X219039957Y-136110088D01*
X219011343Y-136117204D01*
X219000729Y-136118869D01*
X218988843Y-136124047D01*
X218993637Y-136136114D01*
X219015702Y-136161026D01*
X219023046Y-136168754D01*
X219096419Y-136230969D01*
X219180378Y-136280546D01*
X219265205Y-136311619D01*
X219297667Y-136318495D01*
X219369499Y-136330103D01*
X219455817Y-136340950D01*
X219549405Y-136350346D01*
X219643047Y-136357601D01*
X219729529Y-136362026D01*
X219801634Y-136362928D01*
X219880601Y-136355655D01*
X219991843Y-136329219D01*
X220102937Y-136286616D01*
X220205822Y-136231081D01*
X220292442Y-136165849D01*
X220301925Y-136157283D01*
X220351339Y-136115151D01*
X220404411Y-136074736D01*
X220467540Y-136031381D01*
X220547124Y-135980426D01*
X220596967Y-135953623D01*
X220652843Y-135935464D01*
X220722577Y-135924720D01*
X220759786Y-135920382D01*
X220812615Y-135910125D01*
X220850812Y-135893818D01*
X220881712Y-135867738D01*
X220912648Y-135828156D01*
X220923651Y-135813071D01*
X220962140Y-135767787D01*
X221011441Y-135720327D01*
X221075463Y-135667135D01*
X221158105Y-135604655D01*
X221201369Y-135573826D01*
X221282530Y-135522591D01*
X221354448Y-135488559D01*
X221422316Y-135470061D01*
X221491322Y-135465422D01*
X221566656Y-135472969D01*
X221599517Y-135480624D01*
X221654829Y-135501238D01*
X221707864Y-135528665D01*
X221750951Y-135558728D01*
X221776420Y-135587244D01*
X221781509Y-135602027D01*
X221780062Y-135634907D01*
X221765545Y-135683461D01*
X221754255Y-135713265D01*
X221741161Y-135738129D01*
X221722891Y-135755895D01*
X221693200Y-135772274D01*
X221645843Y-135792982D01*
X221637558Y-135796477D01*
X221589142Y-135815859D01*
X221548169Y-135830655D01*
X221522768Y-135837897D01*
X221516901Y-135841146D01*
X221527634Y-135847964D01*
X221553926Y-135856460D01*
X221590089Y-135865280D01*
X221630434Y-135873077D01*
X221669275Y-135878498D01*
X221700918Y-135880195D01*
X221721910Y-135882393D01*
X221767680Y-135892667D01*
X221828820Y-135909768D01*
X221900361Y-135931979D01*
X221977333Y-135957585D01*
X222054764Y-135984872D01*
X222127684Y-136012122D01*
X222191121Y-136037622D01*
X222240108Y-136059654D01*
X222269670Y-136076503D01*
X222293936Y-136097131D01*
X222326005Y-136142081D01*
X222332621Y-136190076D01*
X222314084Y-136242236D01*
X222303070Y-136259097D01*
X222255508Y-136302717D01*
X222192115Y-136330338D01*
X222116925Y-136341214D01*
X222033976Y-136334602D01*
X221947305Y-136309761D01*
X221917536Y-136298857D01*
X221888326Y-136290280D01*
X221876029Y-136289737D01*
X221877914Y-136295626D01*
X221895916Y-136314797D01*
X221928746Y-136341874D01*
X221971772Y-136373159D01*
X222020364Y-136404958D01*
X222077814Y-136442272D01*
X222138573Y-136488944D01*
X222179967Y-136532681D01*
X222204953Y-136576791D01*
X222216486Y-136624587D01*
X222217832Y-136652767D01*
X222211292Y-136681083D01*
X222205121Y-136707803D01*
X222168962Y-136754782D01*
X222149280Y-136768670D01*
X222114362Y-136777085D01*
X222069825Y-136770247D01*
X222012417Y-136747493D01*
X221938886Y-136708166D01*
X221914941Y-136694436D01*
X221873548Y-136671357D01*
X221844088Y-136655836D01*
X221831766Y-136650667D01*
X221831431Y-136654116D01*
X221836484Y-136675335D01*
X221847446Y-136709034D01*
X221854067Y-136730219D01*
X221867355Y-136811328D01*
X221865690Y-136895454D01*
X221849001Y-136970547D01*
X221834126Y-137005708D01*
X221813724Y-137033017D01*
X221783996Y-137051525D01*
X221760757Y-137060980D01*
X221738381Y-137063296D01*
X221711456Y-137055539D01*
X221670895Y-137036499D01*
X221639648Y-137020147D01*
X221601051Y-136997694D01*
X221576180Y-136980432D01*
X221575445Y-136979788D01*
X221547541Y-136945996D01*
X221516221Y-136893758D01*
X221484280Y-136829591D01*
X221454514Y-136760017D01*
X221429718Y-136691553D01*
X221412686Y-136630719D01*
X221406216Y-136584033D01*
X221397089Y-136563406D01*
X221369384Y-136546815D01*
X221330553Y-136539945D01*
X221288213Y-136545293D01*
X221260322Y-136556751D01*
X221217318Y-136579799D01*
X221172833Y-136607940D01*
X221136221Y-136632901D01*
X221088927Y-136664478D01*
X221051170Y-136688977D01*
X221037811Y-136697831D01*
X221010047Y-136719441D01*
X220996462Y-136735035D01*
X220983358Y-136751214D01*
X220957697Y-136770772D01*
X220940798Y-136782541D01*
X220905636Y-136810383D01*
X220868413Y-136842755D01*
X220843562Y-136864385D01*
X220811484Y-136889153D01*
X220789796Y-136902068D01*
X220777457Y-136908372D01*
X220761521Y-136925618D01*
X220760975Y-136926752D01*
X220745699Y-136942455D01*
X220715179Y-136966675D01*
X220675341Y-136994668D01*
X220629911Y-137025483D01*
X220583110Y-137058265D01*
X220547598Y-137084221D01*
X220532624Y-137095061D01*
X220486288Y-137124933D01*
X220439314Y-137151405D01*
X220415982Y-137163921D01*
X220387342Y-137181426D01*
X220374686Y-137192338D01*
X220373648Y-137193495D01*
X220355709Y-137203380D01*
X220319125Y-137220163D01*
X220268388Y-137241979D01*
X220207988Y-137266962D01*
X220142419Y-137293246D01*
X220076169Y-137318966D01*
X220013732Y-137342258D01*
X220012123Y-137342838D01*
X219956585Y-137359186D01*
X219880659Y-137376383D01*
X219789614Y-137393346D01*
X219688723Y-137408991D01*
X219666376Y-137411640D01*
X219588226Y-137414127D01*
X219499270Y-137407012D01*
X219397504Y-137389841D01*
X219280930Y-137362156D01*
X219147549Y-137323503D01*
X218995359Y-137273423D01*
X218822359Y-137211461D01*
X218819664Y-137210465D01*
X218719281Y-137171829D01*
X218636198Y-137136229D01*
X218562817Y-137100194D01*
X218491543Y-137060251D01*
X218445008Y-137033360D01*
X218389940Y-137003100D01*
X218343429Y-136979199D01*
X218312251Y-136965252D01*
X218288454Y-136955008D01*
X218244128Y-136933154D01*
X218189846Y-136904489D01*
X218132460Y-136872546D01*
X218083164Y-136844809D01*
X218039395Y-136821122D01*
X218008694Y-136805585D01*
X217995728Y-136800649D01*
X217994999Y-136801205D01*
X217982301Y-136815101D01*
X217957140Y-136844596D01*
X217922760Y-136885843D01*
X217882404Y-136934999D01*
X217814839Y-137016779D01*
X217744437Y-137098398D01*
X217681670Y-137165906D01*
X217622528Y-137223144D01*
X217563004Y-137273953D01*
X217499089Y-137322174D01*
X217426777Y-137371645D01*
X217310903Y-137440781D01*
X217170159Y-137510816D01*
X217017941Y-137574788D01*
X216860460Y-137630515D01*
X216703930Y-137675808D01*
X216554563Y-137708484D01*
X216418574Y-137726354D01*
X216387287Y-137728866D01*
X216326797Y-137734001D01*
X216251926Y-137740564D01*
X216169280Y-137747976D01*
X216085474Y-137755655D01*
X215998130Y-137763556D01*
X215905488Y-137770751D01*
X215828789Y-137774176D01*
X215762515Y-137773249D01*
X215701149Y-137767393D01*
X215639172Y-137756026D01*
X215571068Y-137738569D01*
X215491316Y-137714444D01*
X215394400Y-137683070D01*
X215370609Y-137675324D01*
X215290784Y-137650150D01*
X215218756Y-137628634D01*
X215158710Y-137611954D01*
X215114832Y-137601286D01*
X215091312Y-137597810D01*
X215070423Y-137601946D01*
X215026206Y-137617039D01*
X214966919Y-137641306D01*
X214896866Y-137672791D01*
X214820357Y-137709542D01*
X214741699Y-137749605D01*
X214665200Y-137791028D01*
X214644656Y-137802459D01*
X214587540Y-137832594D01*
X214538847Y-137854112D01*
X214490032Y-137869937D01*
X214432554Y-137882995D01*
X214357870Y-137896205D01*
X214328605Y-137900774D01*
X214237937Y-137910587D01*
X214148425Y-137912473D01*
X214051481Y-137906350D01*
X213938516Y-137892133D01*
X213822698Y-137875216D01*
X213704272Y-137858402D01*
X213603688Y-137844685D01*
X213522887Y-137834321D01*
X213463808Y-137827568D01*
X213428391Y-137824681D01*
X213404646Y-137826325D01*
X213372976Y-137843015D01*
X213352499Y-137879485D01*
X213346562Y-137910546D01*
X213341258Y-137938292D01*
X213338959Y-137958341D01*
X213334327Y-137988263D01*
X213330543Y-138000466D01*
X213321775Y-137999712D01*
X213290340Y-137996220D01*
X213239419Y-137990289D01*
X213172500Y-137982342D01*
X213093068Y-137972804D01*
X213004609Y-137962100D01*
X212910609Y-137950656D01*
X212814556Y-137938895D01*
X212719933Y-137927242D01*
X212630227Y-137916124D01*
X212548925Y-137905962D01*
X212479512Y-137897182D01*
X212425475Y-137890210D01*
X212383480Y-137884974D01*
X212333581Y-137879574D01*
X212297733Y-137876706D01*
X212281752Y-137876908D01*
X212281552Y-137877025D01*
X212279438Y-137891775D01*
X212282333Y-137924690D01*
X212289645Y-137968898D01*
X212290610Y-137973932D01*
X212301622Y-138098854D01*
X212290246Y-138229907D01*
X212257326Y-138361984D01*
X212203704Y-138489978D01*
X212166554Y-138559079D01*
X212132702Y-138612672D01*
X212102726Y-138647548D01*
X212074063Y-138666641D01*
X212044152Y-138672893D01*
X212031526Y-138673329D01*
X211988412Y-138675524D01*
X211941323Y-138678603D01*
X211925975Y-138679445D01*
X211879033Y-138680397D01*
X211818909Y-138680224D01*
X211751196Y-138679095D01*
X211681476Y-138677180D01*
X211615340Y-138674649D01*
X211558372Y-138671670D01*
X211516162Y-138668413D01*
X211494297Y-138665048D01*
X211487812Y-138663499D01*
X211456217Y-138661319D01*
X211416108Y-138662999D01*
X211404039Y-138663926D01*
X211365277Y-138661961D01*
X211340183Y-138648389D01*
X211326879Y-138619812D01*
X211323483Y-138572833D01*
X211328115Y-138504059D01*
X211328350Y-138501655D01*
X211329872Y-138462828D01*
X211323398Y-138441631D01*
X211306804Y-138430764D01*
X211299730Y-138427063D01*
X211275540Y-138403777D01*
X211253354Y-138369854D01*
X211252123Y-138367422D01*
X211237793Y-138333211D01*
X211237554Y-138307797D01*
X211251108Y-138279094D01*
X211254641Y-138272919D01*
X211265472Y-138245129D01*
X211265545Y-138214260D01*
X211255259Y-138169882D01*
X211245750Y-138133492D01*
X211242969Y-138106323D01*
X211250086Y-138085651D01*
X211268275Y-138061691D01*
X211276065Y-138052259D01*
X211291297Y-138028914D01*
X211290787Y-138008520D01*
X211275642Y-137978536D01*
X211267372Y-137962988D01*
X211246400Y-137904567D01*
X211243767Y-137853733D01*
X211259129Y-137814396D01*
X211292143Y-137790460D01*
X211299146Y-137784894D01*
X211300041Y-137768261D01*
X211290053Y-137737414D01*
X211268207Y-137688191D01*
X211242436Y-137626249D01*
X211228809Y-137571465D01*
X211228191Y-137558735D01*
X211357086Y-137558735D01*
X211363394Y-137588672D01*
X211379598Y-137627935D01*
X211401839Y-137668089D01*
X211426269Y-137700698D01*
X211435423Y-137710894D01*
X211471171Y-137763767D01*
X211483118Y-137811193D01*
X211471192Y-137851726D01*
X211435319Y-137883925D01*
X211392355Y-137908652D01*
X211422961Y-137974287D01*
X211441909Y-138020428D01*
X211450515Y-138065468D01*
X211442352Y-138104058D01*
X211417163Y-138143792D01*
X211408198Y-138155306D01*
X211393002Y-138178980D01*
X211392324Y-138196119D01*
X211404452Y-138216528D01*
X211430875Y-138260072D01*
X211454778Y-138312144D01*
X211471912Y-138363087D01*
X211479965Y-138405943D01*
X211476624Y-138433749D01*
X211468535Y-138456040D01*
X211462142Y-138490750D01*
X211461957Y-138492816D01*
X211462500Y-138515929D01*
X211472730Y-138529131D01*
X211498062Y-138535581D01*
X211543908Y-138538435D01*
X211548702Y-138538622D01*
X211591379Y-138540787D01*
X211647400Y-138544172D01*
X211705954Y-138548131D01*
X211774251Y-138550797D01*
X211852382Y-138550420D01*
X211922324Y-138547025D01*
X212031119Y-138538205D01*
X212077226Y-138453144D01*
X212102273Y-138406438D01*
X212121762Y-138367021D01*
X212135873Y-138331631D01*
X212146246Y-138294307D01*
X212154520Y-138249086D01*
X212162336Y-138190009D01*
X212171333Y-138111115D01*
X212171945Y-138091360D01*
X212168055Y-138042559D01*
X212158913Y-137982620D01*
X212145693Y-137920278D01*
X212136530Y-137880267D01*
X212126573Y-137827644D01*
X212121414Y-137787090D01*
X212122040Y-137765086D01*
X212122311Y-137764354D01*
X212145438Y-137737673D01*
X212186926Y-137726909D01*
X212244193Y-137732744D01*
X212245260Y-137732977D01*
X212272142Y-137737587D01*
X212319299Y-137744537D01*
X212383194Y-137753386D01*
X212460288Y-137763693D01*
X212547048Y-137775014D01*
X212639934Y-137786906D01*
X212735409Y-137798929D01*
X212829936Y-137810642D01*
X212919981Y-137821599D01*
X213002002Y-137831360D01*
X213072465Y-137839485D01*
X213127832Y-137845528D01*
X213164567Y-137849049D01*
X213179131Y-137849606D01*
X213178954Y-137844851D01*
X213172744Y-137819242D01*
X213160001Y-137774550D01*
X213141760Y-137714244D01*
X213119058Y-137641796D01*
X213092928Y-137560676D01*
X213051170Y-137429540D01*
X213012580Y-137300785D01*
X212982048Y-137189722D01*
X212959987Y-137097938D01*
X212955214Y-137072260D01*
X213090177Y-137072260D01*
X213093270Y-137100983D01*
X213097302Y-137124423D01*
X213107336Y-137161294D01*
X213118307Y-137192883D01*
X213115214Y-137164161D01*
X213111180Y-137140722D01*
X213101148Y-137103850D01*
X213090177Y-137072260D01*
X212955214Y-137072260D01*
X212950671Y-137047822D01*
X213079897Y-137047822D01*
X213081087Y-137052339D01*
X213089084Y-137064964D01*
X213091039Y-137064777D01*
X213092080Y-137052256D01*
X213090891Y-137047739D01*
X213082892Y-137035114D01*
X213080938Y-137035302D01*
X213079897Y-137047822D01*
X212950671Y-137047822D01*
X212946805Y-137027024D01*
X212942911Y-136978570D01*
X212942957Y-136976580D01*
X212942782Y-136945730D01*
X212941130Y-136928816D01*
X212940624Y-136928463D01*
X212923596Y-136928123D01*
X212885414Y-136930570D01*
X212830007Y-136935462D01*
X212761297Y-136942457D01*
X212683213Y-136951216D01*
X212599274Y-136960827D01*
X212471249Y-136974398D01*
X212364743Y-136984000D01*
X212277166Y-136989787D01*
X212205928Y-136991911D01*
X212148444Y-136990528D01*
X212102125Y-136985789D01*
X212074930Y-136982134D01*
X212019391Y-136975815D01*
X211948100Y-136968507D01*
X211866899Y-136960779D01*
X211781634Y-136953204D01*
X211698150Y-136946352D01*
X211645317Y-136942865D01*
X211581679Y-136942004D01*
X211524429Y-136947104D01*
X211463360Y-136959258D01*
X211388270Y-136979561D01*
X211387858Y-136983493D01*
X211392563Y-137006793D01*
X211403157Y-137046232D01*
X211418220Y-137096295D01*
X211426506Y-137123333D01*
X211439932Y-137170856D01*
X211448341Y-137206025D01*
X211450181Y-137222703D01*
X211449980Y-137224578D01*
X211455229Y-137245368D01*
X211468778Y-137281563D01*
X211488238Y-137326643D01*
X211510326Y-137379973D01*
X211520535Y-137422229D01*
X211518097Y-137458016D01*
X211503736Y-137495192D01*
X211500263Y-137500190D01*
X211476114Y-137518248D01*
X211440870Y-137535054D01*
X211405327Y-137546092D01*
X211380279Y-137546843D01*
X211371614Y-137545088D01*
X211358102Y-137551511D01*
X211357086Y-137558735D01*
X211228191Y-137558735D01*
X211226125Y-137516159D01*
X211228146Y-137474193D01*
X211232768Y-137447304D01*
X211242716Y-137430306D01*
X211260820Y-137414954D01*
X211288222Y-137400969D01*
X211327254Y-137403362D01*
X211353971Y-137411196D01*
X211370641Y-137408048D01*
X211370490Y-137388326D01*
X211354829Y-137349468D01*
X211346024Y-137327848D01*
X211329796Y-137273731D01*
X211319478Y-137219868D01*
X211319264Y-137218151D01*
X211309164Y-137168482D01*
X211291729Y-137108527D01*
X211270602Y-137050883D01*
X211261256Y-137027694D01*
X211243802Y-136974152D01*
X211240464Y-136936773D01*
X211251408Y-136911301D01*
X211276802Y-136893481D01*
X211292251Y-136885963D01*
X211297667Y-136880733D01*
X211281692Y-136880045D01*
X211268234Y-136879335D01*
X211258353Y-136873814D01*
X211266502Y-136865503D01*
X211288214Y-136857606D01*
X211319016Y-136853319D01*
X211326135Y-136852929D01*
X211369211Y-136847501D01*
X211403641Y-136838794D01*
X211436983Y-136827989D01*
X211492490Y-136815223D01*
X211550041Y-136806429D01*
X211600709Y-136802873D01*
X211635565Y-136805829D01*
X211650682Y-136809249D01*
X211694257Y-136815627D01*
X211742066Y-136819450D01*
X211765187Y-136820743D01*
X211825245Y-136825775D01*
X211882020Y-136832333D01*
X211917208Y-136836632D01*
X211979617Y-136842697D01*
X212039101Y-136846994D01*
X212081370Y-136850156D01*
X212122549Y-136855034D01*
X212147323Y-136860170D01*
X212161602Y-136863446D01*
X212181208Y-136860403D01*
X212187921Y-136858081D01*
X212215497Y-136856360D01*
X212254163Y-136858539D01*
X212271376Y-136859822D01*
X212318546Y-136859489D01*
X212355972Y-136854313D01*
X212390993Y-136847654D01*
X212429170Y-136845433D01*
X212444348Y-136845274D01*
X212486890Y-136842352D01*
X212548249Y-136836590D01*
X212624207Y-136828494D01*
X212710551Y-136818568D01*
X212803063Y-136807315D01*
X212897527Y-136795240D01*
X212989728Y-136782848D01*
X213075450Y-136770643D01*
X213150476Y-136759130D01*
X213296191Y-136734298D01*
X213440383Y-136706541D01*
X213566441Y-136678674D01*
X213672820Y-136651105D01*
X213757972Y-136624234D01*
X213820355Y-136598468D01*
X213858422Y-136574207D01*
X213861096Y-136572015D01*
X213886296Y-136556393D01*
X213928700Y-136533581D01*
X213982909Y-136506163D01*
X214043519Y-136476728D01*
X214105131Y-136447861D01*
X214162342Y-136422150D01*
X214209749Y-136402181D01*
X214241955Y-136390541D01*
X214244761Y-136389695D01*
X214264760Y-136377230D01*
X214266544Y-136352278D01*
X214262165Y-136333961D01*
X214242618Y-136306927D01*
X214213204Y-136300481D01*
X214178141Y-136314707D01*
X214141645Y-136349697D01*
X214140341Y-136351332D01*
X214128068Y-136364100D01*
X214112318Y-136373033D01*
X214088600Y-136378864D01*
X214052423Y-136382326D01*
X213999297Y-136384152D01*
X213924730Y-136385071D01*
X213873146Y-136384917D01*
X213768163Y-136381822D01*
X213657657Y-136375529D01*
X213547917Y-136366589D01*
X213445234Y-136355548D01*
X213355900Y-136342957D01*
X213286201Y-136329364D01*
X213270728Y-136325760D01*
X213221494Y-136314936D01*
X213156494Y-136301198D01*
X213082375Y-136285939D01*
X213005784Y-136270553D01*
X212835766Y-136231889D01*
X212613162Y-136164437D01*
X212565259Y-136147879D01*
X212505017Y-136127855D01*
X212463176Y-136115508D01*
X212436099Y-136109957D01*
X212420146Y-136110326D01*
X212411683Y-136115733D01*
X212378158Y-136143150D01*
X212335343Y-136157784D01*
X212295457Y-136155202D01*
X212291576Y-136153606D01*
X212258462Y-136126672D01*
X212224524Y-136076720D01*
X212208220Y-136048617D01*
X212177817Y-135998861D01*
X212141315Y-135941051D01*
X212103450Y-135882775D01*
X212089002Y-135860184D01*
X212049854Y-135794219D01*
X212006438Y-135715886D01*
X211963086Y-135633129D01*
X211924130Y-135553891D01*
X211829312Y-135352978D01*
X211746349Y-135394149D01*
X211711879Y-135411013D01*
X211621296Y-135453504D01*
X211525154Y-135496421D01*
X211428259Y-135537784D01*
X211335415Y-135575619D01*
X211251428Y-135607944D01*
X211181102Y-135632784D01*
X211129242Y-135648161D01*
X211042862Y-135663185D01*
X210955555Y-135664193D01*
X210881242Y-135649035D01*
X210822806Y-135618339D01*
X210783130Y-135572736D01*
X210782841Y-135572232D01*
X210765422Y-135551872D01*
X210733894Y-135522637D01*
X210694874Y-135490677D01*
X210654301Y-135457989D01*
X210612745Y-135421854D01*
X210582701Y-135392849D01*
X210575299Y-135385257D01*
X210543478Y-135358197D01*
X210515887Y-135341917D01*
X210480778Y-135317832D01*
X210453503Y-135274383D01*
X210437198Y-135218301D01*
X210433112Y-135166032D01*
X210561694Y-135166032D01*
X210565667Y-135197698D01*
X210581412Y-135224189D01*
X210614231Y-135254643D01*
X210671665Y-135302078D01*
X210749430Y-135367160D01*
X210808915Y-135418275D01*
X210851481Y-135456626D01*
X210878486Y-135483419D01*
X210891296Y-135499857D01*
X210892520Y-135502025D01*
X210920533Y-135526394D01*
X210963989Y-135540160D01*
X211014641Y-135541882D01*
X211064237Y-135530117D01*
X211074107Y-135526413D01*
X211113778Y-135514320D01*
X211158385Y-135503428D01*
X211169855Y-135500468D01*
X211211021Y-135486567D01*
X211267215Y-135464844D01*
X211332551Y-135437629D01*
X211401138Y-135407257D01*
X211481105Y-135370737D01*
X211579048Y-135326179D01*
X211657737Y-135290896D01*
X211719746Y-135264023D01*
X211767652Y-135244699D01*
X211804031Y-135232056D01*
X211831460Y-135225231D01*
X211852514Y-135223360D01*
X211869770Y-135225579D01*
X211885805Y-135231024D01*
X211903193Y-135238829D01*
X211907402Y-135241704D01*
X211925918Y-135264217D01*
X211949246Y-135302224D01*
X211973345Y-135349365D01*
X212004414Y-135415341D01*
X212039430Y-135488576D01*
X212074464Y-135560885D01*
X212107301Y-135627761D01*
X212135729Y-135684697D01*
X212157535Y-135727190D01*
X212170501Y-135750728D01*
X212176843Y-135760432D01*
X212184699Y-135766164D01*
X212190637Y-135753641D01*
X212197825Y-135719213D01*
X212202374Y-135684528D01*
X212205262Y-135640353D01*
X212401738Y-135640353D01*
X212409473Y-135745140D01*
X212413207Y-135780857D01*
X212423108Y-135851530D01*
X212437279Y-135905497D01*
X212459201Y-135946601D01*
X212492353Y-135978679D01*
X212540212Y-136005572D01*
X212606260Y-136031121D01*
X212693974Y-136059165D01*
X212753587Y-136076540D01*
X212841378Y-136099897D01*
X212929023Y-136121135D01*
X213004305Y-136137182D01*
X213047044Y-136145506D01*
X213127642Y-136161819D01*
X213207271Y-136178575D01*
X213273663Y-136193221D01*
X213340951Y-136206926D01*
X213427466Y-136220980D01*
X213520556Y-136233078D01*
X213616639Y-136243026D01*
X213712132Y-136250630D01*
X213803451Y-136255700D01*
X213887016Y-136258039D01*
X213959245Y-136257458D01*
X214016553Y-136253762D01*
X214055358Y-136246756D01*
X214072079Y-136236250D01*
X214082103Y-136223309D01*
X214112558Y-136203588D01*
X214154025Y-136185971D01*
X214197816Y-136173931D01*
X214235246Y-136170949D01*
X214267273Y-136175802D01*
X214298302Y-136189640D01*
X214331959Y-136218015D01*
X214363617Y-136256442D01*
X214393064Y-136324310D01*
X214399866Y-136400327D01*
X214399207Y-136408273D01*
X214384427Y-136462454D01*
X214351503Y-136498789D01*
X214298441Y-136519624D01*
X214249309Y-136533883D01*
X214184383Y-136557960D01*
X214112603Y-136588142D01*
X214041859Y-136620937D01*
X213980043Y-136652850D01*
X213935047Y-136680395D01*
X213877791Y-136713000D01*
X213793147Y-136747214D01*
X213684538Y-136780982D01*
X213552976Y-136813992D01*
X213399468Y-136845932D01*
X213326362Y-136859863D01*
X213261083Y-136872287D01*
X213209145Y-136882153D01*
X213174589Y-136888695D01*
X213161461Y-136891142D01*
X213161342Y-136891732D01*
X213166415Y-136907245D01*
X213179091Y-136939507D01*
X213197115Y-136982732D01*
X213206245Y-137005776D01*
X213222381Y-137057804D01*
X213235433Y-137117333D01*
X213236305Y-137121311D01*
X213248984Y-137201113D01*
X213254046Y-137242287D01*
X213261389Y-137302024D01*
X213262537Y-137312209D01*
X213274777Y-137407836D01*
X213287571Y-137485831D01*
X213300404Y-137543435D01*
X213312760Y-137577887D01*
X213329933Y-137608922D01*
X213355883Y-137651756D01*
X213376369Y-137677286D01*
X213395005Y-137689554D01*
X213415409Y-137692605D01*
X213421359Y-137692865D01*
X213452407Y-137695925D01*
X213503203Y-137701999D01*
X213569527Y-137710551D01*
X213647159Y-137721043D01*
X213731880Y-137732936D01*
X213743922Y-137734656D01*
X213857685Y-137750755D01*
X213949821Y-137763302D01*
X214023999Y-137772567D01*
X214083890Y-137778816D01*
X214133162Y-137782319D01*
X214175485Y-137783344D01*
X214214529Y-137782157D01*
X214253964Y-137779026D01*
X214297459Y-137774221D01*
X214349220Y-137766478D01*
X214436015Y-137745591D01*
X214526133Y-137713212D01*
X214624834Y-137667325D01*
X214737379Y-137605918D01*
X214773929Y-137585521D01*
X214868864Y-137538532D01*
X214958316Y-137502563D01*
X215037422Y-137479416D01*
X215101325Y-137470894D01*
X215110353Y-137471074D01*
X215143405Y-137475051D01*
X215188477Y-137484806D01*
X215248641Y-137501153D01*
X215326970Y-137524902D01*
X215426537Y-137556866D01*
X215448018Y-137563875D01*
X215543698Y-137594429D01*
X215621587Y-137617234D01*
X215687276Y-137632950D01*
X215746348Y-137642246D01*
X215804394Y-137645786D01*
X215867002Y-137644239D01*
X215939761Y-137638266D01*
X216028256Y-137628536D01*
X216081369Y-137622786D01*
X216164774Y-137614948D01*
X216246170Y-137608475D01*
X216313707Y-137604373D01*
X216406995Y-137597380D01*
X216587383Y-137569757D01*
X216769999Y-137524803D01*
X216950280Y-137464353D01*
X217123663Y-137390245D01*
X217285585Y-137304313D01*
X217431482Y-137208390D01*
X217556792Y-137104317D01*
X217597343Y-137063895D01*
X217648651Y-137009186D01*
X217703483Y-136947958D01*
X217757520Y-136885233D01*
X217806441Y-136826033D01*
X217836874Y-136786994D01*
X218220272Y-136786994D01*
X218222377Y-136788900D01*
X218242115Y-136800107D01*
X218277815Y-136817802D01*
X218323769Y-136839109D01*
X218352210Y-136852440D01*
X218415714Y-136884379D01*
X218484893Y-136921277D01*
X218534271Y-136949162D01*
X218549130Y-136957553D01*
X218553044Y-136959828D01*
X218601789Y-136986208D01*
X218661818Y-137016042D01*
X218728805Y-137047475D01*
X218798431Y-137078657D01*
X218866371Y-137107730D01*
X218928301Y-137132841D01*
X218979899Y-137152137D01*
X219016843Y-137163761D01*
X219034808Y-137165863D01*
X219040169Y-137166055D01*
X219066710Y-137172087D01*
X219110924Y-137184438D01*
X219168305Y-137201823D01*
X219234344Y-137222946D01*
X219308233Y-137246337D01*
X219392814Y-137270048D01*
X219462926Y-137285277D01*
X219523857Y-137293312D01*
X219526754Y-137293550D01*
X219601735Y-137297209D01*
X219666303Y-137295648D01*
X219715398Y-137289215D01*
X219743960Y-137278254D01*
X219752809Y-137274221D01*
X219783086Y-137267242D01*
X219823779Y-137262057D01*
X219844734Y-137259666D01*
X219892970Y-137250501D01*
X219930595Y-137238778D01*
X219935775Y-137236591D01*
X219978351Y-137221449D01*
X220023816Y-137208609D01*
X220032050Y-137206439D01*
X220076617Y-137191177D01*
X220135876Y-137167345D01*
X220203319Y-137137864D01*
X220272433Y-137105650D01*
X220336708Y-137073621D01*
X220389634Y-137044693D01*
X220444085Y-137011246D01*
X220527756Y-136954509D01*
X220621456Y-136885025D01*
X220727829Y-136800809D01*
X220849521Y-136699879D01*
X220894679Y-136662253D01*
X220938934Y-136626397D01*
X220973517Y-136599477D01*
X220993423Y-136585470D01*
X221011032Y-136574538D01*
X221040780Y-136553044D01*
X221089274Y-136517193D01*
X221151280Y-136478595D01*
X221212803Y-136446396D01*
X221264369Y-136425984D01*
X221268340Y-136424835D01*
X221311662Y-136415848D01*
X221349953Y-136418137D01*
X221397056Y-136432371D01*
X221434177Y-136448602D01*
X221486208Y-136487668D01*
X221520200Y-136542069D01*
X221539085Y-136615585D01*
X221545650Y-136647772D01*
X221564116Y-136708674D01*
X221589044Y-136773037D01*
X221616563Y-136831236D01*
X221642807Y-136873646D01*
X221666194Y-136896492D01*
X221698548Y-136919522D01*
X221717496Y-136929621D01*
X221734601Y-136931919D01*
X221743969Y-136917936D01*
X221747747Y-136905272D01*
X221751864Y-136857453D01*
X221744407Y-136794238D01*
X221724976Y-136713234D01*
X221693176Y-136612052D01*
X221676950Y-136552206D01*
X221675253Y-136505485D01*
X221690363Y-136476907D01*
X221722480Y-136465472D01*
X221740136Y-136466582D01*
X221764857Y-136474274D01*
X221799370Y-136490542D01*
X221847637Y-136517271D01*
X221913623Y-136556344D01*
X221923817Y-136562484D01*
X221986385Y-136600139D01*
X222030538Y-136626280D01*
X222059677Y-136642456D01*
X222077200Y-136650213D01*
X222086506Y-136651092D01*
X222090996Y-136646645D01*
X222094068Y-136638416D01*
X222090398Y-136620823D01*
X222069110Y-136592370D01*
X222034007Y-136558795D01*
X221989598Y-136524349D01*
X221940386Y-136493290D01*
X221924556Y-136484022D01*
X221859531Y-136437276D01*
X221799863Y-136381725D01*
X221751727Y-136323674D01*
X221721293Y-136269432D01*
X221709228Y-136236210D01*
X221703430Y-136206617D01*
X221709814Y-136185765D01*
X221728996Y-136165279D01*
X221743470Y-136155226D01*
X221773310Y-136146991D01*
X221814802Y-136148730D01*
X221871892Y-136160774D01*
X221948534Y-136183448D01*
X222005179Y-136200740D01*
X222070394Y-136216936D01*
X222118748Y-136222839D01*
X222154192Y-136218817D01*
X222180673Y-136205245D01*
X222187204Y-136199951D01*
X222199817Y-136183823D01*
X222194183Y-136167824D01*
X222177043Y-136156618D01*
X222139313Y-136139959D01*
X222085694Y-136119470D01*
X222020798Y-136096634D01*
X221949232Y-136072936D01*
X221875608Y-136049860D01*
X221804535Y-136028891D01*
X221740621Y-136011513D01*
X221688477Y-135999210D01*
X221652712Y-135993466D01*
X221649877Y-135993237D01*
X221598703Y-135986297D01*
X221536509Y-135974206D01*
X221476115Y-135959432D01*
X221414479Y-135939731D01*
X221356315Y-135912007D01*
X221320580Y-135880512D01*
X221305321Y-135843922D01*
X221304853Y-135835735D01*
X221316770Y-135800690D01*
X221346441Y-135770642D01*
X221387470Y-135752698D01*
X221437317Y-135740515D01*
X221496752Y-135722868D01*
X221553596Y-135703232D01*
X221602218Y-135683719D01*
X221636986Y-135666440D01*
X221652269Y-135653500D01*
X221654192Y-135644899D01*
X221648557Y-135632841D01*
X221627679Y-135620588D01*
X221586749Y-135604549D01*
X221565346Y-135597357D01*
X221502845Y-135584788D01*
X221442057Y-135587629D01*
X221378483Y-135607073D01*
X221307625Y-135644313D01*
X221224985Y-135700544D01*
X221218337Y-135705464D01*
X221122968Y-135783341D01*
X221028230Y-135872749D01*
X220945640Y-135962874D01*
X220889177Y-136030369D01*
X220773049Y-136040531D01*
X220731812Y-136044795D01*
X220677269Y-136054433D01*
X220634528Y-136069300D01*
X220594714Y-136091957D01*
X220569810Y-136108410D01*
X220527780Y-136135933D01*
X220495448Y-136156816D01*
X220470558Y-136174461D01*
X220431929Y-136204733D01*
X220391327Y-136238790D01*
X220351947Y-136271045D01*
X220294913Y-136312744D01*
X220235287Y-136351921D01*
X220177680Y-136385895D01*
X220126701Y-136411981D01*
X220086960Y-136427499D01*
X220063068Y-136429766D01*
X220050878Y-136429896D01*
X220028025Y-136442280D01*
X219996613Y-136457713D01*
X219942338Y-136469135D01*
X219868622Y-136476164D01*
X219778564Y-136478714D01*
X219675263Y-136476698D01*
X219561813Y-136470031D01*
X219441317Y-136458626D01*
X219419019Y-136456041D01*
X219303604Y-136438956D01*
X219207989Y-136416656D01*
X219127058Y-136386895D01*
X219055692Y-136347425D01*
X218988774Y-136296003D01*
X218921185Y-136230381D01*
X218901428Y-136209757D01*
X218870795Y-136181520D01*
X218843959Y-136167357D01*
X218813965Y-136166187D01*
X218773852Y-136176922D01*
X218716663Y-136198477D01*
X218687327Y-136210484D01*
X218666037Y-136224037D01*
X218657171Y-136243043D01*
X218654062Y-136275727D01*
X218653578Y-136282812D01*
X218643964Y-136329760D01*
X218619671Y-136371693D01*
X218616354Y-136376612D01*
X218613823Y-136380365D01*
X218593152Y-136418507D01*
X218569795Y-136469694D01*
X218547768Y-136525338D01*
X218527751Y-136576868D01*
X218524670Y-136583124D01*
X218498246Y-136636784D01*
X218466589Y-136678416D01*
X218429091Y-136706195D01*
X218382070Y-136724550D01*
X218362055Y-136730380D01*
X218304960Y-136748467D01*
X218259266Y-136765102D01*
X218229521Y-136778529D01*
X218220272Y-136786994D01*
X217836874Y-136786994D01*
X217845927Y-136775381D01*
X217871656Y-136738299D01*
X217872786Y-136736439D01*
X217885241Y-136712935D01*
X217880229Y-136703545D01*
X217854324Y-136700872D01*
X217852999Y-136700805D01*
X217803803Y-136694557D01*
X217738479Y-136681399D01*
X217664923Y-136663403D01*
X217591032Y-136642639D01*
X217524703Y-136621177D01*
X217473833Y-136601089D01*
X217431505Y-136579136D01*
X217380425Y-136547374D01*
X217341146Y-136517274D01*
X217325370Y-136503539D01*
X217283162Y-136470829D01*
X217245154Y-136445976D01*
X217237611Y-136441636D01*
X217176221Y-136399036D01*
X217109353Y-136342220D01*
X217042467Y-136276833D01*
X216981027Y-136208514D01*
X216930493Y-136142906D01*
X216896329Y-136085653D01*
X216882099Y-136057398D01*
X216855170Y-136010293D01*
X216830588Y-135973836D01*
X216829471Y-135972381D01*
X216807176Y-135938148D01*
X216780653Y-135890476D01*
X216755405Y-135839213D01*
X216727710Y-135786348D01*
X216689500Y-135725501D01*
X216651570Y-135675012D01*
X216617349Y-135629130D01*
X216577677Y-135563449D01*
X216544546Y-135495514D01*
X216541264Y-135487769D01*
X216512965Y-135422560D01*
X216482342Y-135354127D01*
X216455474Y-135296083D01*
X216424750Y-135227851D01*
X216393926Y-135144429D01*
X216374648Y-135066457D01*
X216364354Y-134985205D01*
X216357120Y-134928587D01*
X216335336Y-134855616D01*
X216297006Y-134788632D01*
X216238393Y-134719759D01*
X216205996Y-134682133D01*
X216165214Y-134625174D01*
X216133878Y-134570949D01*
X216094513Y-134489559D01*
X216071878Y-134547432D01*
X216068722Y-134555502D01*
X216050369Y-134594119D01*
X216018068Y-134640451D01*
X215972197Y-134687998D01*
X215909475Y-134740070D01*
X215826621Y-134799982D01*
X215820569Y-134804154D01*
X215731691Y-134862789D01*
X215711155Y-134876336D01*
X215652452Y-134910759D01*
X215615851Y-134932222D01*
X215530793Y-134973912D01*
X215507601Y-134982636D01*
X215465432Y-134998497D01*
X215452121Y-135003505D01*
X215426982Y-135010128D01*
X215383034Y-135021707D01*
X215298995Y-135037622D01*
X215243638Y-135044883D01*
X215212522Y-135048963D01*
X215132640Y-135054559D01*
X215068373Y-135053242D01*
X215057207Y-135052216D01*
X215046204Y-135051395D01*
X215003349Y-135048201D01*
X214953842Y-135045683D01*
X214925209Y-135043358D01*
X214872789Y-135035654D01*
X214819714Y-135024801D01*
X214806700Y-135021593D01*
X214763123Y-135008382D01*
X214735522Y-134993604D01*
X214715959Y-134973323D01*
X214710585Y-134966207D01*
X214694869Y-134950264D01*
X214678179Y-134950347D01*
X214649900Y-134965138D01*
X214623552Y-134981237D01*
X214580836Y-135008938D01*
X214536312Y-135039098D01*
X214503794Y-135059962D01*
X214436518Y-135097005D01*
X214361745Y-135132655D01*
X214289084Y-135162462D01*
X214228140Y-135181970D01*
X214218945Y-135184232D01*
X214194911Y-135189710D01*
X214171138Y-135193927D01*
X214144719Y-135196884D01*
X214112748Y-135198583D01*
X214072318Y-135199027D01*
X214020521Y-135198220D01*
X213954451Y-135196164D01*
X213871199Y-135192861D01*
X213767860Y-135188316D01*
X213641524Y-135182531D01*
X213627374Y-135181892D01*
X213554772Y-135179054D01*
X213486921Y-135177057D01*
X213430868Y-135176077D01*
X213393665Y-135176291D01*
X213355907Y-135175189D01*
X213277175Y-135163928D01*
X213179729Y-135141471D01*
X213179235Y-135141327D01*
X213066156Y-135108445D01*
X212939039Y-135065483D01*
X212872735Y-135042364D01*
X212799332Y-135019903D01*
X212742041Y-135008094D01*
X212696501Y-135006971D01*
X212658342Y-135016563D01*
X212623202Y-135036903D01*
X212586717Y-135068021D01*
X212562801Y-135091270D01*
X212542246Y-135114480D01*
X212525345Y-135140011D01*
X212509027Y-135173397D01*
X212490223Y-135220170D01*
X212465864Y-135285865D01*
X212465443Y-135287018D01*
X212433067Y-135383807D01*
X212412409Y-135468850D01*
X212402341Y-135551310D01*
X212401738Y-135640353D01*
X212205262Y-135640353D01*
X212206156Y-135626671D01*
X212207690Y-135562345D01*
X212206758Y-135502282D01*
X212203143Y-135457206D01*
X212201836Y-135428818D01*
X212204846Y-135378068D01*
X212211883Y-135320253D01*
X212221657Y-135265494D01*
X212232879Y-135223899D01*
X212257065Y-135168526D01*
X212318433Y-135074967D01*
X212398341Y-134995524D01*
X212492619Y-134934835D01*
X212543030Y-134909767D01*
X212485631Y-134873755D01*
X212446781Y-134848011D01*
X212412642Y-134821332D01*
X212379668Y-134789834D01*
X212343904Y-134749370D01*
X212301396Y-134695798D01*
X212248190Y-134624975D01*
X212247284Y-134623753D01*
X212185776Y-134543135D01*
X212126283Y-134469526D01*
X212070986Y-134405272D01*
X212022066Y-134352719D01*
X211981707Y-134314211D01*
X211952086Y-134292093D01*
X211935388Y-134288710D01*
X211924670Y-134304675D01*
X211910388Y-134338934D01*
X211896421Y-134383206D01*
X211879799Y-134434023D01*
X211859587Y-134466367D01*
X211830553Y-134482697D01*
X211787313Y-134486017D01*
X211724485Y-134479339D01*
X211642698Y-134471667D01*
X211579141Y-134475487D01*
X211533583Y-134491310D01*
X211527763Y-134494208D01*
X211495163Y-134504516D01*
X211454602Y-134512046D01*
X211440185Y-134514036D01*
X211410165Y-134519914D01*
X211397114Y-134525294D01*
X211396883Y-134526343D01*
X211397322Y-134545254D01*
X211400630Y-134577230D01*
X211403826Y-134607746D01*
X211402615Y-134669138D01*
X211386572Y-134713337D01*
X211353477Y-134744582D01*
X211301110Y-134767112D01*
X211293535Y-134769372D01*
X211240498Y-134776768D01*
X211186951Y-134765655D01*
X211171020Y-134760330D01*
X211142672Y-134753815D01*
X211126717Y-134759028D01*
X211114779Y-134777320D01*
X211106938Y-134799948D01*
X211097700Y-134842544D01*
X211090926Y-134891548D01*
X211090255Y-134898307D01*
X211085121Y-134941335D01*
X211078582Y-134967007D01*
X211067635Y-134982902D01*
X211049270Y-134996604D01*
X211049228Y-134996632D01*
X211005899Y-135011060D01*
X210943509Y-135011030D01*
X210914652Y-135008031D01*
X210871031Y-135003506D01*
X210841287Y-135000430D01*
X210832068Y-134999714D01*
X210812255Y-135003300D01*
X210810614Y-135019401D01*
X210825949Y-135052050D01*
X210839409Y-135091324D01*
X210830705Y-135124566D01*
X210798153Y-135147842D01*
X210798075Y-135147874D01*
X210778024Y-135153038D01*
X210754480Y-135150895D01*
X210720908Y-135139955D01*
X210670773Y-135118721D01*
X210661905Y-135114793D01*
X210614247Y-135094881D01*
X210584938Y-135087968D01*
X210569440Y-135095947D01*
X210563210Y-135120712D01*
X210561710Y-135164150D01*
X210561694Y-135166032D01*
X210433112Y-135166032D01*
X210432279Y-135155380D01*
X210439168Y-135091417D01*
X210458280Y-135032209D01*
X210490036Y-134983553D01*
X210509147Y-134964891D01*
X210532925Y-134953118D01*
X210559559Y-134957483D01*
X210589552Y-134967147D01*
X210628027Y-134972594D01*
X210652579Y-134962436D01*
X210668239Y-134935667D01*
X210677647Y-134915572D01*
X210698627Y-134893473D01*
X210731731Y-134879982D01*
X210781456Y-134873560D01*
X210852305Y-134872666D01*
X210959589Y-134874421D01*
X210975592Y-134798027D01*
X210999305Y-134722522D01*
X211035335Y-134659273D01*
X211080020Y-134615482D01*
X211083114Y-134613524D01*
X211104717Y-134606587D01*
X211134653Y-134609867D01*
X211180382Y-134623996D01*
X211214748Y-134635076D01*
X211248625Y-134643504D01*
X211266304Y-134644594D01*
X211270038Y-134638476D01*
X211273112Y-134612550D01*
X211271426Y-134574495D01*
X211270026Y-134554180D01*
X211271122Y-134509034D01*
X211277324Y-134475322D01*
X211278622Y-134471998D01*
X211306931Y-134434039D01*
X211353024Y-134404687D01*
X211409573Y-134388737D01*
X211409672Y-134388725D01*
X211454372Y-134378637D01*
X211498352Y-134362600D01*
X211502510Y-134360841D01*
X211541355Y-134351419D01*
X211594380Y-134345410D01*
X211651684Y-134343247D01*
X211703370Y-134345355D01*
X211739536Y-134352165D01*
X211744940Y-134353673D01*
X211757677Y-134349963D01*
X211770042Y-134330892D01*
X211785708Y-134291650D01*
X211789095Y-134282715D01*
X211823881Y-134218408D01*
X211867857Y-134174484D01*
X211918134Y-134152303D01*
X211971819Y-134153226D01*
X212026024Y-134178611D01*
X212028919Y-134180720D01*
X212066208Y-134213142D01*
X212114841Y-134262449D01*
X212171426Y-134324794D01*
X212232572Y-134396333D01*
X212294885Y-134473217D01*
X212354974Y-134551600D01*
X212361940Y-134560927D01*
X212404100Y-134615524D01*
X212443654Y-134663893D01*
X212476439Y-134701083D01*
X212498291Y-134722138D01*
X212526502Y-134743296D01*
X212559633Y-134767024D01*
X212591131Y-134787233D01*
X212624735Y-134805625D01*
X212664184Y-134823897D01*
X212713218Y-134843750D01*
X212775577Y-134866882D01*
X212854998Y-134894993D01*
X212955223Y-134929781D01*
X213016193Y-134950841D01*
X213102709Y-134980468D01*
X213170517Y-135003061D01*
X213223252Y-135019589D01*
X213264545Y-135031022D01*
X213298028Y-135038327D01*
X213327338Y-135042475D01*
X213356106Y-135044432D01*
X213387966Y-135045169D01*
X213393716Y-135045248D01*
X213450178Y-135046439D01*
X213501764Y-135048174D01*
X213537946Y-135050107D01*
X213570213Y-135051697D01*
X213620914Y-135052821D01*
X213674881Y-135052972D01*
X213722143Y-135053557D01*
X213774485Y-135056192D01*
X213813158Y-135060304D01*
X213849779Y-135064047D01*
X213870560Y-135057493D01*
X213870237Y-135037137D01*
X213850263Y-135000645D01*
X213848050Y-134997179D01*
X213824870Y-134958293D01*
X213796480Y-134907478D01*
X213768518Y-134854789D01*
X213754018Y-134828102D01*
X213718259Y-134768340D01*
X213676284Y-134703551D01*
X213634436Y-134643720D01*
X213627959Y-134634886D01*
X213576465Y-134563053D01*
X213539606Y-134507525D01*
X213515731Y-134464935D01*
X213503186Y-134431918D01*
X213502932Y-134429540D01*
X213636694Y-134429540D01*
X213731002Y-134557718D01*
X213763379Y-134603139D01*
X213807293Y-134668539D01*
X213846838Y-134731371D01*
X213876236Y-134782685D01*
X213876581Y-134783340D01*
X213909506Y-134843618D01*
X213946836Y-134908643D01*
X213980560Y-134964451D01*
X213996807Y-134989386D01*
X214032365Y-135034098D01*
X214067105Y-135059019D01*
X214106824Y-135067358D01*
X214157315Y-135062324D01*
X214181737Y-135056983D01*
X214258432Y-135032728D01*
X214340980Y-134998078D01*
X214419116Y-134957647D01*
X214445259Y-134940512D01*
X214709659Y-134940512D01*
X214718311Y-134953563D01*
X214724980Y-134953358D01*
X214737409Y-134939003D01*
X214738824Y-134929662D01*
X214736641Y-134928143D01*
X215157946Y-134928143D01*
X215159034Y-134933213D01*
X215182463Y-134929329D01*
X215193668Y-134925208D01*
X215191787Y-134921227D01*
X215213008Y-134921227D01*
X215214733Y-134926994D01*
X215229315Y-134930382D01*
X215246022Y-134925026D01*
X215249187Y-134919790D01*
X215236300Y-134916065D01*
X215225413Y-134916880D01*
X215213008Y-134921227D01*
X215191787Y-134921227D01*
X215190595Y-134918703D01*
X215186197Y-134917570D01*
X215164187Y-134922677D01*
X215157946Y-134928143D01*
X214736641Y-134928143D01*
X214729398Y-134923104D01*
X214725163Y-134924387D01*
X214710301Y-134937664D01*
X214709659Y-134940512D01*
X214445259Y-134940512D01*
X214482574Y-134916055D01*
X214482982Y-134915759D01*
X215270324Y-134915759D01*
X215276401Y-134921009D01*
X215293430Y-134912395D01*
X215295837Y-134909861D01*
X215320629Y-134909861D01*
X215324377Y-134910474D01*
X215349363Y-134906863D01*
X215387622Y-134896534D01*
X215430964Y-134881907D01*
X215471204Y-134865398D01*
X215475282Y-134863476D01*
X215493351Y-134852851D01*
X215490162Y-134849590D01*
X215468918Y-134853711D01*
X215432813Y-134865223D01*
X215423767Y-134868434D01*
X215380372Y-134883187D01*
X215344436Y-134894533D01*
X215343516Y-134894804D01*
X215322458Y-134903491D01*
X215320629Y-134909861D01*
X215295837Y-134909861D01*
X215298872Y-134906665D01*
X215290011Y-134905066D01*
X215283230Y-134906858D01*
X215270825Y-134914012D01*
X215270324Y-134915759D01*
X214482982Y-134915759D01*
X214520767Y-134888338D01*
X214527244Y-134884082D01*
X214802742Y-134884082D01*
X214817730Y-134892074D01*
X214830417Y-134894482D01*
X214827771Y-134887392D01*
X214821434Y-134882881D01*
X214804069Y-134879854D01*
X214802742Y-134884082D01*
X214527244Y-134884082D01*
X214578994Y-134850077D01*
X214599477Y-134838083D01*
X215505915Y-134838083D01*
X215515910Y-134840117D01*
X215539207Y-134831514D01*
X215568731Y-134814658D01*
X215578977Y-134807205D01*
X215576472Y-134805260D01*
X215551620Y-134814286D01*
X215545048Y-134816940D01*
X215518002Y-134828844D01*
X215506287Y-134835730D01*
X215505915Y-134838083D01*
X214599477Y-134838083D01*
X214632394Y-134818808D01*
X214653192Y-134807355D01*
X214671953Y-134795313D01*
X214945792Y-134795313D01*
X214957806Y-134803047D01*
X214987992Y-134806989D01*
X215040212Y-134808382D01*
X215059035Y-134808314D01*
X215198312Y-134795367D01*
X215286482Y-134774785D01*
X215616609Y-134774785D01*
X215619535Y-134784857D01*
X215626389Y-134782825D01*
X215651466Y-134768374D01*
X215690513Y-134742624D01*
X215739535Y-134708382D01*
X215794545Y-134668462D01*
X215851552Y-134625667D01*
X215906565Y-134582809D01*
X215911804Y-134578194D01*
X215937481Y-134545522D01*
X215957519Y-134505809D01*
X215958948Y-134501868D01*
X215964978Y-134483316D01*
X215964778Y-134474712D01*
X215955801Y-134477606D01*
X215935500Y-134493546D01*
X215901332Y-134524081D01*
X215850751Y-134570759D01*
X215847543Y-134573731D01*
X215796149Y-134620818D01*
X215747712Y-134664343D01*
X215707549Y-134699579D01*
X215680975Y-134721795D01*
X215670521Y-134730011D01*
X215640974Y-134753385D01*
X215622092Y-134768539D01*
X215616609Y-134774785D01*
X215286482Y-134774785D01*
X215342647Y-134761674D01*
X215485174Y-134708769D01*
X215510744Y-134693919D01*
X215548037Y-134667957D01*
X215591345Y-134635332D01*
X215635234Y-134600375D01*
X215674269Y-134567417D01*
X215703014Y-134540789D01*
X215716035Y-134524821D01*
X215722040Y-134517029D01*
X215744152Y-134496428D01*
X215776070Y-134470495D01*
X215795618Y-134454211D01*
X215839235Y-134411549D01*
X215876474Y-134367852D01*
X215899177Y-134337501D01*
X215937336Y-134286724D01*
X215973685Y-134238578D01*
X216026389Y-134168992D01*
X216025669Y-134087168D01*
X216025388Y-134071256D01*
X216022382Y-134034646D01*
X216015240Y-134020354D01*
X216002772Y-134028889D01*
X215983789Y-134060760D01*
X215957095Y-134116479D01*
X215943715Y-134144183D01*
X215877661Y-134252703D01*
X215793180Y-134358204D01*
X215694224Y-134457659D01*
X215584742Y-134548033D01*
X215468688Y-134626299D01*
X215350011Y-134689423D01*
X215232663Y-134734376D01*
X215120595Y-134758127D01*
X215105599Y-134759733D01*
X215053694Y-134764132D01*
X215011572Y-134765998D01*
X214987199Y-134764925D01*
X214984939Y-134764986D01*
X214970803Y-134765367D01*
X214949908Y-134779305D01*
X214948090Y-134782542D01*
X214945792Y-134795313D01*
X214671953Y-134795313D01*
X214717046Y-134766370D01*
X214762282Y-134727209D01*
X214785728Y-134692480D01*
X214786900Y-134685270D01*
X214776373Y-134655797D01*
X214746618Y-134616869D01*
X214700207Y-134570885D01*
X214639715Y-134520232D01*
X214567715Y-134467305D01*
X214486780Y-134414498D01*
X214451247Y-134394721D01*
X214398365Y-134367985D01*
X214335839Y-134338129D01*
X214270862Y-134308680D01*
X214116963Y-134240971D01*
X214006028Y-134278116D01*
X213979043Y-134287478D01*
X213909696Y-134313356D01*
X213834610Y-134343248D01*
X213765895Y-134372401D01*
X213636694Y-134429540D01*
X213502932Y-134429540D01*
X213500318Y-134405107D01*
X213505474Y-134381135D01*
X213508264Y-134374604D01*
X213523544Y-134353571D01*
X213550368Y-134331660D01*
X213591359Y-134307440D01*
X213649138Y-134279482D01*
X213726330Y-134246356D01*
X213825558Y-134206631D01*
X213954946Y-134155979D01*
X213886509Y-134113975D01*
X213773804Y-134034811D01*
X213665735Y-133935071D01*
X213566822Y-133816103D01*
X213474002Y-133674644D01*
X213457979Y-133648183D01*
X213435307Y-133612889D01*
X213419489Y-133590865D01*
X213415608Y-133585447D01*
X213399690Y-133559154D01*
X213376836Y-133518727D01*
X213350438Y-133470423D01*
X213323889Y-133420500D01*
X213300580Y-133375215D01*
X213283906Y-133340823D01*
X213275614Y-133325019D01*
X213256939Y-133291157D01*
X213230925Y-133244781D01*
X213200443Y-133191044D01*
X213171882Y-133140497D01*
X213145612Y-133093059D01*
X213126580Y-133057629D01*
X213117643Y-133039437D01*
X213113038Y-133030088D01*
X213095101Y-133000556D01*
X213068674Y-132960421D01*
X213038253Y-132916170D01*
X213008335Y-132874289D01*
X212983418Y-132841265D01*
X212967998Y-132823585D01*
X212966844Y-132822706D01*
X212944446Y-132812625D01*
X212905277Y-132799957D01*
X212857051Y-132787227D01*
X212824465Y-132779595D01*
X212786565Y-132771260D01*
X212748902Y-132763928D01*
X212704996Y-132756445D01*
X212648370Y-132747649D01*
X212572546Y-132736384D01*
X212462093Y-132716940D01*
X212353870Y-132690055D01*
X212265512Y-132658734D01*
X212199983Y-132623872D01*
X212166134Y-132598810D01*
X212096886Y-132537266D01*
X212030833Y-132466453D01*
X211974469Y-132393650D01*
X211934290Y-132326140D01*
X211917410Y-132289176D01*
X212066117Y-132289176D01*
X212086724Y-132327331D01*
X212089260Y-132331688D01*
X212111223Y-132361883D01*
X212144455Y-132401239D01*
X212182819Y-132442407D01*
X212198007Y-132457755D01*
X212235007Y-132492489D01*
X212267456Y-132515868D01*
X212304825Y-132533899D01*
X212356585Y-132552587D01*
X212386685Y-132562272D01*
X212456889Y-132581305D01*
X212538465Y-132598666D01*
X212636260Y-132615317D01*
X212755114Y-132632228D01*
X212831756Y-132646029D01*
X212910152Y-132666866D01*
X212981731Y-132692198D01*
X213040153Y-132719772D01*
X213079082Y-132747334D01*
X213095961Y-132766414D01*
X213131558Y-132815204D01*
X213176385Y-132884483D01*
X213229344Y-132972403D01*
X213289333Y-133077116D01*
X213355251Y-133196775D01*
X213425996Y-133329531D01*
X213436394Y-133349333D01*
X213465181Y-133404100D01*
X213492178Y-133455396D01*
X213497827Y-133465960D01*
X213532789Y-133526958D01*
X213574505Y-133594429D01*
X213618199Y-133661052D01*
X213659099Y-133719507D01*
X213692433Y-133762475D01*
X213705127Y-133777742D01*
X213730408Y-133810461D01*
X213746033Y-133833931D01*
X213773247Y-133868117D01*
X213823312Y-133910950D01*
X213893525Y-133960053D01*
X213981738Y-134014115D01*
X214085799Y-134071819D01*
X214203558Y-134131852D01*
X214332871Y-134192897D01*
X214357866Y-134204347D01*
X214453050Y-134250145D01*
X214534089Y-134293683D01*
X214609478Y-134339759D01*
X214687714Y-134393167D01*
X214694830Y-134398323D01*
X214737890Y-134432564D01*
X214784007Y-134473284D01*
X214828552Y-134515906D01*
X214866898Y-134555857D01*
X214894413Y-134588558D01*
X214906473Y-134609433D01*
X214908901Y-134616237D01*
X214919066Y-134624231D01*
X214942432Y-134630423D01*
X214985302Y-134637018D01*
X214994149Y-134638153D01*
X215081856Y-134640119D01*
X215172166Y-134624396D01*
X215269302Y-134589896D01*
X215377483Y-134535523D01*
X215508725Y-134451424D01*
X215635819Y-134345526D01*
X215743525Y-134227378D01*
X215829874Y-134099169D01*
X215892892Y-133963088D01*
X215915084Y-133873225D01*
X215921411Y-133766024D01*
X215909655Y-133653682D01*
X215906808Y-133616315D01*
X215913169Y-133594909D01*
X216134694Y-133594909D01*
X216136265Y-133656132D01*
X216144543Y-133731353D01*
X216149447Y-133772270D01*
X216154036Y-133826937D01*
X216155275Y-133869586D01*
X216152815Y-133893418D01*
X216148634Y-133918448D01*
X216152079Y-133954700D01*
X216155329Y-133977825D01*
X216158086Y-134021978D01*
X216159180Y-134060008D01*
X216159737Y-134079400D01*
X216160005Y-134143478D01*
X216159808Y-134196323D01*
X216160419Y-134217775D01*
X216161314Y-134249235D01*
X216166475Y-134291145D01*
X216177086Y-134330525D01*
X216194939Y-134375856D01*
X216221829Y-134435610D01*
X216258390Y-134509798D01*
X216301891Y-134581696D01*
X216345901Y-134635510D01*
X216393217Y-134688753D01*
X216446345Y-134770572D01*
X216480405Y-134860569D01*
X216498786Y-134966071D01*
X216502381Y-134997433D01*
X216515323Y-135068723D01*
X216536394Y-135136851D01*
X216569037Y-135213970D01*
X216582747Y-135243895D01*
X216613010Y-135311369D01*
X216641667Y-135376891D01*
X216663988Y-135429711D01*
X216690885Y-135485056D01*
X216728161Y-135547718D01*
X216766826Y-135602080D01*
X216769056Y-135604870D01*
X216805718Y-135653968D01*
X216839562Y-135704465D01*
X216863521Y-135745848D01*
X216869017Y-135756830D01*
X216896792Y-135811807D01*
X216917019Y-135850145D01*
X216933000Y-135877562D01*
X216948033Y-135899781D01*
X216965416Y-135922522D01*
X216972108Y-135931433D01*
X216993045Y-135965756D01*
X217003456Y-135993427D01*
X217006959Y-136005035D01*
X217023187Y-136036789D01*
X217047660Y-136075406D01*
X217075201Y-136113486D01*
X217100637Y-136143622D01*
X217118793Y-136158417D01*
X217123963Y-136161389D01*
X217144724Y-136180489D01*
X217169678Y-136209656D01*
X217180434Y-136222407D01*
X217218762Y-136259588D01*
X217260272Y-136291707D01*
X217265341Y-136295050D01*
X217321183Y-136332095D01*
X217361155Y-136359267D01*
X217390731Y-136380483D01*
X217415393Y-136399663D01*
X217440615Y-136420726D01*
X217497461Y-136460936D01*
X217567099Y-136493875D01*
X217653609Y-136520924D01*
X217761466Y-136543799D01*
X217793633Y-136549775D01*
X217877454Y-136566927D01*
X217964405Y-136586450D01*
X218040107Y-136605178D01*
X218049782Y-136607732D01*
X218108555Y-136622559D01*
X218149716Y-136630675D01*
X218179680Y-136632563D01*
X218204861Y-136628704D01*
X218231671Y-136619580D01*
X218243995Y-136615013D01*
X218289725Y-136600929D01*
X218328580Y-136592632D01*
X218354956Y-136583177D01*
X218382753Y-136562606D01*
X218401910Y-136538443D01*
X218404993Y-136517959D01*
X218399689Y-136517148D01*
X218375901Y-136521818D01*
X218340058Y-136532463D01*
X218283056Y-136549006D01*
X218233724Y-136555630D01*
X218186352Y-136550750D01*
X218133024Y-136533517D01*
X218065818Y-136503083D01*
X218048848Y-136494717D01*
X217985486Y-136461882D01*
X217922925Y-136427434D01*
X217872548Y-136397588D01*
X217782206Y-136341257D01*
X217687577Y-136283856D01*
X217608268Y-136237919D01*
X217541007Y-136201563D01*
X217482524Y-136172903D01*
X217422252Y-136145009D01*
X217377922Y-136123905D01*
X217345734Y-136107323D01*
X217319890Y-136092078D01*
X217294595Y-136074988D01*
X217264053Y-136052867D01*
X217244018Y-136037880D01*
X217179760Y-135983660D01*
X217125827Y-135925677D01*
X217078258Y-135858536D01*
X217033084Y-135776849D01*
X216986341Y-135675220D01*
X216972147Y-135642057D01*
X216945026Y-135577442D01*
X216922105Y-135521206D01*
X216905453Y-135478472D01*
X216897138Y-135454366D01*
X216895397Y-135448236D01*
X216881902Y-135410105D01*
X216864370Y-135368939D01*
X216856269Y-135350862D01*
X216836259Y-135301967D01*
X216817826Y-135252292D01*
X216806487Y-135225593D01*
X216776478Y-135173830D01*
X216741705Y-135129004D01*
X216735772Y-135122544D01*
X216703066Y-135082706D01*
X216672005Y-135038936D01*
X216646321Y-134997206D01*
X216629741Y-134963486D01*
X216625997Y-134943747D01*
X216626521Y-134938806D01*
X216623552Y-134913369D01*
X216615766Y-134877083D01*
X216612557Y-134862756D01*
X216607706Y-134824882D01*
X216609553Y-134799378D01*
X216610533Y-134795643D01*
X216609553Y-134766670D01*
X216600179Y-134730360D01*
X216597105Y-134721657D01*
X216588125Y-134691011D01*
X216586147Y-134674137D01*
X216585277Y-134664101D01*
X216576703Y-134633532D01*
X216561502Y-134588882D01*
X216541859Y-134535820D01*
X216519954Y-134480020D01*
X216497972Y-134427150D01*
X216478096Y-134382883D01*
X216462506Y-134352891D01*
X216414246Y-134268917D01*
X216367317Y-134171766D01*
X216330759Y-134072552D01*
X216299962Y-133960150D01*
X216296225Y-133944482D01*
X216282085Y-133883173D01*
X216271085Y-133832246D01*
X216264257Y-133796629D01*
X216262630Y-133781253D01*
X216263822Y-133772327D01*
X216264835Y-133742904D01*
X216264717Y-133713783D01*
X216400832Y-133713783D01*
X216413385Y-133831881D01*
X216438409Y-133952650D01*
X216474080Y-134067270D01*
X216518566Y-134166920D01*
X216541929Y-134210857D01*
X216583869Y-134293475D01*
X216623035Y-134375138D01*
X216657858Y-134452192D01*
X216686767Y-134520983D01*
X216708193Y-134577854D01*
X216720563Y-134619150D01*
X216722310Y-134641217D01*
X216722080Y-134644150D01*
X216726007Y-134666045D01*
X216735301Y-134699555D01*
X216737824Y-134708411D01*
X216747076Y-134758339D01*
X216750525Y-134808572D01*
X216750501Y-134812050D01*
X216757653Y-134889415D01*
X216781764Y-134953355D01*
X216825868Y-135012072D01*
X216853361Y-135042178D01*
X216905633Y-135106362D01*
X216939032Y-135160360D01*
X216955507Y-135207099D01*
X216958538Y-135220637D01*
X216971627Y-135265180D01*
X216993055Y-135326031D01*
X217023501Y-135404977D01*
X217063645Y-135503808D01*
X217114167Y-135624306D01*
X217122173Y-135643009D01*
X217161741Y-135728426D01*
X217201261Y-135797940D01*
X217244821Y-135855617D01*
X217296510Y-135905532D01*
X217360423Y-135951755D01*
X217440645Y-135998357D01*
X217541270Y-136049409D01*
X217571781Y-136064619D01*
X217644024Y-136102624D01*
X217716376Y-136142898D01*
X217776985Y-136178930D01*
X217793145Y-136188991D01*
X217854845Y-136226878D01*
X217917310Y-136264587D01*
X217969210Y-136295256D01*
X218017356Y-136322051D01*
X218083338Y-136356491D01*
X218143278Y-136385650D01*
X218175634Y-136400353D01*
X218211059Y-136414236D01*
X218237909Y-136418909D01*
X218265164Y-136415467D01*
X218301807Y-136405009D01*
X218364975Y-136383618D01*
X218412419Y-136361695D01*
X218439696Y-136339726D01*
X218449718Y-136315961D01*
X218450375Y-136307525D01*
X218448243Y-136296273D01*
X218436907Y-136291421D01*
X218410825Y-136291650D01*
X218364465Y-136295639D01*
X218328090Y-136298452D01*
X218297005Y-136298388D01*
X218265935Y-136294128D01*
X218228817Y-136284421D01*
X218179583Y-136268017D01*
X218112167Y-136243670D01*
X218105011Y-136241036D01*
X218039148Y-136215600D01*
X217978317Y-136190140D01*
X217929015Y-136167482D01*
X217897735Y-136150448D01*
X217879538Y-136138759D01*
X217831896Y-136109807D01*
X217784438Y-136082634D01*
X217739892Y-136057334D01*
X217674871Y-136017784D01*
X217614899Y-135978507D01*
X217565932Y-135943449D01*
X217533932Y-135916563D01*
X217530340Y-135912789D01*
X217504580Y-135877398D01*
X217483587Y-135836613D01*
X217479219Y-135826419D01*
X217462118Y-135796264D01*
X217446687Y-135781036D01*
X217430016Y-135765975D01*
X217404817Y-135730588D01*
X217373533Y-135678843D01*
X217338190Y-135614573D01*
X217300818Y-135541608D01*
X217263442Y-135463782D01*
X217228093Y-135384925D01*
X217196797Y-135308870D01*
X217195425Y-135305388D01*
X217176111Y-135260966D01*
X217150142Y-135206780D01*
X217120076Y-135147567D01*
X217088477Y-135088051D01*
X217057904Y-135032970D01*
X217030920Y-134987048D01*
X217010085Y-134955020D01*
X216997960Y-134941615D01*
X216990500Y-134933396D01*
X216973348Y-134905703D01*
X216950415Y-134863472D01*
X216924576Y-134811790D01*
X216918483Y-134799187D01*
X216878340Y-134719909D01*
X216842475Y-134657383D01*
X216806782Y-134604937D01*
X216767160Y-134555904D01*
X216746511Y-134525960D01*
X216719656Y-134473810D01*
X216694275Y-134412798D01*
X216674068Y-134351978D01*
X216662734Y-134300408D01*
X216656177Y-134268888D01*
X216642496Y-134221044D01*
X216625189Y-134170413D01*
X216624521Y-134168620D01*
X216609432Y-134125027D01*
X216599752Y-134091140D01*
X216597552Y-134074161D01*
X216597338Y-134062805D01*
X216591464Y-134032089D01*
X216580756Y-133991316D01*
X216570611Y-133949670D01*
X216558801Y-133877298D01*
X216550717Y-133796869D01*
X216546637Y-133715078D01*
X216546679Y-133699658D01*
X216684679Y-133699658D01*
X216685252Y-133757257D01*
X216691179Y-133800737D01*
X216695152Y-133823554D01*
X216693909Y-133847334D01*
X216693468Y-133849214D01*
X216694854Y-133872935D01*
X216701853Y-133913971D01*
X216713002Y-133965884D01*
X216726830Y-134022235D01*
X216741868Y-134076585D01*
X216756651Y-134122495D01*
X216762548Y-134139993D01*
X216777957Y-134192853D01*
X216790688Y-134245268D01*
X216803717Y-134299189D01*
X216839499Y-134400547D01*
X216885108Y-134481129D01*
X216896256Y-134496832D01*
X216915248Y-134525534D01*
X216924051Y-134541855D01*
X216932485Y-134556309D01*
X216951682Y-134579667D01*
X216959295Y-134588890D01*
X216982054Y-134623079D01*
X217004028Y-134663304D01*
X217008383Y-134672250D01*
X217062051Y-134777612D01*
X217111418Y-134864419D01*
X217159736Y-134938406D01*
X217161379Y-134940769D01*
X217187440Y-134983059D01*
X217219299Y-135041345D01*
X217253076Y-135108247D01*
X217284890Y-135176389D01*
X217296470Y-135202331D01*
X217352867Y-135326960D01*
X217401144Y-135430199D01*
X217442504Y-135514343D01*
X217478150Y-135581685D01*
X217509288Y-135634514D01*
X217537118Y-135675125D01*
X217562845Y-135705810D01*
X217564395Y-135707470D01*
X217593996Y-135746473D01*
X217617221Y-135788412D01*
X217618313Y-135790916D01*
X217646249Y-135831518D01*
X217693017Y-135864485D01*
X217707828Y-135872800D01*
X217751257Y-135900138D01*
X217786270Y-135925963D01*
X217803290Y-135938825D01*
X217844614Y-135965077D01*
X217889651Y-135989362D01*
X217917428Y-136003293D01*
X217951209Y-136021639D01*
X217970099Y-136033778D01*
X217983273Y-136037541D01*
X218006591Y-136028390D01*
X218012989Y-136024989D01*
X218043964Y-136017105D01*
X218090505Y-136010931D01*
X218145217Y-136007577D01*
X218163060Y-136006928D01*
X218222548Y-136002845D01*
X218275587Y-135996606D01*
X218312437Y-135989273D01*
X218354048Y-135973695D01*
X218423218Y-135938451D01*
X218498032Y-135891809D01*
X218571474Y-135838247D01*
X218636533Y-135782244D01*
X218722511Y-135700380D01*
X218760065Y-135565673D01*
X218775673Y-135507595D01*
X218785998Y-135460393D01*
X218789889Y-135423170D01*
X218788101Y-135388208D01*
X218781394Y-135347793D01*
X218778110Y-135331637D01*
X218759969Y-135266000D01*
X218734350Y-135216397D01*
X218695824Y-135174625D01*
X218638969Y-135132478D01*
X218623965Y-135122314D01*
X218563863Y-135078238D01*
X218504237Y-135029949D01*
X218450369Y-134982084D01*
X218407543Y-134939276D01*
X218381045Y-134906164D01*
X218359984Y-134879814D01*
X218338022Y-134863642D01*
X218335590Y-134862534D01*
X218315927Y-134841222D01*
X218294319Y-134800592D01*
X218272735Y-134746157D01*
X218253145Y-134683438D01*
X218237524Y-134617949D01*
X218227838Y-134555210D01*
X218226923Y-134545795D01*
X218343676Y-134545795D01*
X218348581Y-134636603D01*
X218355756Y-134676147D01*
X218366555Y-134711021D01*
X218383827Y-134743485D01*
X218410815Y-134778426D01*
X218450767Y-134820738D01*
X218506922Y-134875311D01*
X218541003Y-134907334D01*
X218607449Y-134966053D01*
X218658970Y-135005682D01*
X218695090Y-135025879D01*
X218715334Y-135026298D01*
X218719874Y-135010823D01*
X218721118Y-134976769D01*
X218718534Y-134931986D01*
X218712246Y-134866734D01*
X218818509Y-134866734D01*
X218825885Y-134887302D01*
X218844623Y-134887404D01*
X218846274Y-134886900D01*
X218867499Y-134889333D01*
X218899088Y-134899664D01*
X218942202Y-134917218D01*
X218952660Y-134862760D01*
X218954475Y-134851454D01*
X218956125Y-134810473D01*
X218950503Y-134779786D01*
X218948272Y-134774846D01*
X218937939Y-134759486D01*
X218921288Y-134755851D01*
X218888862Y-134761070D01*
X218883972Y-134762070D01*
X218853775Y-134771475D01*
X218837198Y-134788790D01*
X218825153Y-134822826D01*
X218823494Y-134829000D01*
X218818509Y-134866734D01*
X218712246Y-134866734D01*
X218710314Y-134846687D01*
X218662447Y-134837621D01*
X218660967Y-134837326D01*
X218614796Y-134816201D01*
X218563500Y-134771959D01*
X218508832Y-134706409D01*
X218452547Y-134621358D01*
X218445967Y-134610305D01*
X218427839Y-134576668D01*
X219063942Y-134576668D01*
X219066382Y-134596939D01*
X219076252Y-134627903D01*
X219092344Y-134668985D01*
X219151156Y-134659039D01*
X219163328Y-134656726D01*
X219203492Y-134642096D01*
X219225630Y-134617878D01*
X219228247Y-134612283D01*
X219237233Y-134572493D01*
X219230428Y-134538425D01*
X219209208Y-134518429D01*
X219208915Y-134518326D01*
X219185299Y-134519184D01*
X219149703Y-134529036D01*
X219111441Y-134544197D01*
X219079834Y-134560986D01*
X219064197Y-134575723D01*
X219063942Y-134576668D01*
X218427839Y-134576668D01*
X218423613Y-134568827D01*
X218411899Y-134533956D01*
X218408299Y-134494908D01*
X218410290Y-134440894D01*
X218410742Y-134433910D01*
X218415778Y-134382722D01*
X218422713Y-134340274D01*
X218430190Y-134315154D01*
X218443239Y-134302022D01*
X218480126Y-134281367D01*
X218535127Y-134258937D01*
X218603949Y-134236252D01*
X218682300Y-134214833D01*
X218765887Y-134196200D01*
X218767306Y-134195921D01*
X218823621Y-134185478D01*
X218864814Y-134181019D01*
X218900817Y-134183099D01*
X218941560Y-134192269D01*
X218996974Y-134209085D01*
X219111089Y-134245056D01*
X219205010Y-134351974D01*
X219233461Y-134385083D01*
X219274033Y-134434704D01*
X219307662Y-134478604D01*
X219329079Y-134510067D01*
X219335872Y-134521766D01*
X219347914Y-134547100D01*
X219350742Y-134570263D01*
X219344330Y-134600047D01*
X219328650Y-134645246D01*
X219327499Y-134648407D01*
X219298075Y-134729252D01*
X219216777Y-134753593D01*
X219176290Y-134765100D01*
X219132441Y-134776196D01*
X219102924Y-134782077D01*
X219095621Y-134783246D01*
X219080330Y-134789567D01*
X219067498Y-134804812D01*
X219053608Y-134834213D01*
X219035141Y-134883014D01*
X219013276Y-134943086D01*
X218999910Y-134979809D01*
X218945506Y-134987127D01*
X218939523Y-134987993D01*
X218889441Y-134998404D01*
X218843238Y-135012215D01*
X218830117Y-135017152D01*
X218807362Y-135027971D01*
X218802951Y-135039041D01*
X218812355Y-135056924D01*
X218816060Y-135062573D01*
X218831760Y-135079883D01*
X218853797Y-135090366D01*
X218888700Y-135096143D01*
X218942999Y-135099332D01*
X218983758Y-135100020D01*
X219115211Y-135088831D01*
X219234832Y-135057739D01*
X219340781Y-135008025D01*
X219431218Y-134940969D01*
X219504306Y-134857849D01*
X219558204Y-134759945D01*
X219591071Y-134648539D01*
X219597338Y-134614559D01*
X219604738Y-134569561D01*
X219606504Y-134538938D01*
X219601824Y-134515503D01*
X219589883Y-134492073D01*
X219569868Y-134461464D01*
X219533326Y-134411414D01*
X219469313Y-134338868D01*
X219387378Y-134260220D01*
X219284859Y-134172773D01*
X219280476Y-134169197D01*
X219228606Y-134127315D01*
X219189230Y-134097697D01*
X219155299Y-134076441D01*
X219119759Y-134059645D01*
X219075558Y-134043410D01*
X219015648Y-134023833D01*
X218872649Y-133977849D01*
X218757018Y-134014134D01*
X218738756Y-134019693D01*
X218675559Y-134036843D01*
X218614891Y-134050628D01*
X218592749Y-134054312D01*
X218567736Y-134058475D01*
X218564145Y-134058869D01*
X218523646Y-134064713D01*
X218497760Y-134074975D01*
X218477229Y-134095631D01*
X218459298Y-134122803D01*
X218452796Y-134132654D01*
X218442258Y-134150559D01*
X218403509Y-134236638D01*
X218372952Y-134337048D01*
X218352404Y-134443022D01*
X218343676Y-134545795D01*
X218226923Y-134545795D01*
X218225568Y-134531864D01*
X218222310Y-134478975D01*
X218224665Y-134437439D01*
X218233791Y-134396717D01*
X218250849Y-134346268D01*
X218254893Y-134335023D01*
X218270599Y-134286065D01*
X218275527Y-134257198D01*
X218270200Y-134245713D01*
X218266281Y-134245476D01*
X218241869Y-134251921D01*
X218203053Y-134267096D01*
X218156228Y-134288596D01*
X218103212Y-134311919D01*
X218009069Y-134338165D01*
X217912773Y-134343582D01*
X217806598Y-134329061D01*
X217769701Y-134320676D01*
X217724945Y-134307122D01*
X217689426Y-134289757D01*
X217652958Y-134264293D01*
X217628998Y-134244402D01*
X217559654Y-134168885D01*
X217492739Y-134068392D01*
X217427944Y-133942473D01*
X217412287Y-133907456D01*
X217388194Y-133844197D01*
X217376650Y-133793117D01*
X217490709Y-133793117D01*
X217497191Y-133828152D01*
X217511911Y-133867923D01*
X217536615Y-133921626D01*
X217544726Y-133938213D01*
X217577194Y-133998257D01*
X217612102Y-134055294D01*
X217643174Y-134098884D01*
X217659019Y-134117841D01*
X217693080Y-134152001D01*
X217730926Y-134177495D01*
X217783153Y-134202139D01*
X217840006Y-134222845D01*
X217896959Y-134233073D01*
X217954689Y-134229716D01*
X218019991Y-134212312D01*
X218099663Y-134180390D01*
X218166070Y-134148932D01*
X218220304Y-134116856D01*
X218255215Y-134086412D01*
X218273950Y-134055341D01*
X218278499Y-134037509D01*
X218272840Y-134022114D01*
X218249987Y-134012873D01*
X218205569Y-134006678D01*
X218142620Y-134000335D01*
X218158685Y-134034787D01*
X218174750Y-134069238D01*
X218161763Y-134081335D01*
X218131253Y-134109758D01*
X218097159Y-134134728D01*
X218048655Y-134159381D01*
X217996842Y-134178045D01*
X217949941Y-134187814D01*
X217916174Y-134185782D01*
X217895531Y-134171502D01*
X217875939Y-134143055D01*
X217862848Y-134121942D01*
X217840557Y-134111187D01*
X217807643Y-134111604D01*
X217762915Y-134104056D01*
X217724655Y-134082437D01*
X217683190Y-134042527D01*
X217681778Y-134040875D01*
X217934369Y-134040875D01*
X217934502Y-134043517D01*
X217938301Y-134071623D01*
X217944459Y-134083815D01*
X217957429Y-134085847D01*
X217985201Y-134090486D01*
X218024076Y-134090225D01*
X218060724Y-134076452D01*
X218081898Y-134052267D01*
X218082994Y-134048802D01*
X218079827Y-134026264D01*
X218055753Y-134005665D01*
X218008324Y-133984757D01*
X217987957Y-133978539D01*
X217955305Y-133978580D01*
X217938106Y-133998856D01*
X217934369Y-134040875D01*
X217681778Y-134040875D01*
X217664093Y-134020182D01*
X217619476Y-133950788D01*
X217591638Y-133878471D01*
X217587056Y-133848220D01*
X218016553Y-133848220D01*
X218046319Y-133880527D01*
X218062741Y-133895897D01*
X218100919Y-133919014D01*
X218139317Y-133929525D01*
X218171175Y-133926155D01*
X218189735Y-133907627D01*
X218189786Y-133887512D01*
X218176049Y-133854850D01*
X218152268Y-133823242D01*
X218124329Y-133802176D01*
X218112004Y-133797567D01*
X218084832Y-133798137D01*
X218053829Y-133817720D01*
X218016553Y-133848220D01*
X217587056Y-133848220D01*
X217580886Y-133807484D01*
X217587533Y-133742082D01*
X217611887Y-133686517D01*
X217654259Y-133645046D01*
X217671109Y-133635446D01*
X217734184Y-133613521D01*
X217805327Y-133604760D01*
X217876808Y-133608930D01*
X217940890Y-133625802D01*
X217989842Y-133655141D01*
X218014166Y-133674855D01*
X218035707Y-133680622D01*
X218065360Y-133673474D01*
X218072021Y-133671446D01*
X218104078Y-133668234D01*
X218133547Y-133679925D01*
X218164984Y-133709366D01*
X218202949Y-133759404D01*
X218223718Y-133788464D01*
X218243743Y-133814760D01*
X218253881Y-133825771D01*
X218255542Y-133826251D01*
X218263726Y-133818356D01*
X218260751Y-133791310D01*
X218246946Y-133748775D01*
X218216395Y-133691806D01*
X218155188Y-133625413D01*
X218069535Y-133567058D01*
X218035703Y-133549494D01*
X218003550Y-133536838D01*
X217966853Y-133527851D01*
X217918496Y-133520802D01*
X217851367Y-133513958D01*
X217794250Y-133509073D01*
X217724300Y-133505263D01*
X217672807Y-133506441D01*
X217635437Y-133513114D01*
X217607856Y-133525787D01*
X217585727Y-133544968D01*
X217584493Y-133546293D01*
X217556149Y-133571608D01*
X217530650Y-133586993D01*
X217524923Y-133589394D01*
X217514447Y-133598499D01*
X217507126Y-133616828D01*
X217501266Y-133649925D01*
X217495181Y-133703338D01*
X217490719Y-133753621D01*
X217490709Y-133793117D01*
X217376650Y-133793117D01*
X217375609Y-133788511D01*
X217373921Y-133732434D01*
X217382525Y-133667998D01*
X217400810Y-133587237D01*
X217409071Y-133556040D01*
X217420937Y-133522901D01*
X217434911Y-133503251D01*
X217455097Y-133489714D01*
X217483528Y-133472279D01*
X217516292Y-133446926D01*
X217528527Y-133436790D01*
X217563055Y-133412323D01*
X217603154Y-133387295D01*
X217610876Y-133382839D01*
X217642658Y-133366659D01*
X217669432Y-133360566D01*
X217701128Y-133363740D01*
X217747677Y-133375363D01*
X217787664Y-133385009D01*
X217855766Y-133397999D01*
X217917855Y-133406411D01*
X217948667Y-133410066D01*
X217999082Y-133420473D01*
X218053252Y-133438384D01*
X218120505Y-133466568D01*
X218145794Y-133477861D01*
X218191533Y-133499372D01*
X218223033Y-133517965D01*
X218246938Y-133538979D01*
X218269896Y-133567756D01*
X218298552Y-133609633D01*
X218333225Y-133666383D01*
X218360629Y-133729378D01*
X218378573Y-133800571D01*
X218379815Y-133807258D01*
X218388164Y-133860291D01*
X218393128Y-133906769D01*
X218393674Y-133937293D01*
X218393081Y-133956552D01*
X218403143Y-133983383D01*
X218429273Y-133990311D01*
X218472148Y-133977683D01*
X218482490Y-133973400D01*
X218525097Y-133958753D01*
X218560444Y-133950577D01*
X218580076Y-133946784D01*
X218621970Y-133935380D01*
X218668112Y-133920126D01*
X218670604Y-133919237D01*
X218721101Y-133904713D01*
X218783681Y-133891195D01*
X218845394Y-133881502D01*
X218896322Y-133874263D01*
X218937458Y-133864093D01*
X218967657Y-133849121D01*
X218994930Y-133826395D01*
X219038711Y-133783986D01*
X219013594Y-133700550D01*
X219002664Y-133661157D01*
X218986876Y-133594848D01*
X218975244Y-133534973D01*
X218969595Y-133505127D01*
X218957498Y-133466860D01*
X218937937Y-133433681D01*
X218907172Y-133401068D01*
X218861460Y-133364493D01*
X218797061Y-133319430D01*
X218764887Y-133296127D01*
X218688092Y-133228049D01*
X218620637Y-133150959D01*
X218567476Y-133070970D01*
X218533559Y-132994193D01*
X218530849Y-132985504D01*
X218518223Y-132948888D01*
X218503936Y-132919545D01*
X218484693Y-132895325D01*
X218457195Y-132874076D01*
X218418144Y-132853651D01*
X218364248Y-132831898D01*
X218292206Y-132806666D01*
X218198724Y-132775808D01*
X217951582Y-132695094D01*
X217825707Y-132713870D01*
X217740745Y-132730621D01*
X217656005Y-132757285D01*
X217562970Y-132797062D01*
X217521018Y-132817770D01*
X217470039Y-132846484D01*
X217420831Y-132879331D01*
X217370853Y-132918630D01*
X217317566Y-132966709D01*
X217258427Y-133025890D01*
X217190901Y-133098497D01*
X217112441Y-133186855D01*
X217020512Y-133293287D01*
X216997289Y-133320253D01*
X216937983Y-133387763D01*
X216881542Y-133450216D01*
X216831409Y-133503902D01*
X216791025Y-133545113D01*
X216763827Y-133570133D01*
X216700254Y-133621398D01*
X216712171Y-133565917D01*
X216724089Y-133510435D01*
X216705490Y-133555843D01*
X216697102Y-133584757D01*
X216688837Y-133638603D01*
X216684679Y-133699658D01*
X216546679Y-133699658D01*
X216546847Y-133638620D01*
X216551626Y-133574189D01*
X216561259Y-133528482D01*
X216564034Y-133518827D01*
X216570218Y-133481871D01*
X216575002Y-133432195D01*
X216578185Y-133376221D01*
X216579568Y-133320365D01*
X216578952Y-133271050D01*
X216576137Y-133234696D01*
X216570923Y-133217724D01*
X216561733Y-133219008D01*
X216538733Y-133234299D01*
X216509208Y-133261098D01*
X216504938Y-133265494D01*
X216457529Y-133329481D01*
X216427144Y-133406105D01*
X216411794Y-133500253D01*
X216409318Y-133530241D01*
X216405449Y-133575519D01*
X216402572Y-133607280D01*
X216400832Y-133713783D01*
X216264717Y-133713783D01*
X216264670Y-133702233D01*
X216264268Y-133605733D01*
X216268349Y-133510661D01*
X216278039Y-133430990D01*
X216294054Y-133361211D01*
X216317099Y-133295811D01*
X216359419Y-133193092D01*
X216322077Y-133209111D01*
X216295604Y-133227421D01*
X216261892Y-133260191D01*
X216228322Y-133300279D01*
X216210759Y-133324068D01*
X216188358Y-133358125D01*
X216173216Y-133390374D01*
X216161442Y-133429938D01*
X216149146Y-133485936D01*
X216140040Y-133536575D01*
X216134694Y-133594909D01*
X215913169Y-133594909D01*
X215920422Y-133570503D01*
X215940520Y-133537462D01*
X215874443Y-133534683D01*
X215854800Y-133533704D01*
X215803972Y-133530117D01*
X215762266Y-133525880D01*
X215756254Y-133525146D01*
X215709395Y-133521312D01*
X215661058Y-133519630D01*
X215655793Y-133519562D01*
X215601773Y-133516013D01*
X215527609Y-133507591D01*
X215437873Y-133494978D01*
X215337141Y-133478860D01*
X215229987Y-133459919D01*
X215120985Y-133438841D01*
X215049983Y-133423091D01*
X214976386Y-133402553D01*
X214900413Y-133376063D01*
X214811875Y-133340376D01*
X214779277Y-133326649D01*
X214737628Y-133309119D01*
X215173722Y-133309119D01*
X215186877Y-133314553D01*
X215233017Y-133326069D01*
X215330490Y-133345828D01*
X215452289Y-133365846D01*
X215599216Y-133386260D01*
X215618895Y-133388387D01*
X215674241Y-133392407D01*
X215743544Y-133395785D01*
X215818786Y-133398229D01*
X215891944Y-133399448D01*
X215954996Y-133399152D01*
X216026251Y-133397671D01*
X216062133Y-133319420D01*
X216075675Y-133291193D01*
X216127938Y-133203205D01*
X216184657Y-133137854D01*
X216219142Y-133114174D01*
X216663686Y-133114174D01*
X216682280Y-133137469D01*
X216684378Y-133138979D01*
X216695048Y-133151468D01*
X216702665Y-133172747D01*
X216707928Y-133207101D01*
X216708523Y-133215604D01*
X216711542Y-133258816D01*
X216714209Y-133332176D01*
X216716045Y-133386385D01*
X216719040Y-133439523D01*
X216722832Y-133469968D01*
X216727688Y-133479593D01*
X216733874Y-133470272D01*
X216751304Y-133437612D01*
X216778735Y-133403812D01*
X216789724Y-133392491D01*
X216817217Y-133361758D01*
X216855237Y-133317732D01*
X216900313Y-133264449D01*
X216948972Y-133205944D01*
X216965843Y-133185629D01*
X217028733Y-133111695D01*
X217096983Y-133033674D01*
X217163421Y-132959692D01*
X217220877Y-132897872D01*
X217240192Y-132877655D01*
X217288208Y-132828400D01*
X217326665Y-132792106D01*
X217361649Y-132764270D01*
X217399242Y-132740394D01*
X217445528Y-132715978D01*
X217506588Y-132686523D01*
X217540859Y-132670390D01*
X217600252Y-132644057D01*
X217649460Y-132626096D01*
X217697179Y-132614078D01*
X217752109Y-132605572D01*
X217822947Y-132598150D01*
X217985468Y-132582849D01*
X218268400Y-132685828D01*
X218551334Y-132788807D01*
X218628783Y-132894572D01*
X218642505Y-132913724D01*
X218684219Y-132975985D01*
X218723960Y-133040365D01*
X218754685Y-133095622D01*
X218782075Y-133145101D01*
X218813181Y-133189161D01*
X218852792Y-133232511D01*
X218907268Y-133282958D01*
X218959662Y-133330213D01*
X219006609Y-133376466D01*
X219039850Y-133416484D01*
X219063060Y-133455563D01*
X219079912Y-133498991D01*
X219094079Y-133552064D01*
X219108336Y-133609708D01*
X219124536Y-133670575D01*
X219138708Y-133719559D01*
X219139423Y-133721887D01*
X219149690Y-133767432D01*
X219147422Y-133805793D01*
X219130624Y-133845412D01*
X219097300Y-133894736D01*
X219089006Y-133908012D01*
X219090939Y-133918709D01*
X219108796Y-133929226D01*
X219146893Y-133943831D01*
X219166987Y-133952090D01*
X219204211Y-133972099D01*
X219248705Y-134001960D01*
X219304314Y-134044338D01*
X219374887Y-134101899D01*
X219402282Y-134124741D01*
X219466901Y-134179312D01*
X219516347Y-134223013D01*
X219554293Y-134259866D01*
X219584406Y-134293892D01*
X219610357Y-134329113D01*
X219635815Y-134369550D01*
X219664449Y-134419225D01*
X219726324Y-134528694D01*
X219709159Y-134639991D01*
X219694619Y-134712358D01*
X219664544Y-134798650D01*
X219652846Y-134832216D01*
X219591838Y-134935856D01*
X219512237Y-135022028D01*
X219475935Y-135050787D01*
X219380264Y-135109199D01*
X219270371Y-135157688D01*
X219153812Y-135193701D01*
X219038147Y-135214692D01*
X218930931Y-135218110D01*
X218874077Y-135214592D01*
X218885488Y-135255870D01*
X218885631Y-135256390D01*
X218892883Y-135305379D01*
X218894436Y-135372463D01*
X218890629Y-135450616D01*
X218881804Y-135532813D01*
X218868296Y-135612028D01*
X218865378Y-135625898D01*
X218853957Y-135674864D01*
X218841260Y-135713195D01*
X218827905Y-135738740D01*
X218823795Y-135746605D01*
X218798069Y-135780804D01*
X218760590Y-135821507D01*
X218707866Y-135874422D01*
X218670466Y-135908187D01*
X218604259Y-135958867D01*
X218529415Y-136008463D01*
X218452810Y-136052796D01*
X218381317Y-136087692D01*
X218321814Y-136108969D01*
X218286676Y-136116547D01*
X218237858Y-136118918D01*
X218191025Y-136108167D01*
X218181268Y-136104917D01*
X218127574Y-136089684D01*
X218075794Y-136078239D01*
X218064091Y-136076371D01*
X218053016Y-136076266D01*
X218062593Y-136082103D01*
X218094167Y-136094540D01*
X218149087Y-136114242D01*
X218190577Y-136128407D01*
X218244737Y-136145649D01*
X218288069Y-136157996D01*
X218313812Y-136163428D01*
X218320332Y-136163865D01*
X218364578Y-136161299D01*
X218423016Y-136149601D01*
X218498689Y-136128038D01*
X218594641Y-136095876D01*
X218692121Y-136062394D01*
X218786850Y-136032240D01*
X218871726Y-136008324D01*
X218954141Y-135988435D01*
X218986765Y-135980518D01*
X219035618Y-135966581D01*
X219072176Y-135953723D01*
X219082682Y-135949567D01*
X219126938Y-135935141D01*
X219174027Y-135923036D01*
X219197994Y-135916775D01*
X219250882Y-135898565D01*
X219301266Y-135876723D01*
X219325903Y-135865338D01*
X219383620Y-135842619D01*
X219437076Y-135825818D01*
X219466293Y-135817676D01*
X219524900Y-135798971D01*
X219579867Y-135779028D01*
X219601598Y-135770541D01*
X219674194Y-135743491D01*
X219732577Y-135723866D01*
X219773574Y-135712677D01*
X219794010Y-135710931D01*
X219795244Y-135711044D01*
X219813478Y-135703494D01*
X219847320Y-135684122D01*
X219892263Y-135655950D01*
X219943796Y-135621999D01*
X219997410Y-135585286D01*
X220048600Y-135548834D01*
X220092854Y-135515660D01*
X220125665Y-135488787D01*
X220144154Y-135472884D01*
X220191367Y-135434831D01*
X220237359Y-135400407D01*
X220248356Y-135392122D01*
X220288717Y-135357004D01*
X220334676Y-135311934D01*
X220378285Y-135264576D01*
X220389809Y-135251444D01*
X220441759Y-135194911D01*
X220499700Y-135134979D01*
X220553109Y-135082605D01*
X220631467Y-135002856D01*
X220732609Y-134876912D01*
X220822835Y-134733245D01*
X220848331Y-134685954D01*
X220886853Y-134604437D01*
X220918089Y-134521317D01*
X220943917Y-134430512D01*
X220966211Y-134325941D01*
X220986847Y-134201522D01*
X220992498Y-134163346D01*
X221006798Y-134059465D01*
X221016416Y-133973400D01*
X221021662Y-133899391D01*
X221022842Y-133831683D01*
X221020269Y-133764516D01*
X221014253Y-133692135D01*
X221011955Y-133671642D01*
X221003937Y-133623508D01*
X220991182Y-133574533D01*
X220972054Y-133520385D01*
X220944921Y-133456736D01*
X220908148Y-133379255D01*
X220860102Y-133283612D01*
X220859291Y-133282137D01*
X220844066Y-133260632D01*
X220815841Y-133224916D01*
X220778346Y-133179605D01*
X220735308Y-133129305D01*
X220732627Y-133126222D01*
X220687401Y-133074116D01*
X220645529Y-133025730D01*
X220611570Y-132986339D01*
X220590086Y-132961225D01*
X220581450Y-132951688D01*
X220549662Y-132920373D01*
X220507274Y-132881698D01*
X220461040Y-132841906D01*
X220445833Y-132829160D01*
X220393604Y-132784538D01*
X220343279Y-132740468D01*
X220303946Y-132704877D01*
X220243405Y-132651773D01*
X220161449Y-132589428D01*
X220069405Y-132529746D01*
X219964230Y-132471054D01*
X219842882Y-132411678D01*
X219702322Y-132349943D01*
X219539507Y-132284178D01*
X219524415Y-132278288D01*
X219428412Y-132241127D01*
X219352204Y-132212405D01*
X219292098Y-132190914D01*
X219244397Y-132175445D01*
X219205408Y-132164790D01*
X219171436Y-132157738D01*
X219138789Y-132153083D01*
X219091718Y-132147102D01*
X219025623Y-132137932D01*
X218951288Y-132127063D01*
X218877608Y-132115765D01*
X218808499Y-132105693D01*
X218731220Y-132095998D01*
X218660602Y-132088613D01*
X218606086Y-132084624D01*
X218544506Y-132080200D01*
X218475160Y-132072411D01*
X218416254Y-132063126D01*
X218279903Y-132046247D01*
X218112978Y-132048637D01*
X217935247Y-132074270D01*
X217747019Y-132123118D01*
X217743617Y-132124340D01*
X217715837Y-132137510D01*
X217670879Y-132161486D01*
X217612785Y-132194018D01*
X217545596Y-132232849D01*
X217473354Y-132275727D01*
X217454358Y-132287184D01*
X217364954Y-132342421D01*
X217293062Y-132389691D01*
X217234029Y-132432321D01*
X217183201Y-132473636D01*
X217135926Y-132516967D01*
X217099346Y-132553133D01*
X217061974Y-132592102D01*
X217035172Y-132622426D01*
X217023117Y-132639564D01*
X217019493Y-132646354D01*
X217001020Y-132672068D01*
X216971478Y-132708671D01*
X216935262Y-132750603D01*
X216928609Y-132758135D01*
X216880836Y-132815059D01*
X216831561Y-132877668D01*
X216790461Y-132933718D01*
X216780333Y-132948149D01*
X216747485Y-132992910D01*
X216718384Y-133029800D01*
X216698360Y-133051974D01*
X216669645Y-133085384D01*
X216663686Y-133114174D01*
X216219142Y-133114174D01*
X216244509Y-133096755D01*
X216264063Y-133087341D01*
X216289977Y-133073526D01*
X216299002Y-133066551D01*
X216297945Y-133065078D01*
X216286388Y-133048861D01*
X216267085Y-133021704D01*
X216261706Y-133014649D01*
X216236337Y-132985028D01*
X216198299Y-132943338D01*
X216151761Y-132894094D01*
X216100895Y-132841811D01*
X216055572Y-132796226D01*
X216014884Y-132756604D01*
X215986736Y-132731600D01*
X215968222Y-132718924D01*
X215956444Y-132716280D01*
X215948496Y-132721378D01*
X215937370Y-132733198D01*
X215897035Y-132768717D01*
X215839360Y-132813302D01*
X215767937Y-132864252D01*
X215686352Y-132918861D01*
X215604882Y-132972424D01*
X215533338Y-133021254D01*
X215471457Y-133066018D01*
X215412710Y-133111453D01*
X215350566Y-133162291D01*
X215326308Y-133181923D01*
X215289909Y-133209367D01*
X215263230Y-133227088D01*
X215262307Y-133227615D01*
X215231433Y-133248908D01*
X215199017Y-133276155D01*
X215194924Y-133280009D01*
X215175752Y-133299667D01*
X215173722Y-133309119D01*
X214737628Y-133309119D01*
X214699914Y-133293245D01*
X214609770Y-133255316D01*
X214517617Y-133216557D01*
X214432236Y-133180659D01*
X214422213Y-133176433D01*
X214274002Y-133110448D01*
X214147772Y-133046860D01*
X214040144Y-132983853D01*
X213947739Y-132919608D01*
X213913268Y-132894163D01*
X213858546Y-132855654D01*
X213806678Y-132820899D01*
X213766336Y-132793959D01*
X213732659Y-132769909D01*
X213713601Y-132754393D01*
X213694384Y-132734741D01*
X213633652Y-132672112D01*
X213588337Y-132623975D01*
X213556095Y-132587337D01*
X213534579Y-132559212D01*
X213521445Y-132536610D01*
X213514348Y-132516540D01*
X213510945Y-132496015D01*
X213510412Y-132490366D01*
X213516134Y-132432844D01*
X213544148Y-132388158D01*
X213595194Y-132355071D01*
X213608432Y-132349211D01*
X213655227Y-132328308D01*
X213702260Y-132307095D01*
X213761310Y-132280294D01*
X213729481Y-132264115D01*
X213720114Y-132260116D01*
X213674547Y-132249725D01*
X213612530Y-132244278D01*
X213541063Y-132244159D01*
X213467157Y-132249751D01*
X213370620Y-132260769D01*
X213280922Y-132269400D01*
X213210841Y-132273014D01*
X213157134Y-132270874D01*
X213116561Y-132262236D01*
X213085883Y-132246367D01*
X213061858Y-132222523D01*
X213041245Y-132189968D01*
X213020807Y-132147960D01*
X212990278Y-132086146D01*
X212945578Y-132015878D01*
X212897051Y-131965348D01*
X212840971Y-131930956D01*
X212773615Y-131909106D01*
X212753835Y-131904857D01*
X212725565Y-131901878D01*
X212710567Y-131909173D01*
X212700865Y-131928914D01*
X212696372Y-131947692D01*
X212701179Y-131965450D01*
X212719428Y-131986817D01*
X212754752Y-132017795D01*
X212797977Y-132054371D01*
X212852165Y-132102395D01*
X212888873Y-132139411D01*
X212910040Y-132168337D01*
X212917601Y-132192086D01*
X212913498Y-132213572D01*
X212899665Y-132235708D01*
X212899640Y-132235731D01*
X212889314Y-132245511D01*
X212863468Y-132252925D01*
X212825510Y-132247044D01*
X212772477Y-132227223D01*
X212701409Y-132192828D01*
X212663129Y-132173646D01*
X212593216Y-132140357D01*
X212517323Y-132105777D01*
X212446259Y-132074906D01*
X212383575Y-132049592D01*
X212329175Y-132031022D01*
X212295163Y-132025046D01*
X212281439Y-132032355D01*
X212287910Y-132053640D01*
X212314475Y-132089591D01*
X212361038Y-132140902D01*
X212427502Y-132208264D01*
X212436201Y-132216913D01*
X212480082Y-132261755D01*
X212515665Y-132300112D01*
X212539490Y-132328144D01*
X212548098Y-132342016D01*
X212553299Y-132352420D01*
X212574450Y-132365735D01*
X212581550Y-132368738D01*
X212612781Y-132393696D01*
X212631213Y-132427724D01*
X212631242Y-132461387D01*
X212627384Y-132471123D01*
X212617514Y-132487196D01*
X212602910Y-132496115D01*
X212580398Y-132497362D01*
X212546789Y-132490421D01*
X212498908Y-132474775D01*
X212433572Y-132449906D01*
X212347599Y-132415299D01*
X212277801Y-132386598D01*
X212211146Y-132358642D01*
X212155435Y-132334705D01*
X212115041Y-132316668D01*
X212094339Y-132306410D01*
X212066117Y-132289176D01*
X211917410Y-132289176D01*
X211917370Y-132289089D01*
X211905718Y-132254744D01*
X211904692Y-132229338D01*
X211912941Y-132205221D01*
X211917049Y-132197366D01*
X211942337Y-132170195D01*
X211984390Y-132153580D01*
X212005971Y-132148784D01*
X212030121Y-132147185D01*
X212056527Y-132152188D01*
X212092239Y-132165314D01*
X212144305Y-132188084D01*
X212147793Y-132189649D01*
X212196603Y-132211289D01*
X212225533Y-132222880D01*
X212238098Y-132225090D01*
X212237810Y-132218585D01*
X212228185Y-132204037D01*
X212209873Y-132175950D01*
X212186379Y-132133719D01*
X212166428Y-132091810D01*
X212153401Y-132057461D01*
X212150672Y-132037908D01*
X212151349Y-132026288D01*
X212142695Y-132001041D01*
X212137658Y-131977480D01*
X212141041Y-131965225D01*
X212156429Y-131965225D01*
X212157603Y-131969782D01*
X212164898Y-131982105D01*
X212166229Y-131982231D01*
X212174706Y-131971876D01*
X212175425Y-131968358D01*
X212166237Y-131954997D01*
X212161481Y-131954350D01*
X212156429Y-131965225D01*
X212141041Y-131965225D01*
X212149073Y-131936133D01*
X212153038Y-131928333D01*
X212176559Y-131901546D01*
X212211639Y-131887818D01*
X212261062Y-131887020D01*
X212327615Y-131899021D01*
X212414083Y-131923689D01*
X212545814Y-131965579D01*
X212584167Y-131881199D01*
X212584571Y-131880311D01*
X212605954Y-131835671D01*
X212625336Y-131799180D01*
X212638567Y-131778664D01*
X212640686Y-131776547D01*
X212670080Y-131765915D01*
X212718403Y-131766921D01*
G37*
G36*
X216577343Y-137159533D02*
G01*
X216632871Y-137184099D01*
X216650310Y-137198316D01*
X216667644Y-137223235D01*
X216672397Y-137255533D01*
X216664948Y-137300506D01*
X216645676Y-137363452D01*
X216638875Y-137379882D01*
X216616646Y-137433584D01*
X216581275Y-137485072D01*
X216537995Y-137516793D01*
X216483809Y-137531863D01*
X216460951Y-137532708D01*
X216402729Y-137520327D01*
X216347829Y-137491508D01*
X216306729Y-137451034D01*
X216296772Y-137433267D01*
X216284463Y-137379068D01*
X216286912Y-137358607D01*
X216414136Y-137358607D01*
X216417487Y-137381468D01*
X216443636Y-137401403D01*
X216474791Y-137400838D01*
X216504152Y-137379393D01*
X216526654Y-137339037D01*
X216527818Y-137335631D01*
X216532040Y-137303275D01*
X216517779Y-137289017D01*
X216485377Y-137293238D01*
X216457565Y-137306625D01*
X216429197Y-137331448D01*
X216414136Y-137358607D01*
X216286912Y-137358607D01*
X216291493Y-137320331D01*
X216317366Y-137265689D01*
X216331347Y-137247773D01*
X216384624Y-137200790D01*
X216447317Y-137169405D01*
X216513524Y-137155144D01*
X216577343Y-137159533D01*
G37*
G36*
X215395470Y-135996293D02*
G01*
X215463618Y-136013486D01*
X215551410Y-136043267D01*
X215595485Y-136059435D01*
X215645006Y-136078573D01*
X215678228Y-136093754D01*
X215700075Y-136107747D01*
X215715473Y-136123320D01*
X215729348Y-136143240D01*
X215736820Y-136155576D01*
X215762149Y-136220920D01*
X215763821Y-136282799D01*
X215747771Y-136327555D01*
X215743745Y-136338783D01*
X215703837Y-136386437D01*
X215646005Y-136423328D01*
X215572165Y-136447024D01*
X215484225Y-136455096D01*
X215442839Y-136451641D01*
X215367955Y-136427361D01*
X215304873Y-136382157D01*
X215258084Y-136318739D01*
X215241878Y-136272254D01*
X215232598Y-136207824D01*
X215233070Y-136160712D01*
X215336356Y-136160712D01*
X215338711Y-136206489D01*
X215351111Y-136253517D01*
X215352364Y-136256711D01*
X215369724Y-136292309D01*
X215392072Y-136313360D01*
X215429610Y-136329772D01*
X215486372Y-136343133D01*
X215555613Y-136340973D01*
X215615819Y-136318110D01*
X215648080Y-136291271D01*
X215659358Y-136259351D01*
X215647428Y-136220214D01*
X215641252Y-136209774D01*
X215626681Y-136193978D01*
X215603013Y-136179037D01*
X215565072Y-136161971D01*
X215507673Y-136139799D01*
X215473932Y-136127649D01*
X215424205Y-136111494D01*
X215385983Y-136101254D01*
X215365567Y-136098750D01*
X215359119Y-136101299D01*
X215343379Y-136123282D01*
X215336356Y-136160712D01*
X215233070Y-136160712D01*
X215233261Y-136141707D01*
X215244566Y-136085905D01*
X215253903Y-136062519D01*
X215276184Y-136024804D01*
X215305024Y-136001497D01*
X215343696Y-135992145D01*
X215395470Y-135996293D01*
G37*
G36*
X217459078Y-136701050D02*
G01*
X217514373Y-136748813D01*
X217554826Y-136807288D01*
X217578184Y-136873704D01*
X217583855Y-136941683D01*
X217573837Y-136992198D01*
X217571315Y-137004914D01*
X217540038Y-137057092D01*
X217538366Y-137058900D01*
X217519081Y-137076395D01*
X217496415Y-137088023D01*
X217464732Y-137095092D01*
X217418397Y-137098909D01*
X217351772Y-137100780D01*
X217345470Y-137100878D01*
X217296931Y-137100928D01*
X217258706Y-137099817D01*
X217238600Y-137097751D01*
X217223998Y-137090927D01*
X217190542Y-137062611D01*
X217156444Y-137020430D01*
X217127677Y-136971205D01*
X217124348Y-136964039D01*
X217102637Y-136893250D01*
X217103350Y-136873959D01*
X217237947Y-136873959D01*
X217251206Y-136913003D01*
X217275139Y-136970146D01*
X217357672Y-136970844D01*
X217377934Y-136970641D01*
X217426286Y-136964370D01*
X217452289Y-136947958D01*
X217457838Y-136919357D01*
X217444826Y-136876516D01*
X217441283Y-136867383D01*
X217433336Y-136831396D01*
X217436125Y-136805136D01*
X217441228Y-136794688D01*
X217441062Y-136787442D01*
X217423291Y-136797015D01*
X217405165Y-136804561D01*
X217379427Y-136805197D01*
X217365150Y-136805189D01*
X217343686Y-136819751D01*
X217326392Y-136832436D01*
X217295291Y-136837987D01*
X217272024Y-136838198D01*
X217245376Y-136845276D01*
X217238957Y-136851824D01*
X217237947Y-136873959D01*
X217103350Y-136873959D01*
X217104947Y-136830793D01*
X217131270Y-136777417D01*
X217134161Y-136773935D01*
X217165256Y-136747266D01*
X217204666Y-136724954D01*
X217243214Y-136711349D01*
X217271724Y-136710804D01*
X217275597Y-136711418D01*
X217300148Y-136706137D01*
X217332922Y-136691685D01*
X217354363Y-136682490D01*
X217405868Y-136678983D01*
X217459078Y-136701050D01*
G37*
G36*
X216187011Y-135458803D02*
G01*
X216249845Y-135490488D01*
X216307355Y-135538657D01*
X216329479Y-135563524D01*
X216376242Y-135628345D01*
X216411485Y-135695234D01*
X216432321Y-135758074D01*
X216435861Y-135810751D01*
X216434087Y-135822247D01*
X216422605Y-135856047D01*
X216410802Y-135890791D01*
X216369236Y-135941570D01*
X216311206Y-135972995D01*
X216238527Y-135983476D01*
X216188385Y-135979441D01*
X216124693Y-135959498D01*
X216060131Y-135919624D01*
X216045108Y-135907904D01*
X215990916Y-135851946D01*
X215957980Y-135788109D01*
X215944858Y-135712466D01*
X215945455Y-135702058D01*
X216074338Y-135702058D01*
X216077391Y-135738956D01*
X216089485Y-135765936D01*
X216114214Y-135793630D01*
X216166039Y-135834336D01*
X216219374Y-135854894D01*
X216268627Y-135851310D01*
X216286130Y-135842233D01*
X216306196Y-135813679D01*
X216306455Y-135775960D01*
X216286012Y-135735084D01*
X216266788Y-135706060D01*
X216256317Y-135682707D01*
X216247147Y-135661001D01*
X216221325Y-135630450D01*
X216186429Y-135603854D01*
X216149022Y-135585079D01*
X216115667Y-135577990D01*
X216092932Y-135586458D01*
X216086702Y-135599746D01*
X216079251Y-135633970D01*
X216075030Y-135677680D01*
X216074338Y-135702058D01*
X215945455Y-135702058D01*
X215950101Y-135621096D01*
X215951495Y-135611939D01*
X215973701Y-135539748D01*
X216013066Y-135486717D01*
X216069331Y-135453210D01*
X216124750Y-135445717D01*
X216187011Y-135458803D01*
G37*
G36*
X220528335Y-133266056D02*
G01*
X220537539Y-133267963D01*
X220573156Y-133276979D01*
X220602150Y-133289331D01*
X220627478Y-133308365D01*
X220652102Y-133337429D01*
X220678979Y-133379871D01*
X220711070Y-133439039D01*
X220751336Y-133518279D01*
X220765063Y-133547337D01*
X220780324Y-133588796D01*
X220789625Y-133632554D01*
X220793653Y-133684468D01*
X220793094Y-133750399D01*
X220788638Y-133836201D01*
X220787683Y-133850844D01*
X220783059Y-133905006D01*
X220776167Y-133949683D01*
X220764970Y-133993184D01*
X220747432Y-134043816D01*
X220721513Y-134109888D01*
X220715829Y-134123951D01*
X220706002Y-134147145D01*
X220688318Y-134188885D01*
X220666301Y-134233995D01*
X220647590Y-134263370D01*
X220630003Y-134281096D01*
X220605771Y-134302312D01*
X220592199Y-134320159D01*
X220588373Y-134328214D01*
X220563019Y-134359207D01*
X220524593Y-134391843D01*
X220481426Y-134419686D01*
X220441852Y-134436300D01*
X220428939Y-134439220D01*
X220383603Y-134440393D01*
X220351839Y-134421278D01*
X220329103Y-134379595D01*
X220323233Y-134367861D01*
X220300363Y-134337276D01*
X220269517Y-134304903D01*
X220238361Y-134278388D01*
X220214558Y-134265371D01*
X220185350Y-134253006D01*
X220162282Y-134226789D01*
X220153951Y-134194945D01*
X220160261Y-134164278D01*
X220181116Y-134141597D01*
X220216421Y-134133707D01*
X220222007Y-134133674D01*
X220255482Y-134119462D01*
X220282043Y-134080690D01*
X220301889Y-134017088D01*
X220309058Y-133980587D01*
X220320763Y-133876012D01*
X220318334Y-133780801D01*
X220302108Y-133699288D01*
X220272419Y-133635803D01*
X220257270Y-133611049D01*
X220234072Y-133566412D01*
X220210092Y-133514547D01*
X220187842Y-133461518D01*
X220177830Y-133434762D01*
X220310156Y-133434762D01*
X220319155Y-133463369D01*
X220337657Y-133503333D01*
X220362386Y-133547932D01*
X220390068Y-133590446D01*
X220414754Y-133634748D01*
X220434650Y-133701717D01*
X220444349Y-133786584D01*
X220444425Y-133892552D01*
X220443329Y-133910989D01*
X220435404Y-133973488D01*
X220422072Y-134039169D01*
X220405229Y-134100774D01*
X220386771Y-134151050D01*
X220368593Y-134182740D01*
X220357842Y-134196667D01*
X220355309Y-134211288D01*
X220367232Y-134229248D01*
X220396146Y-134257409D01*
X220447318Y-134304967D01*
X220469984Y-134278722D01*
X220486027Y-134257551D01*
X220499774Y-134232908D01*
X220511226Y-134216774D01*
X220536810Y-134197499D01*
X220547227Y-134190608D01*
X220561003Y-134174873D01*
X220575378Y-134148175D01*
X220592697Y-134105905D01*
X220615309Y-134043460D01*
X220650700Y-133922394D01*
X220669639Y-133808332D01*
X220671666Y-133705264D01*
X220656730Y-133616033D01*
X220624774Y-133543477D01*
X220618939Y-133534140D01*
X220593027Y-133489397D01*
X220569017Y-133443913D01*
X220553057Y-133415143D01*
X220532564Y-133393359D01*
X220506923Y-133385129D01*
X220483080Y-133385315D01*
X220443663Y-133390135D01*
X220398907Y-133398324D01*
X220356581Y-133408238D01*
X220324453Y-133418236D01*
X220310291Y-133426678D01*
X220310156Y-133434762D01*
X220177830Y-133434762D01*
X220169835Y-133413394D01*
X220158584Y-133376240D01*
X220156599Y-133356120D01*
X220160053Y-133350278D01*
X220181068Y-133332955D01*
X220208710Y-133319610D01*
X220230145Y-133317058D01*
X220248331Y-133315515D01*
X220277192Y-133305126D01*
X220295186Y-133297623D01*
X220353231Y-133280449D01*
X220418327Y-133268391D01*
X220480140Y-133263058D01*
X220528335Y-133266056D01*
G37*
G36*
X217538016Y-134467637D02*
G01*
X217568595Y-134470847D01*
X217599989Y-134478129D01*
X217637938Y-134491049D01*
X217688186Y-134511174D01*
X217756475Y-134540067D01*
X217798572Y-134558214D01*
X217864556Y-134588471D01*
X217913034Y-134615041D01*
X217948456Y-134641586D01*
X217975267Y-134671768D01*
X217997916Y-134709246D01*
X218020853Y-134757683D01*
X218048824Y-134820474D01*
X217999258Y-134983161D01*
X217949690Y-135145849D01*
X217869750Y-135211983D01*
X217820417Y-135250271D01*
X217747906Y-135294744D01*
X217679241Y-135320186D01*
X217609208Y-135328939D01*
X217570704Y-135329045D01*
X217547700Y-135325567D01*
X217534474Y-135315170D01*
X217522752Y-135294567D01*
X217514132Y-135275667D01*
X217513597Y-135256512D01*
X217530225Y-135239822D01*
X217543680Y-135232939D01*
X217580779Y-135223264D01*
X217625389Y-135218638D01*
X217653309Y-135216940D01*
X217689171Y-135209006D01*
X217723660Y-135190984D01*
X217766588Y-135158708D01*
X217770464Y-135155568D01*
X217803216Y-135127946D01*
X217825975Y-135104103D01*
X217843366Y-135076971D01*
X217860016Y-135039480D01*
X217880550Y-134984562D01*
X217896873Y-134938466D01*
X217915538Y-134875644D01*
X217922115Y-134826144D01*
X217914611Y-134786121D01*
X217891036Y-134751739D01*
X217849396Y-134719154D01*
X217787701Y-134684525D01*
X217703959Y-134644012D01*
X217702092Y-134643137D01*
X217640450Y-134614494D01*
X217596591Y-134595344D01*
X217565016Y-134584097D01*
X217540224Y-134579165D01*
X217516717Y-134578959D01*
X217488992Y-134581887D01*
X217467996Y-134585888D01*
X217418317Y-134600152D01*
X217359102Y-134621209D01*
X217299049Y-134646116D01*
X217259478Y-134663140D01*
X217211103Y-134681747D01*
X217174548Y-134693176D01*
X217155605Y-134695438D01*
X217141698Y-134685128D01*
X217125240Y-134659671D01*
X217119283Y-134638725D01*
X217126003Y-134622672D01*
X217149666Y-134601634D01*
X217156627Y-134596435D01*
X217190781Y-134574526D01*
X217237705Y-134547517D01*
X217289396Y-134520082D01*
X217339179Y-134496195D01*
X217387623Y-134478329D01*
X217433826Y-134469537D01*
X217488377Y-134466988D01*
X217502507Y-134466935D01*
X217538016Y-134467637D01*
G37*
%TD*%
M02*
