%TF.GenerationSoftware,KiCad,Pcbnew,8.0.1-rc1*%
%TF.CreationDate,2025-05-01T22:02:35-04:00*%
%TF.ProjectId,bhm,62686d2e-6b69-4636-9164-5f7063625858,rev?*%
%TF.SameCoordinates,Original*%
%TF.FileFunction,Soldermask,Top*%
%TF.FilePolarity,Negative*%
%FSLAX46Y46*%
G04 Gerber Fmt 4.6, Leading zero omitted, Abs format (unit mm)*
G04 Created by KiCad (PCBNEW 8.0.1-rc1) date 2025-05-01 22:02:35*
%MOMM*%
%LPD*%
G01*
G04 APERTURE LIST*
G04 Aperture macros list*
%AMRoundRect*
0 Rectangle with rounded corners*
0 $1 Rounding radius*
0 $2 $3 $4 $5 $6 $7 $8 $9 X,Y pos of 4 corners*
0 Add a 4 corners polygon primitive as box body*
4,1,4,$2,$3,$4,$5,$6,$7,$8,$9,$2,$3,0*
0 Add four circle primitives for the rounded corners*
1,1,$1+$1,$2,$3*
1,1,$1+$1,$4,$5*
1,1,$1+$1,$6,$7*
1,1,$1+$1,$8,$9*
0 Add four rect primitives between the rounded corners*
20,1,$1+$1,$2,$3,$4,$5,0*
20,1,$1+$1,$4,$5,$6,$7,0*
20,1,$1+$1,$6,$7,$8,$9,0*
20,1,$1+$1,$8,$9,$2,$3,0*%
G04 Aperture macros list end*
%ADD10RoundRect,0.250000X-3.250000X-1.750000X3.250000X-1.750000X3.250000X1.750000X-3.250000X1.750000X0*%
%ADD11RoundRect,0.250000X1.350000X1.750000X-1.350000X1.750000X-1.350000X-1.750000X1.350000X-1.750000X0*%
%ADD12C,1.600000*%
%ADD13O,1.600000X1.600000*%
%ADD14R,1.700000X1.700000*%
%ADD15O,1.700000X1.700000*%
%ADD16R,1.050000X1.500000*%
%ADD17O,1.050000X1.500000*%
%ADD18R,1.600000X1.600000*%
%ADD19C,1.200000*%
G04 APERTURE END LIST*
D10*
%TO.C,PosBatt1*%
X197000000Y-122000000D03*
%TD*%
%TO.C,NegDevice1*%
X256000000Y-132000000D03*
%TD*%
D11*
%TO.C,SENS1*%
X219200000Y-137000000D03*
X214000000Y-137000000D03*
%TD*%
D12*
%TO.C,R2*%
X209500000Y-125000000D03*
D13*
X201880000Y-125000000D03*
%TD*%
D14*
%TO.C,J1*%
X249500000Y-123000000D03*
D15*
X249500000Y-125540000D03*
X249500000Y-128080000D03*
X249500000Y-130620000D03*
%TD*%
D16*
%TO.C,U3*%
X229500000Y-121000000D03*
D17*
X228230000Y-121000000D03*
X226960000Y-121000000D03*
%TD*%
D12*
%TO.C,R3*%
X209500000Y-122000000D03*
D13*
X201880000Y-122000000D03*
%TD*%
D12*
%TO.C,R5*%
X201880000Y-129000000D03*
D13*
X209500000Y-129000000D03*
%TD*%
D10*
%TO.C,PosDevice1*%
X256000000Y-122000000D03*
%TD*%
D12*
%TO.C,R6*%
X231120000Y-132000000D03*
D13*
X223500000Y-132000000D03*
%TD*%
D12*
%TO.C,C2*%
X232500000Y-124000000D03*
X230000000Y-124000000D03*
%TD*%
%TO.C,R1*%
X235500000Y-121190000D03*
D13*
X235500000Y-128810000D03*
%TD*%
D18*
%TO.C,U2*%
X238700000Y-124200000D03*
D13*
X238700000Y-126740000D03*
X238700000Y-129280000D03*
X238700000Y-131820000D03*
X246320000Y-131820000D03*
X246320000Y-129280000D03*
X246320000Y-126740000D03*
X246320000Y-124200000D03*
%TD*%
D18*
%TO.C,U1*%
X212880000Y-122380000D03*
D13*
X212880000Y-124920000D03*
X212880000Y-127460000D03*
X212880000Y-130000000D03*
X220500000Y-130000000D03*
X220500000Y-127460000D03*
X220500000Y-124920000D03*
X220500000Y-122380000D03*
%TD*%
D12*
%TO.C,C1*%
X224000000Y-124000000D03*
X226500000Y-124000000D03*
%TD*%
%TO.C,R7*%
X231120000Y-128000000D03*
D13*
X223500000Y-128000000D03*
%TD*%
D12*
%TO.C,R4*%
X209500000Y-132000000D03*
D13*
X201880000Y-132000000D03*
%TD*%
D10*
%TO.C,NegBatt1*%
X197000000Y-132000000D03*
%TD*%
D19*
%TO.C,C3*%
X235750000Y-132900000D03*
X234250000Y-132900000D03*
%TD*%
M02*
